<mxfile host="app.diagrams.net" agent="Mozilla/5.0 (Windows NT 10.0; Win64; x64; rv:132.0) Gecko/20100101 Firefox/132.0" version="24.8.4" pages="2">
  <diagram id="ClIYV2II1f3CDvB0g234" name="Cas d&#39;utilisation">
    <mxGraphModel grid="1" page="1" gridSize="10" guides="1" tooltips="1" connect="1" arrows="1" fold="1" pageScale="1" pageWidth="850" pageHeight="1100" math="0" shadow="0">
      <root>
        <mxCell id="0" />
        <mxCell id="1" parent="0" />
        <mxCell id="1Y4zX_QjnDjzPEfmb0Yg-1" value="Maître Du Jeu" style="shape=umlActor;verticalLabelPosition=bottom;verticalAlign=top;html=1;" vertex="1" parent="1">
          <mxGeometry x="110" y="220" width="80" height="140" as="geometry" />
        </mxCell>
        <mxCell id="7-UkyINJ52MU6-Y0_X81-1" value="Joueurs" style="shape=umlActor;verticalLabelPosition=bottom;verticalAlign=top;html=1;" vertex="1" parent="1">
          <mxGeometry x="110" y="490" width="80" height="140" as="geometry" />
        </mxCell>
        <mxCell id="7-UkyINJ52MU6-Y0_X81-3" value="&lt;b style=&quot;font-size: 16px;&quot;&gt;Démarrer &lt;/b&gt;la partie" style="ellipse;whiteSpace=wrap;html=1;fillColor=#009900;strokeColor=#2D7600;fontColor=#ffffff;fontStyle=0;fontSize=16;" vertex="1" parent="1">
          <mxGeometry x="440" y="200" width="220" height="90" as="geometry" />
        </mxCell>
        <mxCell id="7-UkyINJ52MU6-Y0_X81-4" value="" style="endArrow=classic;html=1;rounded=0;exitX=0.5;exitY=0.5;exitDx=0;exitDy=0;exitPerimeter=0;entryX=0;entryY=0.5;entryDx=0;entryDy=0;strokeWidth=2;fillColor=#f8cecc;strokeColor=#FF8000;gradientColor=#ea6b66;" edge="1" parent="1" source="1Y4zX_QjnDjzPEfmb0Yg-1" target="7-UkyINJ52MU6-Y0_X81-3">
          <mxGeometry width="50" height="50" relative="1" as="geometry">
            <mxPoint x="420" y="370" as="sourcePoint" />
            <mxPoint x="470" y="320" as="targetPoint" />
          </mxGeometry>
        </mxCell>
        <mxCell id="7-UkyINJ52MU6-Y0_X81-5" value="&lt;b&gt;Choisir &lt;/b&gt;son héros" style="ellipse;whiteSpace=wrap;html=1;fillColor=#009900;strokeColor=#2D7600;fontColor=#ffffff;fontStyle=0;fontSize=16;" vertex="1" parent="1">
          <mxGeometry x="440" y="320" width="220" height="90" as="geometry" />
        </mxCell>
        <mxCell id="7-UkyINJ52MU6-Y0_X81-34" style="edgeStyle=orthogonalEdgeStyle;rounded=0;orthogonalLoop=1;jettySize=auto;html=1;entryX=0;entryY=0.5;entryDx=0;entryDy=0;curved=1;" edge="1" parent="1" source="7-UkyINJ52MU6-Y0_X81-6" target="7-UkyINJ52MU6-Y0_X81-13">
          <mxGeometry relative="1" as="geometry">
            <Array as="points">
              <mxPoint x="810" y="485" />
              <mxPoint x="810" y="225" />
            </Array>
          </mxGeometry>
        </mxCell>
        <mxCell id="7-UkyINJ52MU6-Y0_X81-35" value="include" style="edgeLabel;html=1;align=center;verticalAlign=middle;resizable=0;points=[];" connectable="0" vertex="1" parent="7-UkyINJ52MU6-Y0_X81-34">
          <mxGeometry x="0.0444" y="2" relative="1" as="geometry">
            <mxPoint as="offset" />
          </mxGeometry>
        </mxCell>
        <mxCell id="7-UkyINJ52MU6-Y0_X81-61" style="edgeStyle=orthogonalEdgeStyle;rounded=0;orthogonalLoop=1;jettySize=auto;html=1;entryX=0;entryY=0.5;entryDx=0;entryDy=0;curved=1;" edge="1" parent="1" source="7-UkyINJ52MU6-Y0_X81-6" target="7-UkyINJ52MU6-Y0_X81-60">
          <mxGeometry relative="1" as="geometry">
            <Array as="points">
              <mxPoint x="810" y="485" />
              <mxPoint x="810" y="445" />
            </Array>
          </mxGeometry>
        </mxCell>
        <mxCell id="fFD66gw_FKsIteJp-uT1-31" value="&lt;div&gt;extends&lt;/div&gt;" style="edgeLabel;html=1;align=center;verticalAlign=middle;resizable=0;points=[];" connectable="0" vertex="1" parent="7-UkyINJ52MU6-Y0_X81-61">
          <mxGeometry x="0.265" y="1" relative="1" as="geometry">
            <mxPoint y="-1" as="offset" />
          </mxGeometry>
        </mxCell>
        <mxCell id="7-UkyINJ52MU6-Y0_X81-62" style="edgeStyle=orthogonalEdgeStyle;rounded=0;orthogonalLoop=1;jettySize=auto;html=1;entryX=0;entryY=0.5;entryDx=0;entryDy=0;curved=1;" edge="1" parent="1" source="7-UkyINJ52MU6-Y0_X81-6" target="7-UkyINJ52MU6-Y0_X81-59">
          <mxGeometry relative="1" as="geometry">
            <Array as="points">
              <mxPoint x="800" y="485" />
              <mxPoint x="800" y="-35" />
            </Array>
          </mxGeometry>
        </mxCell>
        <mxCell id="7-UkyINJ52MU6-Y0_X81-65" value="extends" style="edgeLabel;html=1;align=center;verticalAlign=middle;resizable=0;points=[];" connectable="0" vertex="1" parent="7-UkyINJ52MU6-Y0_X81-62">
          <mxGeometry x="0.0847" y="-3" relative="1" as="geometry">
            <mxPoint as="offset" />
          </mxGeometry>
        </mxCell>
        <mxCell id="7-UkyINJ52MU6-Y0_X81-6" value="&lt;b&gt;Jouer &lt;/b&gt;un tour" style="ellipse;whiteSpace=wrap;html=1;fillColor=#009900;strokeColor=#2D7600;fontColor=#ffffff;fontStyle=0;fontSize=16;" vertex="1" parent="1">
          <mxGeometry x="440" y="440" width="220" height="90" as="geometry" />
        </mxCell>
        <mxCell id="C2Qbr-4ys3Kmq4GY2_ef-6" value="" style="endArrow=classic;html=1;rounded=0;exitX=0.5;exitY=0.5;exitDx=0;exitDy=0;exitPerimeter=0;strokeWidth=2;fillColor=#dae8fc;strokeColor=#6c8ebf;entryX=0;entryY=0.5;entryDx=0;entryDy=0;" edge="1" parent="1" source="7-UkyINJ52MU6-Y0_X81-1" target="7-UkyINJ52MU6-Y0_X81-5">
          <mxGeometry width="50" height="50" relative="1" as="geometry">
            <mxPoint x="160" y="300" as="sourcePoint" />
            <mxPoint x="425" y="345" as="targetPoint" />
          </mxGeometry>
        </mxCell>
        <mxCell id="C2Qbr-4ys3Kmq4GY2_ef-7" value="" style="endArrow=classic;html=1;rounded=0;strokeWidth=2;fillColor=#dae8fc;strokeColor=#6c8ebf;entryX=0;entryY=0.5;entryDx=0;entryDy=0;" edge="1" parent="1" target="7-UkyINJ52MU6-Y0_X81-3">
          <mxGeometry width="50" height="50" relative="1" as="geometry">
            <mxPoint x="150" y="560" as="sourcePoint" />
            <mxPoint x="435" y="355" as="targetPoint" />
          </mxGeometry>
        </mxCell>
        <mxCell id="C2Qbr-4ys3Kmq4GY2_ef-8" value="" style="endArrow=classic;html=1;rounded=0;strokeWidth=2;fillColor=#dae8fc;strokeColor=#6c8ebf;entryX=0;entryY=0.5;entryDx=0;entryDy=0;exitX=0.5;exitY=0.5;exitDx=0;exitDy=0;exitPerimeter=0;" edge="1" parent="1" source="7-UkyINJ52MU6-Y0_X81-1" target="7-UkyINJ52MU6-Y0_X81-6">
          <mxGeometry width="50" height="50" relative="1" as="geometry">
            <mxPoint x="150" y="550" as="sourcePoint" />
            <mxPoint x="450" y="375" as="targetPoint" />
          </mxGeometry>
        </mxCell>
        <mxCell id="C2Qbr-4ys3Kmq4GY2_ef-9" value="" style="endArrow=classic;html=1;rounded=0;exitX=0.5;exitY=0.5;exitDx=0;exitDy=0;exitPerimeter=0;entryX=0;entryY=0.5;entryDx=0;entryDy=0;strokeWidth=2;fillColor=#f8cecc;strokeColor=#FF8000;gradientColor=#ea6b66;" edge="1" parent="1" source="1Y4zX_QjnDjzPEfmb0Yg-1" target="7-UkyINJ52MU6-Y0_X81-6">
          <mxGeometry width="50" height="50" relative="1" as="geometry">
            <mxPoint x="160" y="300" as="sourcePoint" />
            <mxPoint x="450" y="245" as="targetPoint" />
          </mxGeometry>
        </mxCell>
        <mxCell id="7-UkyINJ52MU6-Y0_X81-13" value="&lt;b&gt;Passer &lt;/b&gt;son tour" style="ellipse;whiteSpace=wrap;html=1;fillColor=#009900;strokeColor=#314354;fontColor=#ffffff;fontStyle=0;fontSize=16;" vertex="1" parent="1">
          <mxGeometry x="880" y="180" width="225" height="90" as="geometry" />
        </mxCell>
        <mxCell id="7-UkyINJ52MU6-Y0_X81-48" style="edgeStyle=orthogonalEdgeStyle;rounded=0;orthogonalLoop=1;jettySize=auto;html=1;entryX=0;entryY=0.5;entryDx=0;entryDy=0;curved=1;" edge="1" parent="1" source="7-UkyINJ52MU6-Y0_X81-20" target="7-UkyINJ52MU6-Y0_X81-40">
          <mxGeometry relative="1" as="geometry" />
        </mxCell>
        <mxCell id="7-UkyINJ52MU6-Y0_X81-49" value="include" style="edgeLabel;html=1;align=center;verticalAlign=middle;resizable=0;points=[];" connectable="0" vertex="1" parent="7-UkyINJ52MU6-Y0_X81-48">
          <mxGeometry x="-0.08" y="5" relative="1" as="geometry">
            <mxPoint x="1" y="1" as="offset" />
          </mxGeometry>
        </mxCell>
        <mxCell id="7-UkyINJ52MU6-Y0_X81-20" value="&lt;b&gt;Abandonner &lt;/b&gt;la partie" style="ellipse;whiteSpace=wrap;html=1;fillColor=#424E59;strokeColor=#314354;fontColor=#ffffff;fontStyle=0;fontSize=16;" vertex="1" parent="1">
          <mxGeometry x="440" y="680" width="225" height="90" as="geometry" />
        </mxCell>
        <mxCell id="7-UkyINJ52MU6-Y0_X81-26" value="" style="endArrow=classic;html=1;rounded=0;strokeWidth=2;fillColor=#dae8fc;strokeColor=#6c8ebf;entryX=0;entryY=0.5;entryDx=0;entryDy=0;exitX=0.5;exitY=0.5;exitDx=0;exitDy=0;exitPerimeter=0;" edge="1" parent="1" source="7-UkyINJ52MU6-Y0_X81-1" target="7-UkyINJ52MU6-Y0_X81-20">
          <mxGeometry width="50" height="50" relative="1" as="geometry">
            <mxPoint x="160" y="570" as="sourcePoint" />
            <mxPoint x="450" y="495" as="targetPoint" />
          </mxGeometry>
        </mxCell>
        <mxCell id="7-UkyINJ52MU6-Y0_X81-43" style="edgeStyle=orthogonalEdgeStyle;rounded=0;orthogonalLoop=1;jettySize=auto;html=1;entryX=0;entryY=0.5;entryDx=0;entryDy=0;curved=1;" edge="1" parent="1" source="7-UkyINJ52MU6-Y0_X81-38" target="7-UkyINJ52MU6-Y0_X81-40">
          <mxGeometry relative="1" as="geometry" />
        </mxCell>
        <mxCell id="7-UkyINJ52MU6-Y0_X81-45" value="include" style="edgeLabel;html=1;align=center;verticalAlign=middle;resizable=0;points=[];" connectable="0" vertex="1" parent="7-UkyINJ52MU6-Y0_X81-43">
          <mxGeometry x="-0.1222" y="-1" relative="1" as="geometry">
            <mxPoint as="offset" />
          </mxGeometry>
        </mxCell>
        <mxCell id="7-UkyINJ52MU6-Y0_X81-38" value="&lt;b&gt;Vérifier &lt;/b&gt;la victoire/défaite" style="ellipse;whiteSpace=wrap;html=1;fillColor=#009900;strokeColor=#2D7600;fontColor=#ffffff;fontStyle=0;fontSize=16;" vertex="1" parent="1">
          <mxGeometry x="440" y="560" width="220" height="90" as="geometry" />
        </mxCell>
        <mxCell id="7-UkyINJ52MU6-Y0_X81-39" value="" style="endArrow=classic;html=1;rounded=0;exitX=0.5;exitY=0.5;exitDx=0;exitDy=0;exitPerimeter=0;entryX=0;entryY=0.5;entryDx=0;entryDy=0;strokeWidth=2;fillColor=#f8cecc;strokeColor=#FF8000;gradientColor=#ea6b66;" edge="1" parent="1" source="1Y4zX_QjnDjzPEfmb0Yg-1" target="7-UkyINJ52MU6-Y0_X81-38">
          <mxGeometry width="50" height="50" relative="1" as="geometry">
            <mxPoint x="160" y="300" as="sourcePoint" />
            <mxPoint x="450" y="495" as="targetPoint" />
          </mxGeometry>
        </mxCell>
        <mxCell id="PupNDu4JJd22r2RiS60L-2" style="edgeStyle=orthogonalEdgeStyle;rounded=0;orthogonalLoop=1;jettySize=auto;html=1;entryX=0.5;entryY=0;entryDx=0;entryDy=0;" edge="1" parent="1" source="7-UkyINJ52MU6-Y0_X81-40" target="PupNDu4JJd22r2RiS60L-1">
          <mxGeometry relative="1" as="geometry" />
        </mxCell>
        <mxCell id="PupNDu4JJd22r2RiS60L-3" value="extends" style="edgeLabel;html=1;align=center;verticalAlign=middle;resizable=0;points=[];" vertex="1" connectable="0" parent="PupNDu4JJd22r2RiS60L-2">
          <mxGeometry x="-0.1927" y="-1" relative="1" as="geometry">
            <mxPoint y="1" as="offset" />
          </mxGeometry>
        </mxCell>
        <mxCell id="7-UkyINJ52MU6-Y0_X81-40" value="&lt;b&gt;Définir &lt;/b&gt;le vainqueur" style="ellipse;whiteSpace=wrap;html=1;fillColor=#009900;strokeColor=#314354;fontColor=#ffffff;fontStyle=0;fontSize=16;" vertex="1" parent="1">
          <mxGeometry x="880" y="640" width="225" height="90" as="geometry" />
        </mxCell>
        <mxCell id="fFD66gw_FKsIteJp-uT1-12" style="edgeStyle=orthogonalEdgeStyle;rounded=0;orthogonalLoop=1;jettySize=auto;html=1;entryX=0;entryY=0.5;entryDx=0;entryDy=0;curved=1;" edge="1" parent="1" source="7-UkyINJ52MU6-Y0_X81-58" target="fFD66gw_FKsIteJp-uT1-11">
          <mxGeometry relative="1" as="geometry" />
        </mxCell>
        <mxCell id="fFD66gw_FKsIteJp-uT1-30" value="include" style="edgeLabel;html=1;align=center;verticalAlign=middle;resizable=0;points=[];" connectable="0" vertex="1" parent="fFD66gw_FKsIteJp-uT1-12">
          <mxGeometry x="-0.0289" y="3" relative="1" as="geometry">
            <mxPoint as="offset" />
          </mxGeometry>
        </mxCell>
        <mxCell id="fFD66gw_FKsIteJp-uT1-16" style="edgeStyle=orthogonalEdgeStyle;rounded=0;orthogonalLoop=1;jettySize=auto;html=1;entryX=0;entryY=0.5;entryDx=0;entryDy=0;curved=1;" edge="1" parent="1" source="7-UkyINJ52MU6-Y0_X81-58" target="fFD66gw_FKsIteJp-uT1-15">
          <mxGeometry relative="1" as="geometry" />
        </mxCell>
        <mxCell id="fFD66gw_FKsIteJp-uT1-27" value="extends" style="edgeLabel;html=1;align=center;verticalAlign=middle;resizable=0;points=[];" connectable="0" vertex="1" parent="fFD66gw_FKsIteJp-uT1-16">
          <mxGeometry x="-0.0671" y="4" relative="1" as="geometry">
            <mxPoint y="1" as="offset" />
          </mxGeometry>
        </mxCell>
        <mxCell id="7-UkyINJ52MU6-Y0_X81-58" value="&lt;b&gt;se Déplacer&lt;/b&gt;" style="ellipse;whiteSpace=wrap;html=1;fillColor=#009900;strokeColor=#314354;fontColor=#ffffff;fontStyle=0;fontSize=16;" vertex="1" parent="1">
          <mxGeometry x="880" y="-280" width="225" height="90" as="geometry" />
        </mxCell>
        <mxCell id="fFD66gw_FKsIteJp-uT1-19" style="edgeStyle=orthogonalEdgeStyle;rounded=0;orthogonalLoop=1;jettySize=auto;html=1;entryX=0;entryY=0.5;entryDx=0;entryDy=0;curved=1;exitX=1;exitY=0.5;exitDx=0;exitDy=0;" edge="1" parent="1" source="fFD66gw_FKsIteJp-uT1-18" target="fFD66gw_FKsIteJp-uT1-17">
          <mxGeometry relative="1" as="geometry" />
        </mxCell>
        <mxCell id="fFD66gw_FKsIteJp-uT1-20" value="include" style="edgeLabel;html=1;align=center;verticalAlign=middle;resizable=0;points=[];" connectable="0" vertex="1" parent="fFD66gw_FKsIteJp-uT1-19">
          <mxGeometry x="-0.2664" y="-1" relative="1" as="geometry">
            <mxPoint x="-26" y="-9" as="offset" />
          </mxGeometry>
        </mxCell>
        <mxCell id="fFD66gw_FKsIteJp-uT1-21" style="edgeStyle=orthogonalEdgeStyle;rounded=0;orthogonalLoop=1;jettySize=auto;html=1;entryX=0;entryY=0.5;entryDx=0;entryDy=0;curved=1;" edge="1" parent="1" source="7-UkyINJ52MU6-Y0_X81-59" target="fFD66gw_FKsIteJp-uT1-18">
          <mxGeometry relative="1" as="geometry" />
        </mxCell>
        <mxCell id="fFD66gw_FKsIteJp-uT1-24" style="edgeStyle=orthogonalEdgeStyle;rounded=0;orthogonalLoop=1;jettySize=auto;html=1;entryX=0;entryY=0.5;entryDx=0;entryDy=0;curved=1;" edge="1" parent="1" source="7-UkyINJ52MU6-Y0_X81-59" target="fFD66gw_FKsIteJp-uT1-23">
          <mxGeometry relative="1" as="geometry" />
        </mxCell>
        <mxCell id="fFD66gw_FKsIteJp-uT1-28" value="extends" style="edgeLabel;html=1;align=center;verticalAlign=middle;resizable=0;points=[];" connectable="0" vertex="1" parent="fFD66gw_FKsIteJp-uT1-24">
          <mxGeometry x="-0.1149" y="1" relative="1" as="geometry">
            <mxPoint y="1" as="offset" />
          </mxGeometry>
        </mxCell>
        <mxCell id="7-UkyINJ52MU6-Y0_X81-80" style="edgeStyle=orthogonalEdgeStyle;rounded=0;orthogonalLoop=1;jettySize=auto;html=1;entryX=0;entryY=0.5;entryDx=0;entryDy=0;curved=1;" edge="1" parent="1" source="7-UkyINJ52MU6-Y0_X81-59" target="7-UkyINJ52MU6-Y0_X81-79">
          <mxGeometry relative="1" as="geometry" />
        </mxCell>
        <mxCell id="7-UkyINJ52MU6-Y0_X81-59" value="&lt;font color=&quot;#f0f0f0&quot;&gt;&lt;b&gt;Attaquer&lt;/b&gt;&lt;/font&gt;" style="ellipse;whiteSpace=wrap;html=1;fillColor=#009900;strokeColor=#82b366;fontStyle=0;fontSize=16;" vertex="1" parent="1">
          <mxGeometry x="880" y="-80" width="225" height="90" as="geometry" />
        </mxCell>
        <mxCell id="7-UkyINJ52MU6-Y0_X81-71" style="edgeStyle=orthogonalEdgeStyle;rounded=0;orthogonalLoop=1;jettySize=auto;html=1;entryX=0;entryY=0.5;entryDx=0;entryDy=0;curved=1;" edge="1" parent="1" source="7-UkyINJ52MU6-Y0_X81-60" target="7-UkyINJ52MU6-Y0_X81-67">
          <mxGeometry relative="1" as="geometry" />
        </mxCell>
        <mxCell id="7-UkyINJ52MU6-Y0_X81-72" style="edgeStyle=orthogonalEdgeStyle;rounded=0;orthogonalLoop=1;jettySize=auto;html=1;entryX=0;entryY=0.5;entryDx=0;entryDy=0;curved=1;" edge="1" parent="1" source="7-UkyINJ52MU6-Y0_X81-60" target="7-UkyINJ52MU6-Y0_X81-68">
          <mxGeometry relative="1" as="geometry" />
        </mxCell>
        <mxCell id="7-UkyINJ52MU6-Y0_X81-73" style="edgeStyle=orthogonalEdgeStyle;rounded=0;orthogonalLoop=1;jettySize=auto;html=1;entryX=0;entryY=0.5;entryDx=0;entryDy=0;curved=1;" edge="1" parent="1" source="7-UkyINJ52MU6-Y0_X81-60" target="7-UkyINJ52MU6-Y0_X81-69">
          <mxGeometry relative="1" as="geometry" />
        </mxCell>
        <mxCell id="7-UkyINJ52MU6-Y0_X81-74" style="edgeStyle=orthogonalEdgeStyle;rounded=0;orthogonalLoop=1;jettySize=auto;html=1;entryX=0;entryY=0.5;entryDx=0;entryDy=0;curved=1;" edge="1" parent="1" source="7-UkyINJ52MU6-Y0_X81-60" target="7-UkyINJ52MU6-Y0_X81-70">
          <mxGeometry relative="1" as="geometry" />
        </mxCell>
        <mxCell id="7-UkyINJ52MU6-Y0_X81-60" value="&lt;b&gt;Intéragir&lt;/b&gt;" style="ellipse;whiteSpace=wrap;html=1;fillColor=#475461;strokeColor=#314354;fontColor=#ffffff;fontStyle=0;fontSize=16;" vertex="1" parent="1">
          <mxGeometry x="880" y="400" width="225" height="90" as="geometry" />
        </mxCell>
        <mxCell id="fFD66gw_FKsIteJp-uT1-11" value="&lt;b&gt;Lancer &lt;/b&gt;un Dé" style="ellipse;whiteSpace=wrap;html=1;fillColor=#009900;strokeColor=#314354;fontColor=#ffffff;fontStyle=0;fontSize=16;" vertex="1" parent="1">
          <mxGeometry x="1320" y="-360" width="225" height="90" as="geometry" />
        </mxCell>
        <mxCell id="7-UkyINJ52MU6-Y0_X81-63" style="edgeStyle=orthogonalEdgeStyle;rounded=0;orthogonalLoop=1;jettySize=auto;html=1;entryX=0;entryY=0.5;entryDx=0;entryDy=0;curved=1;" edge="1" parent="1" source="7-UkyINJ52MU6-Y0_X81-6" target="7-UkyINJ52MU6-Y0_X81-58">
          <mxGeometry relative="1" as="geometry">
            <Array as="points">
              <mxPoint x="760" y="485" />
              <mxPoint x="760" y="-235" />
            </Array>
          </mxGeometry>
        </mxCell>
        <mxCell id="7-UkyINJ52MU6-Y0_X81-64" value="include" style="edgeLabel;html=1;align=center;verticalAlign=middle;resizable=0;points=[];" connectable="0" vertex="1" parent="7-UkyINJ52MU6-Y0_X81-63">
          <mxGeometry x="-0.0368" y="-3" relative="1" as="geometry">
            <mxPoint as="offset" />
          </mxGeometry>
        </mxCell>
        <mxCell id="7-UkyINJ52MU6-Y0_X81-81" style="edgeStyle=orthogonalEdgeStyle;rounded=0;orthogonalLoop=1;jettySize=auto;html=1;entryX=0;entryY=0.5;entryDx=0;entryDy=0;exitX=1;exitY=0.5;exitDx=0;exitDy=0;curved=1;" edge="1" parent="1" source="fFD66gw_FKsIteJp-uT1-15" target="fFD66gw_FKsIteJp-uT1-29">
          <mxGeometry relative="1" as="geometry" />
        </mxCell>
        <mxCell id="7-UkyINJ52MU6-Y0_X81-82" value="include" style="edgeLabel;html=1;align=center;verticalAlign=middle;resizable=0;points=[];" connectable="0" vertex="1" parent="7-UkyINJ52MU6-Y0_X81-81">
          <mxGeometry x="0.0964" relative="1" as="geometry">
            <mxPoint x="1" as="offset" />
          </mxGeometry>
        </mxCell>
        <mxCell id="fFD66gw_FKsIteJp-uT1-15" value="&lt;b&gt;Changer &lt;/b&gt;de case" style="ellipse;whiteSpace=wrap;html=1;fillColor=#009900;strokeColor=#314354;fontColor=#ffffff;fontStyle=0;fontSize=16;" vertex="1" parent="1">
          <mxGeometry x="1320" y="-240" width="225" height="90" as="geometry" />
        </mxCell>
        <mxCell id="fFD66gw_FKsIteJp-uT1-17" value="&lt;b&gt;Lancer un dé&lt;/b&gt;" style="ellipse;whiteSpace=wrap;html=1;fillColor=#009900;strokeColor=#314354;fontColor=#ffffff;fontStyle=0;fontSize=16;" vertex="1" parent="1">
          <mxGeometry x="1760" y="50" width="225" height="90" as="geometry" />
        </mxCell>
        <mxCell id="fFD66gw_FKsIteJp-uT1-18" value="&lt;b&gt;Lancer &lt;/b&gt;un sort" style="ellipse;whiteSpace=wrap;html=1;fillColor=#009900;strokeColor=#314354;fontColor=#ffffff;fontStyle=0;fontSize=16;" vertex="1" parent="1">
          <mxGeometry x="1330" y="-90" width="225" height="90" as="geometry" />
        </mxCell>
        <mxCell id="7-UkyINJ52MU6-Y0_X81-85" style="edgeStyle=orthogonalEdgeStyle;rounded=0;orthogonalLoop=1;jettySize=auto;html=1;entryX=0;entryY=0.5;entryDx=0;entryDy=0;curved=1;" edge="1" parent="1" source="fFD66gw_FKsIteJp-uT1-23" target="fFD66gw_FKsIteJp-uT1-17">
          <mxGeometry relative="1" as="geometry" />
        </mxCell>
        <mxCell id="7-UkyINJ52MU6-Y0_X81-87" value="include" style="edgeLabel;html=1;align=center;verticalAlign=middle;resizable=0;points=[];" connectable="0" vertex="1" parent="7-UkyINJ52MU6-Y0_X81-85">
          <mxGeometry x="-0.3977" y="4" relative="1" as="geometry">
            <mxPoint x="-1" as="offset" />
          </mxGeometry>
        </mxCell>
        <mxCell id="fFD66gw_FKsIteJp-uT1-23" value="&lt;b&gt;Attaquer &lt;/b&gt;en corp a corp" style="ellipse;whiteSpace=wrap;html=1;fillColor=#009900;strokeColor=#314354;fontColor=#ffffff;fontStyle=0;fontSize=16;" vertex="1" parent="1">
          <mxGeometry x="1320" y="50" width="225" height="90" as="geometry" />
        </mxCell>
        <mxCell id="7-UkyINJ52MU6-Y0_X81-67" value="&lt;b&gt;Chercher &lt;/b&gt;des trésors" style="ellipse;whiteSpace=wrap;html=1;fillColor=#687B8C;strokeColor=#314354;fontColor=#ffffff;fontStyle=0;fontSize=16;" vertex="1" parent="1">
          <mxGeometry x="1200" y="320" width="225" height="90" as="geometry" />
        </mxCell>
        <mxCell id="7-UkyINJ52MU6-Y0_X81-68" value="&lt;b&gt;Chercher &lt;/b&gt;des portes secrètes" style="ellipse;whiteSpace=wrap;html=1;fillColor=#687B8C;strokeColor=#314354;fontColor=#ffffff;fontStyle=0;fontSize=16;" vertex="1" parent="1">
          <mxGeometry x="1200" y="440" width="225" height="90" as="geometry" />
        </mxCell>
        <mxCell id="7-UkyINJ52MU6-Y0_X81-69" value="&lt;b&gt;Chercher &lt;/b&gt;des pièges" style="ellipse;whiteSpace=wrap;html=1;fillColor=#687B8C;strokeColor=#314354;fontColor=#ffffff;fontStyle=0;fontSize=16;" vertex="1" parent="1">
          <mxGeometry x="1200" y="560" width="225" height="90" as="geometry" />
        </mxCell>
        <mxCell id="7-UkyINJ52MU6-Y0_X81-70" value="&lt;b&gt;Désarmer &lt;/b&gt;un piège" style="ellipse;whiteSpace=wrap;html=1;fillColor=#687B8C;strokeColor=#314354;fontColor=#ffffff;fontStyle=0;fontSize=16;" vertex="1" parent="1">
          <mxGeometry x="1200" y="680" width="225" height="90" as="geometry" />
        </mxCell>
        <mxCell id="fFD66gw_FKsIteJp-uT1-29" value="&lt;b&gt;Actualiser &lt;/b&gt;le champ de vision" style="ellipse;whiteSpace=wrap;html=1;fillColor=#687B8C;strokeColor=#314354;fontColor=#ffffff;fontStyle=0;fontSize=16;" vertex="1" parent="1">
          <mxGeometry x="1660" y="-300" width="225" height="90" as="geometry" />
        </mxCell>
        <mxCell id="7-UkyINJ52MU6-Y0_X81-86" style="edgeStyle=orthogonalEdgeStyle;rounded=0;orthogonalLoop=1;jettySize=auto;html=1;entryX=0;entryY=0.5;entryDx=0;entryDy=0;curved=1;" edge="1" parent="1" source="7-UkyINJ52MU6-Y0_X81-79" target="fFD66gw_FKsIteJp-uT1-17">
          <mxGeometry relative="1" as="geometry" />
        </mxCell>
        <mxCell id="7-UkyINJ52MU6-Y0_X81-88" value="include" style="edgeLabel;html=1;align=center;verticalAlign=middle;resizable=0;points=[];" connectable="0" vertex="1" parent="7-UkyINJ52MU6-Y0_X81-86">
          <mxGeometry x="-0.1339" y="6" relative="1" as="geometry">
            <mxPoint as="offset" />
          </mxGeometry>
        </mxCell>
        <mxCell id="7-UkyINJ52MU6-Y0_X81-79" value="&lt;b&gt;Attaquer &lt;/b&gt;à distance" style="ellipse;whiteSpace=wrap;html=1;fillColor=#009900;strokeColor=#314354;fontColor=#ffffff;fontStyle=0;fontSize=16;" vertex="1" parent="1">
          <mxGeometry x="1320" y="170" width="225" height="90" as="geometry" />
        </mxCell>
        <mxCell id="fFD66gw_FKsIteJp-uT1-32" value="&lt;h1 style=&quot;margin-top: 0px;&quot;&gt;&lt;font style=&quot;font-size: 32px;&quot;&gt;Description :&lt;/font&gt;&lt;br&gt;&lt;/h1&gt;&lt;p&gt;&lt;br&gt;&lt;/p&gt;&lt;font style=&quot;font-size: 20px;&quot;&gt;&lt;b&gt;Démarrer &lt;/b&gt;la partie:&lt;/font&gt;&lt;div&gt;&lt;span style=&quot;font-size: 20px;&quot;&gt;Choisir le nombre de jouer qui vont jouer au jeux&lt;/span&gt;&lt;/div&gt;&lt;div&gt;&lt;span style=&quot;font-size: 20px;&quot;&gt;Placer le plateaux sur la table&lt;/span&gt;&lt;/div&gt;&lt;div&gt;&lt;span style=&quot;font-size: 20px;&quot;&gt;Préparer le plateaux&amp;nbsp;&lt;/span&gt;&lt;/div&gt;&lt;div&gt;&lt;span style=&quot;font-size: 20px;&quot;&gt;&lt;br&gt;&lt;/span&gt;&lt;/div&gt;&lt;div&gt;&lt;span style=&quot;font-size: 20px;&quot;&gt;&lt;b&gt;Choisir &lt;/b&gt;son héros:&lt;/span&gt;&lt;/div&gt;&lt;div&gt;&lt;span style=&quot;font-size: 20px;&quot;&gt;Permetre les au joueur de choisir le héro qu&#39;ils ont envie (1 par personnes).&lt;/span&gt;&lt;/div&gt;&lt;div&gt;&lt;span style=&quot;font-size: 20px;&quot;&gt;&lt;br&gt;&lt;/span&gt;&lt;/div&gt;&lt;div&gt;&lt;span style=&quot;font-size: 20px;&quot;&gt;&lt;b&gt;Jouer &lt;/b&gt;un tour:&lt;/span&gt;&lt;/div&gt;&lt;div&gt;&lt;span style=&quot;font-size: 20px;&quot;&gt;Lors d&#39;un tour le joueur peux faire 4 actions se déplacer, attaquer, passer son tour, et interagir&lt;/span&gt;&lt;/div&gt;&lt;div&gt;&lt;span style=&quot;font-size: 20px;&quot;&gt;&lt;br&gt;&lt;/span&gt;&lt;/div&gt;&lt;div&gt;&lt;span style=&quot;font-size: 20px;&quot;&gt;&lt;b&gt;Se déplacer&lt;/b&gt;:&lt;/span&gt;&lt;/div&gt;&lt;div&gt;&lt;span style=&quot;font-size: 20px;&quot;&gt;le joueur doit lancer son dé et se déplacer de x case mais si il veut ne pas se déplacer après avoir lancer le dé il a le droit&lt;/span&gt;&lt;/div&gt;&lt;div&gt;&lt;span style=&quot;font-size: 20px;&quot;&gt;&lt;br&gt;&lt;/span&gt;&lt;/div&gt;&lt;div&gt;&lt;span style=&quot;font-size: 20px;&quot;&gt;&lt;b&gt;Attaquer:&lt;/b&gt;&lt;/span&gt;&lt;/div&gt;&lt;div&gt;&lt;span style=&quot;font-size: 20px;&quot;&gt;Une attquer consiste a choisir quel type d&#39;attque le joueur veux faire et lancer le dé adéquois&lt;/span&gt;&lt;/div&gt;&lt;div&gt;&lt;span style=&quot;font-size: 20px;&quot;&gt;&lt;br&gt;&lt;/span&gt;&lt;/div&gt;&lt;div&gt;&lt;span style=&quot;font-size: 20px;&quot;&gt;&lt;b&gt;Passer &lt;/b&gt;son tour:&lt;/span&gt;&lt;/div&gt;&lt;div&gt;&lt;span style=&quot;font-size: 20px;&quot;&gt;Si le joueur ne veux pas intéragir ou attaquer il a le droit de passer son tour par contre si il a&amp;nbsp; déjà utiliser toute ces action il passe obligatoirement son tour&lt;/span&gt;&lt;/div&gt;&lt;div&gt;&lt;span style=&quot;font-size: 20px;&quot;&gt;&lt;br&gt;&lt;/span&gt;&lt;/div&gt;&lt;div&gt;&lt;span style=&quot;font-size: 20px;&quot;&gt;&lt;b&gt;intéragir&lt;/b&gt;:&lt;/span&gt;&lt;/div&gt;&lt;div&gt;&lt;span style=&quot;font-size: 20px;&quot;&gt;Intéragir avec l&#39;environement concerne le fait de pouvoir cherches des trésors qui se trouve potentielement dans une pièce chercher des portes secrètes, cherche si il y a des pièges ou en désarmer&lt;/span&gt;&lt;/div&gt;&lt;div&gt;&lt;span style=&quot;font-size: 20px;&quot;&gt;&lt;br&gt;&lt;/span&gt;&lt;/div&gt;&lt;div&gt;&lt;span style=&quot;font-size: 20px;&quot;&gt;&lt;b&gt;Vérifier &lt;/b&gt;la victoire/défaite:&lt;/span&gt;&lt;/div&gt;&lt;div&gt;&lt;span style=&quot;font-size: 20px;&quot;&gt;le maitre du jeux dois vérifier si les héros ou lui a gagner afin de définir le vainqueur&lt;/span&gt;&lt;/div&gt;&lt;div&gt;&lt;span style=&quot;font-size: 20px;&quot;&gt;&lt;br&gt;&lt;/span&gt;&lt;/div&gt;&lt;div&gt;&lt;span style=&quot;font-size: 20px;&quot;&gt;&lt;b&gt;Abandonner &lt;/b&gt;la partie:&lt;/span&gt;&lt;/div&gt;&lt;div&gt;&lt;span style=&quot;font-size: 20px;&quot;&gt;Lorsqu&#39;un joueur abandonne la partie il ne peux plus jouer au jeux et n&#39;est pas capable de revenir après le personnage est compter comme mort&lt;/span&gt;&lt;/div&gt;&lt;div&gt;&lt;span style=&quot;font-size: 20px;&quot;&gt;&lt;br&gt;&lt;/span&gt;&lt;/div&gt;&lt;div&gt;&lt;span style=&quot;font-size: 20px;&quot;&gt;&lt;b&gt;Définire &lt;/b&gt;vainqueur&lt;/span&gt;&lt;/div&gt;&lt;div&gt;&lt;span style=&quot;font-size: 20px;&quot;&gt;il peut avoir 3 cas soit un vainqueur héros, vainqueur maitre de jeux&amp;nbsp; soit pas de vainqueur&lt;/span&gt;&lt;/div&gt;&lt;div&gt;&lt;span style=&quot;font-size: 20px;&quot;&gt;&lt;br&gt;&lt;/span&gt;&lt;/div&gt;&lt;div&gt;&lt;span style=&quot;font-size: 20px;&quot;&gt;&lt;b&gt;Mêtre &lt;/b&gt;fin au jeux:&lt;/span&gt;&lt;/div&gt;&lt;div&gt;&lt;span style=&quot;font-size: 20px;&quot;&gt;Demander au joueur si ils veulent commencer un nouvelle partie si oui redémarer la partie sinon ranger le plateaux ect&lt;/span&gt;&lt;/div&gt;" style="text;html=1;whiteSpace=wrap;overflow=hidden;rounded=0;" vertex="1" parent="1">
          <mxGeometry x="120" y="1040" width="1010" height="1070" as="geometry" />
        </mxCell>
        <mxCell id="PupNDu4JJd22r2RiS60L-1" value="&lt;b&gt;Mettre &lt;/b&gt;fin au jeux" style="ellipse;whiteSpace=wrap;html=1;fillColor=#009900;strokeColor=#314354;fontColor=#ffffff;fontStyle=0;fontSize=16;" vertex="1" parent="1">
          <mxGeometry x="880" y="800" width="225" height="90" as="geometry" />
        </mxCell>
      </root>
    </mxGraphModel>
  </diagram>
  <diagram id="cGcWMWXJxVzJCuRaPsTw" name="Diagrame des classe">
    <mxGraphModel grid="1" page="1" gridSize="10" guides="1" tooltips="1" connect="1" arrows="1" fold="1" pageScale="1" pageWidth="850" pageHeight="1100" math="0" shadow="0">
      <root>
        <mxCell id="0" />
        <mxCell id="1" parent="0" />
        <mxCell id="M3IgIFN5ZMO0pXuR92_0-1" value="" style="shape=table;startSize=0;container=1;collapsible=0;childLayout=tableLayout;fontFamily=Consolas;fontSize=14;strokeWidth=1;strokeColor=none;" vertex="1" parent="1">
          <mxGeometry x="40" y="40" width="760" height="1153" as="geometry" />
        </mxCell>
        <mxCell id="M3IgIFN5ZMO0pXuR92_0-2" value="" style="shape=tableRow;horizontal=0;startSize=0;swimlaneHead=0;swimlaneBody=0;strokeColor=inherit;top=0;left=0;bottom=0;right=0;collapsible=0;dropTarget=0;fillColor=none;points=[[0,0.5],[1,0.5]];portConstraint=eastwest;fontStyle=0" vertex="1" parent="M3IgIFN5ZMO0pXuR92_0-1">
          <mxGeometry width="760" height="41" as="geometry" />
        </mxCell>
        <mxCell id="M3IgIFN5ZMO0pXuR92_0-3" value="Classes du jeu &quot;HerosQuest&quot;" style="shape=partialRectangle;html=1;whiteSpace=wrap;connectable=0;strokeColor=default;overflow=hidden;fillColor=#0000FF;top=1;left=1;bottom=0;right=1;pointerEvents=1;rowspan=1;colspan=3;fontFamily=Consolas;fontSize=16;align=center;verticalAlign=middle;fontStyle=1;labelBackgroundColor=none;fontColor=#FFFFFF;strokeWidth=1;" vertex="1" parent="M3IgIFN5ZMO0pXuR92_0-2">
          <mxGeometry width="760" height="41" as="geometry">
            <mxRectangle width="200" height="41" as="alternateBounds" />
          </mxGeometry>
        </mxCell>
        <mxCell id="M3IgIFN5ZMO0pXuR92_0-4" value="" style="shape=partialRectangle;html=1;whiteSpace=wrap;connectable=0;strokeColor=inherit;overflow=hidden;fillColor=none;top=0;left=0;bottom=0;right=0;pointerEvents=1;fontFamily=Consolas;" visible="0" vertex="1" parent="M3IgIFN5ZMO0pXuR92_0-2">
          <mxGeometry x="200" width="40" height="41" as="geometry">
            <mxRectangle width="40" height="41" as="alternateBounds" />
          </mxGeometry>
        </mxCell>
        <mxCell id="M3IgIFN5ZMO0pXuR92_0-5" value="" style="shape=partialRectangle;html=1;whiteSpace=wrap;connectable=0;strokeColor=inherit;overflow=hidden;fillColor=none;top=0;left=0;bottom=0;right=0;pointerEvents=1;fontFamily=Consolas;" visible="0" vertex="1" parent="M3IgIFN5ZMO0pXuR92_0-2">
          <mxGeometry x="240" width="520" height="41" as="geometry">
            <mxRectangle width="520" height="41" as="alternateBounds" />
          </mxGeometry>
        </mxCell>
        <mxCell id="M3IgIFN5ZMO0pXuR92_0-6" value="" style="shape=tableRow;horizontal=0;startSize=0;swimlaneHead=0;swimlaneBody=0;strokeColor=inherit;top=0;left=0;bottom=0;right=0;collapsible=0;dropTarget=0;fillColor=none;points=[[0,0.5],[1,0.5]];portConstraint=eastwest;fontStyle=0" vertex="1" parent="M3IgIFN5ZMO0pXuR92_0-1">
          <mxGeometry y="41" width="760" height="21" as="geometry" />
        </mxCell>
        <mxCell id="M3IgIFN5ZMO0pXuR92_0-7" value="&lt;span style=&quot;font-weight: normal; font-size: 12px;&quot;&gt;&lt;font style=&quot;font-size: 12px;&quot;&gt;Letellier Noah / Keyaert Aurelien - 2024 11/07 10:20&lt;br&gt;&lt;/font&gt;&lt;/span&gt;" style="shape=partialRectangle;html=1;whiteSpace=wrap;connectable=0;strokeColor=default;overflow=hidden;fillColor=#0000FF;top=0;left=1;bottom=1;right=1;pointerEvents=1;rowspan=1;colspan=3;fontFamily=Consolas;fontSize=12;align=center;verticalAlign=middle;fontStyle=1;labelBackgroundColor=none;fontColor=#FFFFFF;strokeWidth=1;" vertex="1" parent="M3IgIFN5ZMO0pXuR92_0-6">
          <mxGeometry width="760" height="21" as="geometry">
            <mxRectangle width="200" height="21" as="alternateBounds" />
          </mxGeometry>
        </mxCell>
        <mxCell id="M3IgIFN5ZMO0pXuR92_0-8" value="" style="shape=partialRectangle;html=1;whiteSpace=wrap;connectable=0;strokeColor=inherit;overflow=hidden;fillColor=none;top=0;left=0;bottom=0;right=0;pointerEvents=1;fontFamily=Consolas;" visible="0" vertex="1" parent="M3IgIFN5ZMO0pXuR92_0-6">
          <mxGeometry x="200" width="40" height="21" as="geometry">
            <mxRectangle width="40" height="21" as="alternateBounds" />
          </mxGeometry>
        </mxCell>
        <mxCell id="M3IgIFN5ZMO0pXuR92_0-9" value="" style="shape=partialRectangle;html=1;whiteSpace=wrap;connectable=0;strokeColor=inherit;overflow=hidden;fillColor=none;top=0;left=0;bottom=0;right=0;pointerEvents=1;fontFamily=Consolas;" visible="0" vertex="1" parent="M3IgIFN5ZMO0pXuR92_0-6">
          <mxGeometry x="240" width="520" height="21" as="geometry">
            <mxRectangle width="520" height="21" as="alternateBounds" />
          </mxGeometry>
        </mxCell>
        <mxCell id="M3IgIFN5ZMO0pXuR92_0-10" value="" style="shape=tableRow;horizontal=0;startSize=0;swimlaneHead=0;swimlaneBody=0;strokeColor=inherit;top=0;left=0;bottom=0;right=0;collapsible=0;dropTarget=0;fillColor=none;points=[[0,0.5],[1,0.5]];portConstraint=eastwest;" vertex="1" parent="M3IgIFN5ZMO0pXuR92_0-1">
          <mxGeometry y="62" width="760" height="41" as="geometry" />
        </mxCell>
        <mxCell id="M3IgIFN5ZMO0pXuR92_0-11" value="NOM" style="shape=partialRectangle;html=1;whiteSpace=wrap;connectable=0;strokeColor=#000000;overflow=hidden;fillColor=#9999FF;top=1;left=1;bottom=1;right=1;pointerEvents=1;fontFamily=Consolas;fontSize=14;align=center;verticalAlign=middle;strokeWidth=0.5;fontStyle=1" vertex="1" parent="M3IgIFN5ZMO0pXuR92_0-10">
          <mxGeometry width="200" height="41" as="geometry">
            <mxRectangle width="200" height="41" as="alternateBounds" />
          </mxGeometry>
        </mxCell>
        <mxCell id="M3IgIFN5ZMO0pXuR92_0-12" value="NBR" style="shape=partialRectangle;html=1;whiteSpace=wrap;connectable=0;strokeColor=#000000;overflow=hidden;fillColor=#9999FF;top=1;left=1;bottom=1;right=1;pointerEvents=1;fontFamily=Consolas;fontSize=14;align=center;verticalAlign=middle;strokeWidth=0.5;fontStyle=1" vertex="1" parent="M3IgIFN5ZMO0pXuR92_0-10">
          <mxGeometry x="200" width="40" height="41" as="geometry">
            <mxRectangle width="40" height="41" as="alternateBounds" />
          </mxGeometry>
        </mxCell>
        <mxCell id="M3IgIFN5ZMO0pXuR92_0-13" value="DESCRIPTION" style="shape=partialRectangle;html=1;whiteSpace=wrap;connectable=0;strokeColor=#000000;overflow=hidden;fillColor=#9999FF;top=1;left=1;bottom=1;right=1;pointerEvents=1;fontFamily=Consolas;fontSize=14;align=center;verticalAlign=middle;strokeWidth=0.5;fontStyle=1" vertex="1" parent="M3IgIFN5ZMO0pXuR92_0-10">
          <mxGeometry x="240" width="520" height="41" as="geometry">
            <mxRectangle width="520" height="41" as="alternateBounds" />
          </mxGeometry>
        </mxCell>
        <mxCell id="M3IgIFN5ZMO0pXuR92_0-14" value="" style="shape=tableRow;horizontal=0;startSize=0;swimlaneHead=0;swimlaneBody=0;strokeColor=inherit;top=0;left=0;bottom=0;right=0;collapsible=0;dropTarget=0;fillColor=none;points=[[0,0.5],[1,0.5]];portConstraint=eastwest;" vertex="1" parent="M3IgIFN5ZMO0pXuR92_0-1">
          <mxGeometry y="103" width="760" height="62" as="geometry" />
        </mxCell>
        <mxCell id="M3IgIFN5ZMO0pXuR92_0-15" value="Jeu" style="shape=partialRectangle;html=1;whiteSpace=wrap;connectable=0;strokeColor=#000000;overflow=hidden;fillColor=none;top=1;left=1;bottom=1;right=1;pointerEvents=1;fontFamily=Consolas;fontSize=14;align=left;verticalAlign=top;strokeWidth=0.5;spacing=0;spacingTop=5;spacingLeft=5;spacingBottom=5;fontStyle=1" vertex="1" parent="M3IgIFN5ZMO0pXuR92_0-14">
          <mxGeometry width="200" height="62" as="geometry">
            <mxRectangle width="200" height="62" as="alternateBounds" />
          </mxGeometry>
        </mxCell>
        <mxCell id="M3IgIFN5ZMO0pXuR92_0-16" value="1..1" style="shape=partialRectangle;html=1;whiteSpace=wrap;connectable=0;strokeColor=#000000;overflow=hidden;fillColor=none;top=1;left=1;bottom=1;right=1;pointerEvents=1;fontFamily=Consolas;fontSize=14;align=left;verticalAlign=top;strokeWidth=0.5;spacing=0;spacingTop=5;spacingLeft=5;spacingBottom=5;" vertex="1" parent="M3IgIFN5ZMO0pXuR92_0-14">
          <mxGeometry x="200" width="40" height="62" as="geometry">
            <mxRectangle width="40" height="62" as="alternateBounds" />
          </mxGeometry>
        </mxCell>
        <mxCell id="M3IgIFN5ZMO0pXuR92_0-17" value="Le jeu &quot;Puissance 4&quot; en lui même qui va pouvoir être joué par les joueurs." style="shape=partialRectangle;html=1;whiteSpace=wrap;connectable=0;strokeColor=#000000;overflow=hidden;fillColor=none;top=1;left=1;bottom=1;right=1;pointerEvents=1;fontFamily=Consolas;fontSize=14;align=left;verticalAlign=top;strokeWidth=0.5;spacing=0;spacingTop=5;spacingLeft=5;spacingBottom=5;fontStyle=2" vertex="1" parent="M3IgIFN5ZMO0pXuR92_0-14">
          <mxGeometry x="240" width="520" height="62" as="geometry">
            <mxRectangle width="520" height="62" as="alternateBounds" />
          </mxGeometry>
        </mxCell>
        <mxCell id="M3IgIFN5ZMO0pXuR92_0-18" value="" style="shape=tableRow;horizontal=0;startSize=0;swimlaneHead=0;swimlaneBody=0;strokeColor=inherit;top=0;left=0;bottom=0;right=0;collapsible=0;dropTarget=0;fillColor=none;points=[[0,0.5],[1,0.5]];portConstraint=eastwest;" vertex="1" parent="M3IgIFN5ZMO0pXuR92_0-1">
          <mxGeometry y="165" width="760" height="41" as="geometry" />
        </mxCell>
        <mxCell id="M3IgIFN5ZMO0pXuR92_0-19" value="Joueur" style="shape=partialRectangle;html=1;whiteSpace=wrap;connectable=0;strokeColor=#000000;overflow=hidden;fillColor=none;top=1;left=1;bottom=1;right=1;pointerEvents=1;fontFamily=Consolas;fontSize=14;align=left;verticalAlign=top;strokeWidth=0.5;spacing=0;spacingTop=5;spacingLeft=5;spacingBottom=5;fontStyle=1" vertex="1" parent="M3IgIFN5ZMO0pXuR92_0-18">
          <mxGeometry width="200" height="41" as="geometry">
            <mxRectangle width="200" height="41" as="alternateBounds" />
          </mxGeometry>
        </mxCell>
        <mxCell id="M3IgIFN5ZMO0pXuR92_0-20" value="2..5" style="shape=partialRectangle;html=1;whiteSpace=wrap;connectable=0;strokeColor=#000000;overflow=hidden;fillColor=none;top=1;left=1;bottom=1;right=1;pointerEvents=1;fontFamily=Consolas;fontSize=14;align=left;verticalAlign=top;strokeWidth=0.5;spacing=0;spacingTop=5;spacingLeft=5;spacingBottom=5;" vertex="1" parent="M3IgIFN5ZMO0pXuR92_0-18">
          <mxGeometry x="200" width="40" height="41" as="geometry">
            <mxRectangle width="40" height="41" as="alternateBounds" />
          </mxGeometry>
        </mxCell>
        <mxCell id="M3IgIFN5ZMO0pXuR92_0-21" value="Les joueurs/adversaires&amp;nbsp;qui disputent une partie." style="shape=partialRectangle;html=1;whiteSpace=wrap;connectable=0;strokeColor=#000000;overflow=hidden;fillColor=none;top=1;left=1;bottom=1;right=1;pointerEvents=1;fontFamily=Consolas;fontSize=14;align=left;verticalAlign=top;strokeWidth=0.5;spacing=0;spacingTop=5;spacingLeft=5;spacingBottom=5;fontStyle=2" vertex="1" parent="M3IgIFN5ZMO0pXuR92_0-18">
          <mxGeometry x="240" width="520" height="41" as="geometry">
            <mxRectangle width="520" height="41" as="alternateBounds" />
          </mxGeometry>
        </mxCell>
        <mxCell id="M3IgIFN5ZMO0pXuR92_0-22" value="" style="shape=tableRow;horizontal=0;startSize=0;swimlaneHead=0;swimlaneBody=0;strokeColor=inherit;top=0;left=0;bottom=0;right=0;collapsible=0;dropTarget=0;fillColor=none;points=[[0,0.5],[1,0.5]];portConstraint=eastwest;" vertex="1" parent="M3IgIFN5ZMO0pXuR92_0-1">
          <mxGeometry y="206" width="760" height="41" as="geometry" />
        </mxCell>
        <mxCell id="M3IgIFN5ZMO0pXuR92_0-23" value="Maitre_De_jeux" style="shape=partialRectangle;html=1;whiteSpace=wrap;connectable=0;strokeColor=#000000;overflow=hidden;fillColor=none;top=1;left=1;bottom=1;right=1;pointerEvents=1;fontFamily=Consolas;fontSize=14;align=left;verticalAlign=top;strokeWidth=0.5;spacing=0;spacingTop=5;spacingLeft=5;spacingBottom=5;fontStyle=1" vertex="1" parent="M3IgIFN5ZMO0pXuR92_0-22">
          <mxGeometry width="200" height="41" as="geometry">
            <mxRectangle width="200" height="41" as="alternateBounds" />
          </mxGeometry>
        </mxCell>
        <mxCell id="M3IgIFN5ZMO0pXuR92_0-24" value="1" style="shape=partialRectangle;html=1;whiteSpace=wrap;connectable=0;strokeColor=#000000;overflow=hidden;fillColor=none;top=1;left=1;bottom=1;right=1;pointerEvents=1;fontFamily=Consolas;fontSize=14;align=left;verticalAlign=top;strokeWidth=0.5;spacing=0;spacingTop=5;spacingLeft=5;spacingBottom=5;" vertex="1" parent="M3IgIFN5ZMO0pXuR92_0-22">
          <mxGeometry x="200" width="40" height="41" as="geometry">
            <mxRectangle width="40" height="41" as="alternateBounds" />
          </mxGeometry>
        </mxCell>
        <mxCell id="M3IgIFN5ZMO0pXuR92_0-25" value="Le joueur qui dirige le jeu, les monstres,..." style="shape=partialRectangle;html=1;whiteSpace=wrap;connectable=0;strokeColor=#000000;overflow=hidden;fillColor=none;top=1;left=1;bottom=1;right=1;pointerEvents=1;fontFamily=Consolas;fontSize=14;align=left;verticalAlign=top;strokeWidth=0.5;spacing=0;spacingTop=5;spacingLeft=5;spacingBottom=5;fontStyle=2" vertex="1" parent="M3IgIFN5ZMO0pXuR92_0-22">
          <mxGeometry x="240" width="520" height="41" as="geometry">
            <mxRectangle width="520" height="41" as="alternateBounds" />
          </mxGeometry>
        </mxCell>
        <mxCell id="_2VCbLrLtyVhGAAqWfLw-161" style="shape=tableRow;horizontal=0;startSize=0;swimlaneHead=0;swimlaneBody=0;strokeColor=inherit;top=0;left=0;bottom=0;right=0;collapsible=0;dropTarget=0;fillColor=none;points=[[0,0.5],[1,0.5]];portConstraint=eastwest;" vertex="1" parent="M3IgIFN5ZMO0pXuR92_0-1">
          <mxGeometry y="247" width="760" height="43" as="geometry" />
        </mxCell>
        <mxCell id="_2VCbLrLtyVhGAAqWfLw-162" value="Personnage" style="shape=partialRectangle;html=1;whiteSpace=wrap;connectable=0;strokeColor=#000000;overflow=hidden;fillColor=none;top=1;left=1;bottom=1;right=1;pointerEvents=1;fontFamily=Consolas;fontSize=14;align=left;verticalAlign=top;strokeWidth=0.5;spacing=0;spacingTop=5;spacingLeft=5;spacingBottom=5;fontStyle=1" vertex="1" parent="_2VCbLrLtyVhGAAqWfLw-161">
          <mxGeometry width="200" height="43" as="geometry">
            <mxRectangle width="200" height="43" as="alternateBounds" />
          </mxGeometry>
        </mxCell>
        <mxCell id="_2VCbLrLtyVhGAAqWfLw-163" value="4..*" style="shape=partialRectangle;html=1;whiteSpace=wrap;connectable=0;strokeColor=#000000;overflow=hidden;fillColor=none;top=1;left=1;bottom=1;right=1;pointerEvents=1;fontFamily=Consolas;fontSize=14;align=left;verticalAlign=top;strokeWidth=0.5;spacing=0;spacingTop=5;spacingLeft=5;spacingBottom=5;" vertex="1" parent="_2VCbLrLtyVhGAAqWfLw-161">
          <mxGeometry x="200" width="40" height="43" as="geometry">
            <mxRectangle width="40" height="43" as="alternateBounds" />
          </mxGeometry>
        </mxCell>
        <mxCell id="_2VCbLrLtyVhGAAqWfLw-164" value="Personnage disponible dans le jeu" style="shape=partialRectangle;html=1;whiteSpace=wrap;connectable=0;strokeColor=#000000;overflow=hidden;fillColor=none;top=1;left=1;bottom=1;right=1;pointerEvents=1;fontFamily=Consolas;fontSize=14;align=left;verticalAlign=top;strokeWidth=0.5;spacing=0;spacingTop=5;spacingLeft=5;spacingBottom=5;fontStyle=2" vertex="1" parent="_2VCbLrLtyVhGAAqWfLw-161">
          <mxGeometry x="240" width="520" height="43" as="geometry">
            <mxRectangle width="520" height="43" as="alternateBounds" />
          </mxGeometry>
        </mxCell>
        <mxCell id="M3IgIFN5ZMO0pXuR92_0-26" value="" style="shape=tableRow;horizontal=0;startSize=0;swimlaneHead=0;swimlaneBody=0;strokeColor=inherit;top=0;left=0;bottom=0;right=0;collapsible=0;dropTarget=0;fillColor=none;points=[[0,0.5],[1,0.5]];portConstraint=eastwest;" vertex="1" parent="M3IgIFN5ZMO0pXuR92_0-1">
          <mxGeometry y="290" width="760" height="62" as="geometry" />
        </mxCell>
        <mxCell id="M3IgIFN5ZMO0pXuR92_0-27" value="Héro" style="shape=partialRectangle;html=1;whiteSpace=wrap;connectable=0;strokeColor=#000000;overflow=hidden;fillColor=none;top=1;left=1;bottom=1;right=1;pointerEvents=1;fontFamily=Consolas;fontSize=14;align=left;verticalAlign=top;strokeWidth=0.5;spacing=0;spacingTop=5;spacingLeft=5;spacingBottom=5;fontStyle=1" vertex="1" parent="M3IgIFN5ZMO0pXuR92_0-26">
          <mxGeometry width="200" height="62" as="geometry">
            <mxRectangle width="200" height="62" as="alternateBounds" />
          </mxGeometry>
        </mxCell>
        <mxCell id="M3IgIFN5ZMO0pXuR92_0-28" value="1..4" style="shape=partialRectangle;html=1;whiteSpace=wrap;connectable=0;strokeColor=#000000;overflow=hidden;fillColor=none;top=1;left=1;bottom=1;right=1;pointerEvents=1;fontFamily=Consolas;fontSize=14;align=left;verticalAlign=top;strokeWidth=0.5;spacing=0;spacingTop=5;spacingLeft=5;spacingBottom=5;" vertex="1" parent="M3IgIFN5ZMO0pXuR92_0-26">
          <mxGeometry x="200" width="40" height="62" as="geometry">
            <mxRectangle width="40" height="62" as="alternateBounds" />
          </mxGeometry>
        </mxCell>
        <mxCell id="M3IgIFN5ZMO0pXuR92_0-29" value="Les différents héros disponible que les joueurs peuvent incarnés" style="shape=partialRectangle;html=1;whiteSpace=wrap;connectable=0;strokeColor=#000000;overflow=hidden;fillColor=none;top=1;left=1;bottom=1;right=1;pointerEvents=1;fontFamily=Consolas;fontSize=14;align=left;verticalAlign=top;strokeWidth=0.5;spacing=0;spacingTop=5;spacingLeft=5;spacingBottom=5;fontStyle=2" vertex="1" parent="M3IgIFN5ZMO0pXuR92_0-26">
          <mxGeometry x="240" width="520" height="62" as="geometry">
            <mxRectangle width="520" height="62" as="alternateBounds" />
          </mxGeometry>
        </mxCell>
        <mxCell id="M3IgIFN5ZMO0pXuR92_0-30" value="" style="shape=tableRow;horizontal=0;startSize=0;swimlaneHead=0;swimlaneBody=0;strokeColor=inherit;top=0;left=0;bottom=0;right=0;collapsible=0;dropTarget=0;fillColor=none;points=[[0,0.5],[1,0.5]];portConstraint=eastwest;" vertex="1" parent="M3IgIFN5ZMO0pXuR92_0-1">
          <mxGeometry y="352" width="760" height="61" as="geometry" />
        </mxCell>
        <mxCell id="M3IgIFN5ZMO0pXuR92_0-31" value="Plateau" style="shape=partialRectangle;html=1;whiteSpace=wrap;connectable=0;strokeColor=#000000;overflow=hidden;fillColor=none;top=1;left=1;bottom=1;right=1;pointerEvents=1;fontFamily=Consolas;fontSize=14;align=left;verticalAlign=top;strokeWidth=0.5;spacing=0;spacingTop=5;spacingLeft=5;spacingBottom=5;fontStyle=1" vertex="1" parent="M3IgIFN5ZMO0pXuR92_0-30">
          <mxGeometry width="200" height="61" as="geometry">
            <mxRectangle width="200" height="61" as="alternateBounds" />
          </mxGeometry>
        </mxCell>
        <mxCell id="M3IgIFN5ZMO0pXuR92_0-32" value="1" style="shape=partialRectangle;html=1;whiteSpace=wrap;connectable=0;strokeColor=#000000;overflow=hidden;fillColor=none;top=1;left=1;bottom=1;right=1;pointerEvents=1;fontFamily=Consolas;fontSize=14;align=left;verticalAlign=top;strokeWidth=0.5;spacing=0;spacingTop=5;spacingLeft=5;spacingBottom=5;" vertex="1" parent="M3IgIFN5ZMO0pXuR92_0-30">
          <mxGeometry x="200" width="40" height="61" as="geometry">
            <mxRectangle width="40" height="61" as="alternateBounds" />
          </mxGeometry>
        </mxCell>
        <mxCell id="M3IgIFN5ZMO0pXuR92_0-33" value="La zone où le jeu va se passer, ce sera le donjon où les joueurs joueront" style="shape=partialRectangle;html=1;whiteSpace=wrap;connectable=0;strokeColor=#000000;overflow=hidden;fillColor=none;top=1;left=1;bottom=1;right=1;pointerEvents=1;fontFamily=Consolas;fontSize=14;align=left;verticalAlign=top;strokeWidth=0.5;spacing=0;spacingTop=5;spacingLeft=5;spacingBottom=5;fontStyle=2" vertex="1" parent="M3IgIFN5ZMO0pXuR92_0-30">
          <mxGeometry x="240" width="520" height="61" as="geometry">
            <mxRectangle width="520" height="61" as="alternateBounds" />
          </mxGeometry>
        </mxCell>
        <mxCell id="M3IgIFN5ZMO0pXuR92_0-34" value="" style="shape=tableRow;horizontal=0;startSize=0;swimlaneHead=0;swimlaneBody=0;strokeColor=inherit;top=0;left=0;bottom=0;right=0;collapsible=0;dropTarget=0;fillColor=none;points=[[0,0.5],[1,0.5]];portConstraint=eastwest;" vertex="1" parent="M3IgIFN5ZMO0pXuR92_0-1">
          <mxGeometry y="413" width="760" height="62" as="geometry" />
        </mxCell>
        <mxCell id="M3IgIFN5ZMO0pXuR92_0-35" value="Monstres" style="shape=partialRectangle;html=1;whiteSpace=wrap;connectable=0;strokeColor=#000000;overflow=hidden;fillColor=none;top=1;left=1;bottom=1;right=1;pointerEvents=1;fontFamily=Consolas;fontSize=14;align=left;verticalAlign=top;strokeWidth=0.5;spacing=0;spacingTop=5;spacingLeft=5;spacingBottom=5;fontStyle=1" vertex="1" parent="M3IgIFN5ZMO0pXuR92_0-34">
          <mxGeometry width="200" height="62" as="geometry">
            <mxRectangle width="200" height="62" as="alternateBounds" />
          </mxGeometry>
        </mxCell>
        <mxCell id="M3IgIFN5ZMO0pXuR92_0-36" value="0..*" style="shape=partialRectangle;html=1;whiteSpace=wrap;connectable=0;strokeColor=#000000;overflow=hidden;fillColor=none;top=1;left=1;bottom=1;right=1;pointerEvents=1;fontFamily=Consolas;fontSize=14;align=left;verticalAlign=top;strokeWidth=0.5;spacing=0;spacingTop=5;spacingLeft=5;spacingBottom=5;" vertex="1" parent="M3IgIFN5ZMO0pXuR92_0-34">
          <mxGeometry x="200" width="40" height="62" as="geometry">
            <mxRectangle width="40" height="62" as="alternateBounds" />
          </mxGeometry>
        </mxCell>
        <mxCell id="M3IgIFN5ZMO0pXuR92_0-37" value="Les entitées contrôlées par le maître du jeu. Elles combattent les héros dans le but de les tués." style="shape=partialRectangle;html=1;whiteSpace=wrap;connectable=0;strokeColor=#000000;overflow=hidden;fillColor=none;top=1;left=1;bottom=1;right=1;pointerEvents=1;fontFamily=Consolas;fontSize=14;align=left;verticalAlign=top;strokeWidth=0.5;spacing=0;spacingTop=5;spacingLeft=5;spacingBottom=5;fontStyle=2" vertex="1" parent="M3IgIFN5ZMO0pXuR92_0-34">
          <mxGeometry x="240" width="520" height="62" as="geometry">
            <mxRectangle width="520" height="62" as="alternateBounds" />
          </mxGeometry>
        </mxCell>
        <mxCell id="M3IgIFN5ZMO0pXuR92_0-42" value="" style="shape=tableRow;horizontal=0;startSize=0;swimlaneHead=0;swimlaneBody=0;strokeColor=inherit;top=0;left=0;bottom=0;right=0;collapsible=0;dropTarget=0;fillColor=none;points=[[0,0.5],[1,0.5]];portConstraint=eastwest;" vertex="1" parent="M3IgIFN5ZMO0pXuR92_0-1">
          <mxGeometry y="475" width="760" height="61" as="geometry" />
        </mxCell>
        <mxCell id="M3IgIFN5ZMO0pXuR92_0-43" value="Cases" style="shape=partialRectangle;html=1;whiteSpace=wrap;connectable=0;strokeColor=#000000;overflow=hidden;fillColor=none;top=1;left=1;bottom=1;right=1;pointerEvents=1;fontFamily=Consolas;fontSize=14;align=left;verticalAlign=top;strokeWidth=0.5;spacing=0;spacingTop=5;spacingLeft=5;spacingBottom=5;fontStyle=1" vertex="1" parent="M3IgIFN5ZMO0pXuR92_0-42">
          <mxGeometry width="200" height="61" as="geometry">
            <mxRectangle width="200" height="61" as="alternateBounds" />
          </mxGeometry>
        </mxCell>
        <mxCell id="M3IgIFN5ZMO0pXuR92_0-44" value="1..*" style="shape=partialRectangle;html=1;whiteSpace=wrap;connectable=0;strokeColor=#000000;overflow=hidden;fillColor=none;top=1;left=1;bottom=1;right=1;pointerEvents=1;fontFamily=Consolas;fontSize=14;align=left;verticalAlign=top;strokeWidth=0.5;spacing=0;spacingTop=5;spacingLeft=5;spacingBottom=5;" vertex="1" parent="M3IgIFN5ZMO0pXuR92_0-42">
          <mxGeometry x="200" width="40" height="61" as="geometry">
            <mxRectangle width="40" height="61" as="alternateBounds" />
          </mxGeometry>
        </mxCell>
        <mxCell id="M3IgIFN5ZMO0pXuR92_0-45" value="Toutes les zones d&#39;emplacement ou déplacement disponible sur le plateau" style="shape=partialRectangle;html=1;whiteSpace=wrap;connectable=0;strokeColor=#000000;overflow=hidden;fillColor=none;top=1;left=1;bottom=1;right=1;pointerEvents=1;fontFamily=Consolas;fontSize=14;align=left;verticalAlign=top;strokeWidth=0.5;spacing=0;spacingTop=5;spacingLeft=5;spacingBottom=5;fontStyle=2" vertex="1" parent="M3IgIFN5ZMO0pXuR92_0-42">
          <mxGeometry x="240" width="520" height="61" as="geometry">
            <mxRectangle width="520" height="61" as="alternateBounds" />
          </mxGeometry>
        </mxCell>
        <mxCell id="M3IgIFN5ZMO0pXuR92_0-52" value="" style="shape=tableRow;horizontal=0;startSize=0;swimlaneHead=0;swimlaneBody=0;strokeColor=inherit;top=0;left=0;bottom=0;right=0;collapsible=0;dropTarget=0;fillColor=none;points=[[0,0.5],[1,0.5]];portConstraint=eastwest;" vertex="1" parent="M3IgIFN5ZMO0pXuR92_0-1">
          <mxGeometry y="536" width="760" height="62" as="geometry" />
        </mxCell>
        <mxCell id="M3IgIFN5ZMO0pXuR92_0-53" value="Mobilier" style="shape=partialRectangle;html=1;whiteSpace=wrap;connectable=0;strokeColor=#000000;overflow=hidden;fillColor=none;top=1;left=1;bottom=1;right=1;pointerEvents=1;fontFamily=Consolas;fontSize=14;align=left;verticalAlign=top;strokeWidth=0.5;spacing=0;spacingTop=5;spacingLeft=5;spacingBottom=5;fontStyle=1" vertex="1" parent="M3IgIFN5ZMO0pXuR92_0-52">
          <mxGeometry width="200" height="62" as="geometry">
            <mxRectangle width="200" height="62" as="alternateBounds" />
          </mxGeometry>
        </mxCell>
        <mxCell id="M3IgIFN5ZMO0pXuR92_0-54" value="0..*" style="shape=partialRectangle;html=1;whiteSpace=wrap;connectable=0;strokeColor=#000000;overflow=hidden;fillColor=none;top=1;left=1;bottom=1;right=1;pointerEvents=1;fontFamily=Consolas;fontSize=14;align=left;verticalAlign=top;strokeWidth=0.5;spacing=0;spacingTop=5;spacingLeft=5;spacingBottom=5;" vertex="1" parent="M3IgIFN5ZMO0pXuR92_0-52">
          <mxGeometry x="200" width="40" height="62" as="geometry">
            <mxRectangle width="40" height="62" as="alternateBounds" />
          </mxGeometry>
        </mxCell>
        <mxCell id="M3IgIFN5ZMO0pXuR92_0-55" value="Les objets se trouvant dans le jeu placé par le maître du jeu une fois dans le champ de vision. Ex: Table, armoire,.." style="shape=partialRectangle;html=1;whiteSpace=wrap;connectable=0;strokeColor=#000000;overflow=hidden;fillColor=none;top=1;left=1;bottom=1;right=1;pointerEvents=1;fontFamily=Consolas;fontSize=14;align=left;verticalAlign=top;strokeWidth=0.5;spacing=0;spacingTop=5;spacingLeft=5;spacingBottom=5;fontStyle=2" vertex="1" parent="M3IgIFN5ZMO0pXuR92_0-52">
          <mxGeometry x="240" width="520" height="62" as="geometry">
            <mxRectangle width="520" height="62" as="alternateBounds" />
          </mxGeometry>
        </mxCell>
        <mxCell id="M3IgIFN5ZMO0pXuR92_0-56" value="" style="shape=tableRow;horizontal=0;startSize=0;swimlaneHead=0;swimlaneBody=0;strokeColor=inherit;top=0;left=0;bottom=0;right=0;collapsible=0;dropTarget=0;fillColor=none;points=[[0,0.5],[1,0.5]];portConstraint=eastwest;" vertex="1" parent="M3IgIFN5ZMO0pXuR92_0-1">
          <mxGeometry y="598" width="760" height="62" as="geometry" />
        </mxCell>
        <mxCell id="M3IgIFN5ZMO0pXuR92_0-57" value="Portes" style="shape=partialRectangle;html=1;whiteSpace=wrap;connectable=0;strokeColor=#000000;overflow=hidden;fillColor=none;top=1;left=1;bottom=1;right=1;pointerEvents=1;fontFamily=Consolas;fontSize=14;align=left;verticalAlign=top;strokeWidth=0.5;spacing=0;spacingTop=5;spacingLeft=5;spacingBottom=5;fontStyle=1" vertex="1" parent="M3IgIFN5ZMO0pXuR92_0-56">
          <mxGeometry width="200" height="62" as="geometry">
            <mxRectangle width="200" height="62" as="alternateBounds" />
          </mxGeometry>
        </mxCell>
        <mxCell id="M3IgIFN5ZMO0pXuR92_0-58" value="0..*" style="shape=partialRectangle;html=1;whiteSpace=wrap;connectable=0;strokeColor=#000000;overflow=hidden;fillColor=none;top=1;left=1;bottom=1;right=1;pointerEvents=1;fontFamily=Consolas;fontSize=14;align=left;verticalAlign=top;strokeWidth=0.5;spacing=0;spacingTop=5;spacingLeft=5;spacingBottom=5;" vertex="1" parent="M3IgIFN5ZMO0pXuR92_0-56">
          <mxGeometry x="200" width="40" height="62" as="geometry">
            <mxRectangle width="40" height="62" as="alternateBounds" />
          </mxGeometry>
        </mxCell>
        <mxCell id="M3IgIFN5ZMO0pXuR92_0-59" value="Servent a séparés les salles des couloirs." style="shape=partialRectangle;html=1;whiteSpace=wrap;connectable=0;strokeColor=#000000;overflow=hidden;fillColor=none;top=1;left=1;bottom=1;right=1;pointerEvents=1;fontFamily=Consolas;fontSize=14;align=left;verticalAlign=top;strokeWidth=0.5;spacing=0;spacingTop=5;spacingLeft=5;spacingBottom=5;fontStyle=2" vertex="1" parent="M3IgIFN5ZMO0pXuR92_0-56">
          <mxGeometry x="240" width="520" height="62" as="geometry">
            <mxRectangle width="520" height="62" as="alternateBounds" />
          </mxGeometry>
        </mxCell>
        <mxCell id="_2VCbLrLtyVhGAAqWfLw-165" style="shape=tableRow;horizontal=0;startSize=0;swimlaneHead=0;swimlaneBody=0;strokeColor=inherit;top=0;left=0;bottom=0;right=0;collapsible=0;dropTarget=0;fillColor=none;points=[[0,0.5],[1,0.5]];portConstraint=eastwest;" vertex="1" parent="M3IgIFN5ZMO0pXuR92_0-1">
          <mxGeometry y="660" width="760" height="62" as="geometry" />
        </mxCell>
        <mxCell id="_2VCbLrLtyVhGAAqWfLw-166" value="Pièces" style="shape=partialRectangle;html=1;whiteSpace=wrap;connectable=0;strokeColor=#000000;overflow=hidden;fillColor=none;top=1;left=1;bottom=1;right=1;pointerEvents=1;fontFamily=Consolas;fontSize=14;align=left;verticalAlign=top;strokeWidth=0.5;spacing=0;spacingTop=5;spacingLeft=5;spacingBottom=5;fontStyle=1" vertex="1" parent="_2VCbLrLtyVhGAAqWfLw-165">
          <mxGeometry width="200" height="62" as="geometry">
            <mxRectangle width="200" height="62" as="alternateBounds" />
          </mxGeometry>
        </mxCell>
        <mxCell id="_2VCbLrLtyVhGAAqWfLw-167" value="1..*" style="shape=partialRectangle;html=1;whiteSpace=wrap;connectable=0;strokeColor=#000000;overflow=hidden;fillColor=none;top=1;left=1;bottom=1;right=1;pointerEvents=1;fontFamily=Consolas;fontSize=14;align=left;verticalAlign=top;strokeWidth=0.5;spacing=0;spacingTop=5;spacingLeft=5;spacingBottom=5;" vertex="1" parent="_2VCbLrLtyVhGAAqWfLw-165">
          <mxGeometry x="200" width="40" height="62" as="geometry">
            <mxRectangle width="40" height="62" as="alternateBounds" />
          </mxGeometry>
        </mxCell>
        <mxCell id="_2VCbLrLtyVhGAAqWfLw-168" value="Les différentes pièces présente dans le donjon." style="shape=partialRectangle;html=1;whiteSpace=wrap;connectable=0;strokeColor=#000000;overflow=hidden;fillColor=none;top=1;left=1;bottom=1;right=1;pointerEvents=1;fontFamily=Consolas;fontSize=14;align=left;verticalAlign=top;strokeWidth=0.5;spacing=0;spacingTop=5;spacingLeft=5;spacingBottom=5;fontStyle=2" vertex="1" parent="_2VCbLrLtyVhGAAqWfLw-165">
          <mxGeometry x="240" width="520" height="62" as="geometry">
            <mxRectangle width="520" height="62" as="alternateBounds" />
          </mxGeometry>
        </mxCell>
        <mxCell id="M3IgIFN5ZMO0pXuR92_0-60" value="" style="shape=tableRow;horizontal=0;startSize=0;swimlaneHead=0;swimlaneBody=0;strokeColor=inherit;top=0;left=0;bottom=0;right=0;collapsible=0;dropTarget=0;fillColor=none;points=[[0,0.5],[1,0.5]];portConstraint=eastwest;" vertex="1" parent="M3IgIFN5ZMO0pXuR92_0-1">
          <mxGeometry y="722" width="760" height="61" as="geometry" />
        </mxCell>
        <mxCell id="M3IgIFN5ZMO0pXuR92_0-61" value="Sort" style="shape=partialRectangle;html=1;whiteSpace=wrap;connectable=0;strokeColor=#000000;overflow=hidden;fillColor=none;top=1;left=1;bottom=1;right=1;pointerEvents=1;fontFamily=Consolas;fontSize=14;align=left;verticalAlign=top;strokeWidth=0.5;spacing=0;spacingTop=5;spacingLeft=5;spacingBottom=5;fontStyle=1" vertex="1" parent="M3IgIFN5ZMO0pXuR92_0-60">
          <mxGeometry width="200" height="61" as="geometry">
            <mxRectangle width="200" height="61" as="alternateBounds" />
          </mxGeometry>
        </mxCell>
        <mxCell id="M3IgIFN5ZMO0pXuR92_0-62" value="1..*" style="shape=partialRectangle;html=1;whiteSpace=wrap;connectable=0;strokeColor=#000000;overflow=hidden;fillColor=none;top=1;left=1;bottom=1;right=1;pointerEvents=1;fontFamily=Consolas;fontSize=14;align=left;verticalAlign=top;strokeWidth=0.5;spacing=0;spacingTop=5;spacingLeft=5;spacingBottom=5;" vertex="1" parent="M3IgIFN5ZMO0pXuR92_0-60">
          <mxGeometry x="200" width="40" height="61" as="geometry">
            <mxRectangle width="40" height="61" as="alternateBounds" />
          </mxGeometry>
        </mxCell>
        <mxCell id="M3IgIFN5ZMO0pXuR92_0-63" value="Les sorts sont disponible dans les attaques de certain héros.&lt;div&gt;Utilisable qu&#39;une fois&lt;/div&gt;" style="shape=partialRectangle;html=1;whiteSpace=wrap;connectable=0;strokeColor=#000000;overflow=hidden;fillColor=none;top=1;left=1;bottom=1;right=1;pointerEvents=1;fontFamily=Consolas;fontSize=14;align=left;verticalAlign=top;strokeWidth=0.5;spacing=0;spacingTop=5;spacingLeft=5;spacingBottom=5;fontStyle=2" vertex="1" parent="M3IgIFN5ZMO0pXuR92_0-60">
          <mxGeometry x="240" width="520" height="61" as="geometry">
            <mxRectangle width="520" height="61" as="alternateBounds" />
          </mxGeometry>
        </mxCell>
        <mxCell id="M3IgIFN5ZMO0pXuR92_0-68" value="" style="shape=tableRow;horizontal=0;startSize=0;swimlaneHead=0;swimlaneBody=0;strokeColor=inherit;top=0;left=0;bottom=0;right=0;collapsible=0;dropTarget=0;fillColor=none;points=[[0,0.5],[1,0.5]];portConstraint=eastwest;" vertex="1" parent="M3IgIFN5ZMO0pXuR92_0-1">
          <mxGeometry y="783" width="760" height="62" as="geometry" />
        </mxCell>
        <mxCell id="M3IgIFN5ZMO0pXuR92_0-69" value="Escalier" style="shape=partialRectangle;html=1;whiteSpace=wrap;connectable=0;strokeColor=#000000;overflow=hidden;fillColor=none;top=1;left=1;bottom=1;right=1;pointerEvents=1;fontFamily=Consolas;fontSize=14;align=left;verticalAlign=top;strokeWidth=0.5;spacing=0;spacingTop=5;spacingLeft=5;spacingBottom=5;fontStyle=1" vertex="1" parent="M3IgIFN5ZMO0pXuR92_0-68">
          <mxGeometry width="200" height="62" as="geometry">
            <mxRectangle width="200" height="62" as="alternateBounds" />
          </mxGeometry>
        </mxCell>
        <mxCell id="M3IgIFN5ZMO0pXuR92_0-70" value="1" style="shape=partialRectangle;html=1;whiteSpace=wrap;connectable=0;strokeColor=#000000;overflow=hidden;fillColor=none;top=1;left=1;bottom=1;right=1;pointerEvents=1;fontFamily=Consolas;fontSize=14;align=left;verticalAlign=top;strokeWidth=0.5;spacing=0;spacingTop=5;spacingLeft=5;spacingBottom=5;" vertex="1" parent="M3IgIFN5ZMO0pXuR92_0-68">
          <mxGeometry x="200" width="40" height="62" as="geometry">
            <mxRectangle width="40" height="62" as="alternateBounds" />
          </mxGeometry>
        </mxCell>
        <mxCell id="M3IgIFN5ZMO0pXuR92_0-71" value="La case d&#39;escalier de sortie et d&#39;entrée au donjon" style="shape=partialRectangle;html=1;whiteSpace=wrap;connectable=0;strokeColor=#000000;overflow=hidden;fillColor=none;top=1;left=1;bottom=1;right=1;pointerEvents=1;fontFamily=Consolas;fontSize=14;align=left;verticalAlign=top;strokeWidth=0.5;spacing=0;spacingTop=5;spacingLeft=5;spacingBottom=5;fontStyle=2" vertex="1" parent="M3IgIFN5ZMO0pXuR92_0-68">
          <mxGeometry x="240" width="520" height="62" as="geometry">
            <mxRectangle width="520" height="62" as="alternateBounds" />
          </mxGeometry>
        </mxCell>
        <mxCell id="M3IgIFN5ZMO0pXuR92_0-72" value="" style="shape=tableRow;horizontal=0;startSize=0;swimlaneHead=0;swimlaneBody=0;strokeColor=inherit;top=0;left=0;bottom=0;right=0;collapsible=0;dropTarget=0;fillColor=none;points=[[0,0.5],[1,0.5]];portConstraint=eastwest;" vertex="1" parent="M3IgIFN5ZMO0pXuR92_0-1">
          <mxGeometry y="845" width="760" height="62" as="geometry" />
        </mxCell>
        <mxCell id="M3IgIFN5ZMO0pXuR92_0-73" value="Tresors" style="shape=partialRectangle;html=1;whiteSpace=wrap;connectable=0;strokeColor=#000000;overflow=hidden;fillColor=none;top=1;left=1;bottom=1;right=1;pointerEvents=1;fontFamily=Consolas;fontSize=14;align=left;verticalAlign=top;strokeWidth=0.5;spacing=0;spacingTop=5;spacingLeft=5;spacingBottom=5;fontStyle=1" vertex="1" parent="M3IgIFN5ZMO0pXuR92_0-72">
          <mxGeometry width="200" height="62" as="geometry">
            <mxRectangle width="200" height="62" as="alternateBounds" />
          </mxGeometry>
        </mxCell>
        <mxCell id="M3IgIFN5ZMO0pXuR92_0-74" value="*" style="shape=partialRectangle;html=1;whiteSpace=wrap;connectable=0;strokeColor=#000000;overflow=hidden;fillColor=none;top=1;left=1;bottom=1;right=1;pointerEvents=1;fontFamily=Consolas;fontSize=14;align=left;verticalAlign=top;strokeWidth=0.5;spacing=0;spacingTop=5;spacingLeft=5;spacingBottom=5;" vertex="1" parent="M3IgIFN5ZMO0pXuR92_0-72">
          <mxGeometry x="200" width="40" height="62" as="geometry">
            <mxRectangle width="40" height="62" as="alternateBounds" />
          </mxGeometry>
        </mxCell>
        <mxCell id="M3IgIFN5ZMO0pXuR92_0-75" value="Carte aui est piocher après la recherche d&#39;un trésort dans une pièc " style="shape=partialRectangle;html=1;whiteSpace=wrap;connectable=0;strokeColor=#000000;overflow=hidden;fillColor=none;top=1;left=1;bottom=1;right=1;pointerEvents=1;fontFamily=Consolas;fontSize=14;align=left;verticalAlign=top;strokeWidth=0.5;spacing=0;spacingTop=5;spacingLeft=5;spacingBottom=5;fontStyle=2" vertex="1" parent="M3IgIFN5ZMO0pXuR92_0-72">
          <mxGeometry x="240" width="520" height="62" as="geometry">
            <mxRectangle width="520" height="62" as="alternateBounds" />
          </mxGeometry>
        </mxCell>
        <mxCell id="M3IgIFN5ZMO0pXuR92_0-76" value="" style="shape=tableRow;horizontal=0;startSize=0;swimlaneHead=0;swimlaneBody=0;strokeColor=inherit;top=0;left=0;bottom=0;right=0;collapsible=0;dropTarget=0;fillColor=none;points=[[0,0.5],[1,0.5]];portConstraint=eastwest;" vertex="1" parent="M3IgIFN5ZMO0pXuR92_0-1">
          <mxGeometry y="907" width="760" height="62" as="geometry" />
        </mxCell>
        <mxCell id="M3IgIFN5ZMO0pXuR92_0-77" value="Equipement" style="shape=partialRectangle;html=1;whiteSpace=wrap;connectable=0;strokeColor=#000000;overflow=hidden;fillColor=none;top=1;left=1;bottom=1;right=1;pointerEvents=1;fontFamily=Consolas;fontSize=14;align=left;verticalAlign=top;strokeWidth=0.5;spacing=0;spacingTop=5;spacingLeft=5;spacingBottom=5;fontStyle=1" vertex="1" parent="M3IgIFN5ZMO0pXuR92_0-76">
          <mxGeometry width="200" height="62" as="geometry">
            <mxRectangle width="200" height="62" as="alternateBounds" />
          </mxGeometry>
        </mxCell>
        <mxCell id="M3IgIFN5ZMO0pXuR92_0-78" value="1..*" style="shape=partialRectangle;html=1;whiteSpace=wrap;connectable=0;strokeColor=#000000;overflow=hidden;fillColor=none;top=1;left=1;bottom=1;right=1;pointerEvents=1;fontFamily=Consolas;fontSize=14;align=left;verticalAlign=top;strokeWidth=0.5;spacing=0;spacingTop=5;spacingLeft=5;spacingBottom=5;" vertex="1" parent="M3IgIFN5ZMO0pXuR92_0-76">
          <mxGeometry x="200" width="40" height="62" as="geometry">
            <mxRectangle width="40" height="62" as="alternateBounds" />
          </mxGeometry>
        </mxCell>
        <mxCell id="M3IgIFN5ZMO0pXuR92_0-79" value="Cartes qui est acheter avec de l&#39;or a l&#39;armurie entre deux quêtes ou obtenable lors de l&#39;ouverture d&#39;un coffre" style="shape=partialRectangle;html=1;whiteSpace=wrap;connectable=0;strokeColor=#000000;overflow=hidden;fillColor=none;top=1;left=1;bottom=1;right=1;pointerEvents=1;fontFamily=Consolas;fontSize=14;align=left;verticalAlign=top;strokeWidth=0.5;spacing=0;spacingTop=5;spacingLeft=5;spacingBottom=5;fontStyle=2" vertex="1" parent="M3IgIFN5ZMO0pXuR92_0-76">
          <mxGeometry x="240" width="520" height="62" as="geometry">
            <mxRectangle width="520" height="62" as="alternateBounds" />
          </mxGeometry>
        </mxCell>
        <mxCell id="M3IgIFN5ZMO0pXuR92_0-80" value="" style="shape=tableRow;horizontal=0;startSize=0;swimlaneHead=0;swimlaneBody=0;strokeColor=inherit;top=0;left=0;bottom=0;right=0;collapsible=0;dropTarget=0;fillColor=none;points=[[0,0.5],[1,0.5]];portConstraint=eastwest;" vertex="1" parent="M3IgIFN5ZMO0pXuR92_0-1">
          <mxGeometry y="969" width="760" height="61" as="geometry" />
        </mxCell>
        <mxCell id="M3IgIFN5ZMO0pXuR92_0-81" value="Artefact" style="shape=partialRectangle;html=1;whiteSpace=wrap;connectable=0;strokeColor=#000000;overflow=hidden;fillColor=none;top=1;left=1;bottom=1;right=1;pointerEvents=1;fontFamily=Consolas;fontSize=14;align=left;verticalAlign=top;strokeWidth=0.5;spacing=0;spacingTop=5;spacingLeft=5;spacingBottom=5;fontStyle=1" vertex="1" parent="M3IgIFN5ZMO0pXuR92_0-80">
          <mxGeometry width="200" height="61" as="geometry">
            <mxRectangle width="200" height="61" as="alternateBounds" />
          </mxGeometry>
        </mxCell>
        <mxCell id="M3IgIFN5ZMO0pXuR92_0-82" value="1..*" style="shape=partialRectangle;html=1;whiteSpace=wrap;connectable=0;strokeColor=#000000;overflow=hidden;fillColor=none;top=1;left=1;bottom=1;right=1;pointerEvents=1;fontFamily=Consolas;fontSize=14;align=left;verticalAlign=top;strokeWidth=0.5;spacing=0;spacingTop=5;spacingLeft=5;spacingBottom=5;" vertex="1" parent="M3IgIFN5ZMO0pXuR92_0-80">
          <mxGeometry x="200" width="40" height="61" as="geometry">
            <mxRectangle width="40" height="61" as="alternateBounds" />
          </mxGeometry>
        </mxCell>
        <mxCell id="M3IgIFN5ZMO0pXuR92_0-83" value="Objet qui est obtenable dans un coffre ou en cherchant un trésor" style="shape=partialRectangle;html=1;whiteSpace=wrap;connectable=0;strokeColor=#000000;overflow=hidden;fillColor=none;top=1;left=1;bottom=1;right=1;pointerEvents=1;fontFamily=Consolas;fontSize=14;align=left;verticalAlign=top;strokeWidth=0.5;spacing=0;spacingTop=5;spacingLeft=5;spacingBottom=5;fontStyle=2" vertex="1" parent="M3IgIFN5ZMO0pXuR92_0-80">
          <mxGeometry x="240" width="520" height="61" as="geometry">
            <mxRectangle width="520" height="61" as="alternateBounds" />
          </mxGeometry>
        </mxCell>
        <mxCell id="_2VCbLrLtyVhGAAqWfLw-49" style="shape=tableRow;horizontal=0;startSize=0;swimlaneHead=0;swimlaneBody=0;strokeColor=inherit;top=0;left=0;bottom=0;right=0;collapsible=0;dropTarget=0;fillColor=none;points=[[0,0.5],[1,0.5]];portConstraint=eastwest;" vertex="1" parent="M3IgIFN5ZMO0pXuR92_0-1">
          <mxGeometry y="1030" width="760" height="62" as="geometry" />
        </mxCell>
        <mxCell id="_2VCbLrLtyVhGAAqWfLw-50" value="Pièges" style="shape=partialRectangle;html=1;whiteSpace=wrap;connectable=0;strokeColor=#000000;overflow=hidden;fillColor=none;top=1;left=1;bottom=1;right=1;pointerEvents=1;fontFamily=Consolas;fontSize=14;align=left;verticalAlign=top;strokeWidth=0.5;spacing=0;spacingTop=5;spacingLeft=5;spacingBottom=5;fontStyle=1" vertex="1" parent="_2VCbLrLtyVhGAAqWfLw-49">
          <mxGeometry width="200" height="62" as="geometry">
            <mxRectangle width="200" height="62" as="alternateBounds" />
          </mxGeometry>
        </mxCell>
        <mxCell id="_2VCbLrLtyVhGAAqWfLw-51" value="0..*" style="shape=partialRectangle;html=1;whiteSpace=wrap;connectable=0;strokeColor=#000000;overflow=hidden;fillColor=none;top=1;left=1;bottom=1;right=1;pointerEvents=1;fontFamily=Consolas;fontSize=14;align=left;verticalAlign=top;strokeWidth=0.5;spacing=0;spacingTop=5;spacingLeft=5;spacingBottom=5;" vertex="1" parent="_2VCbLrLtyVhGAAqWfLw-49">
          <mxGeometry x="200" width="40" height="62" as="geometry">
            <mxRectangle width="40" height="62" as="alternateBounds" />
          </mxGeometry>
        </mxCell>
        <mxCell id="_2VCbLrLtyVhGAAqWfLw-52" value="Un piège est un obstacle qui génère un êvenement négative" style="shape=partialRectangle;html=1;whiteSpace=wrap;connectable=0;strokeColor=#000000;overflow=hidden;fillColor=none;top=1;left=1;bottom=1;right=1;pointerEvents=1;fontFamily=Consolas;fontSize=14;align=left;verticalAlign=top;strokeWidth=0.5;spacing=0;spacingTop=5;spacingLeft=5;spacingBottom=5;fontStyle=2" vertex="1" parent="_2VCbLrLtyVhGAAqWfLw-49">
          <mxGeometry x="240" width="520" height="62" as="geometry">
            <mxRectangle width="520" height="62" as="alternateBounds" />
          </mxGeometry>
        </mxCell>
        <mxCell id="M3IgIFN5ZMO0pXuR92_0-96" style="shape=tableRow;horizontal=0;startSize=0;swimlaneHead=0;swimlaneBody=0;strokeColor=inherit;top=0;left=0;bottom=0;right=0;collapsible=0;dropTarget=0;fillColor=none;points=[[0,0.5],[1,0.5]];portConstraint=eastwest;" vertex="1" parent="M3IgIFN5ZMO0pXuR92_0-1">
          <mxGeometry y="1092" width="760" height="61" as="geometry" />
        </mxCell>
        <mxCell id="M3IgIFN5ZMO0pXuR92_0-97" value="PorteSecretes" style="shape=partialRectangle;html=1;whiteSpace=wrap;connectable=0;strokeColor=#000000;overflow=hidden;fillColor=none;top=1;left=1;bottom=1;right=1;pointerEvents=1;fontFamily=Consolas;fontSize=14;align=left;verticalAlign=top;strokeWidth=0.5;spacing=0;spacingTop=5;spacingLeft=5;spacingBottom=5;fontStyle=1" vertex="1" parent="M3IgIFN5ZMO0pXuR92_0-96">
          <mxGeometry width="200" height="61" as="geometry">
            <mxRectangle width="200" height="61" as="alternateBounds" />
          </mxGeometry>
        </mxCell>
        <mxCell id="M3IgIFN5ZMO0pXuR92_0-98" value="0..*" style="shape=partialRectangle;html=1;whiteSpace=wrap;connectable=0;strokeColor=#000000;overflow=hidden;fillColor=none;top=1;left=1;bottom=1;right=1;pointerEvents=1;fontFamily=Consolas;fontSize=14;align=left;verticalAlign=top;strokeWidth=0.5;spacing=0;spacingTop=5;spacingLeft=5;spacingBottom=5;" vertex="1" parent="M3IgIFN5ZMO0pXuR92_0-96">
          <mxGeometry x="200" width="40" height="61" as="geometry">
            <mxRectangle width="40" height="61" as="alternateBounds" />
          </mxGeometry>
        </mxCell>
        <mxCell id="M3IgIFN5ZMO0pXuR92_0-99" value="Porte qui n&#39;est pas afficher a l&#39;utilissateur il faut faire l&#39;action de révéler les portes secrètes" style="shape=partialRectangle;html=1;whiteSpace=wrap;connectable=0;strokeColor=#000000;overflow=hidden;fillColor=none;top=1;left=1;bottom=1;right=1;pointerEvents=1;fontFamily=Consolas;fontSize=14;align=left;verticalAlign=top;strokeWidth=0.5;spacing=0;spacingTop=5;spacingLeft=5;spacingBottom=5;fontStyle=2" vertex="1" parent="M3IgIFN5ZMO0pXuR92_0-96">
          <mxGeometry x="240" width="520" height="61" as="geometry">
            <mxRectangle width="520" height="61" as="alternateBounds" />
          </mxGeometry>
        </mxCell>
        <mxCell id="_2VCbLrLtyVhGAAqWfLw-153" style="edgeStyle=orthogonalEdgeStyle;rounded=0;orthogonalLoop=1;jettySize=auto;html=1;entryX=0;entryY=0.5;entryDx=0;entryDy=0;startArrow=diamondThin;startFill=1;" edge="1" parent="1" source="_2VCbLrLtyVhGAAqWfLw-1" target="_2VCbLrLtyVhGAAqWfLw-147">
          <mxGeometry relative="1" as="geometry" />
        </mxCell>
        <mxCell id="iljVmlmEiWhwnV5GWCFt-8" value="&lt;font style=&quot;font-size: 20px;&quot;&gt;*&lt;/font&gt;" style="edgeLabel;html=1;align=center;verticalAlign=middle;resizable=0;points=[];" connectable="0" vertex="1" parent="_2VCbLrLtyVhGAAqWfLw-153">
          <mxGeometry x="-0.7872" y="1" relative="1" as="geometry">
            <mxPoint as="offset" />
          </mxGeometry>
        </mxCell>
        <mxCell id="iljVmlmEiWhwnV5GWCFt-9" value="&lt;font style=&quot;font-size: 20px;&quot;&gt;1&lt;/font&gt;" style="edgeLabel;html=1;align=center;verticalAlign=middle;resizable=0;points=[];" connectable="0" vertex="1" parent="_2VCbLrLtyVhGAAqWfLw-153">
          <mxGeometry x="0.8417" y="-1" relative="1" as="geometry">
            <mxPoint as="offset" />
          </mxGeometry>
        </mxCell>
        <mxCell id="_2VCbLrLtyVhGAAqWfLw-155" style="edgeStyle=orthogonalEdgeStyle;rounded=0;orthogonalLoop=1;jettySize=auto;html=1;entryX=0;entryY=0.5;entryDx=0;entryDy=0;exitX=1;exitY=0.75;exitDx=0;exitDy=0;startArrow=diamondThin;startFill=1;" edge="1" parent="1" source="_2VCbLrLtyVhGAAqWfLw-1" target="_2VCbLrLtyVhGAAqWfLw-5">
          <mxGeometry relative="1" as="geometry" />
        </mxCell>
        <mxCell id="iljVmlmEiWhwnV5GWCFt-6" value="&lt;font style=&quot;font-size: 20px;&quot;&gt;1..4&lt;/font&gt;" style="edgeLabel;html=1;align=center;verticalAlign=middle;resizable=0;points=[];" connectable="0" vertex="1" parent="_2VCbLrLtyVhGAAqWfLw-155">
          <mxGeometry x="-0.773" y="1" relative="1" as="geometry">
            <mxPoint x="85" y="71" as="offset" />
          </mxGeometry>
        </mxCell>
        <mxCell id="iljVmlmEiWhwnV5GWCFt-7" value="&lt;font style=&quot;font-size: 21px;&quot;&gt;1&lt;/font&gt;" style="edgeLabel;html=1;align=center;verticalAlign=middle;resizable=0;points=[];" connectable="0" vertex="1" parent="_2VCbLrLtyVhGAAqWfLw-155">
          <mxGeometry x="0.7485" relative="1" as="geometry">
            <mxPoint x="-103" y="-70" as="offset" />
          </mxGeometry>
        </mxCell>
        <mxCell id="_2VCbLrLtyVhGAAqWfLw-1" value="&lt;span style=&quot;font-size: 14px;&quot;&gt;Jeu&lt;/span&gt;" style="swimlane;fontStyle=1;align=left;verticalAlign=top;childLayout=stackLayout;horizontal=1;startSize=30;horizontalStack=0;resizeParent=1;resizeParentMax=0;resizeLast=0;collapsible=1;marginBottom=0;whiteSpace=wrap;html=1;spacingLeft=20;fillColor=#ffe6cc;strokeColor=#d79b00;" collapsed="1" vertex="1" parent="1">
          <mxGeometry x="1380" y="120" width="240" height="80" as="geometry">
            <mxRectangle x="1460" y="120" width="240" height="94" as="alternateBounds" />
          </mxGeometry>
        </mxCell>
        <mxCell id="_2VCbLrLtyVhGAAqWfLw-2" value="+ attribut" style="text;strokeColor=default;fillColor=default;align=left;verticalAlign=top;spacingLeft=4;spacingRight=4;overflow=hidden;rotatable=0;points=[[0,0.5],[1,0.5]];portConstraint=eastwest;whiteSpace=wrap;html=1;" vertex="1" parent="_2VCbLrLtyVhGAAqWfLw-1">
          <mxGeometry y="30" width="240" height="30" as="geometry" />
        </mxCell>
        <mxCell id="_2VCbLrLtyVhGAAqWfLw-3" value="" style="line;strokeWidth=2;align=left;verticalAlign=middle;spacingTop=-1;spacingLeft=3;spacingRight=3;rotatable=0;labelPosition=right;points=[];portConstraint=eastwest;fillColor=default;strokeColor=default;" vertex="1" parent="_2VCbLrLtyVhGAAqWfLw-1">
          <mxGeometry y="60" width="240" height="8" as="geometry" />
        </mxCell>
        <mxCell id="_2VCbLrLtyVhGAAqWfLw-4" value="+ method(type): type" style="text;strokeColor=default;fillColor=default;align=left;verticalAlign=top;spacingLeft=4;spacingRight=4;overflow=hidden;rotatable=0;points=[[0,0.5],[1,0.5]];portConstraint=eastwest;whiteSpace=wrap;html=1;" vertex="1" parent="_2VCbLrLtyVhGAAqWfLw-1">
          <mxGeometry y="68" width="240" height="26" as="geometry" />
        </mxCell>
        <mxCell id="_2VCbLrLtyVhGAAqWfLw-154" style="edgeStyle=orthogonalEdgeStyle;rounded=0;orthogonalLoop=1;jettySize=auto;html=1;entryX=0.5;entryY=1;entryDx=0;entryDy=0;startArrow=diamondThin;startFill=0;" edge="1" parent="1" source="_2VCbLrLtyVhGAAqWfLw-5" target="_2VCbLrLtyVhGAAqWfLw-9">
          <mxGeometry relative="1" as="geometry" />
        </mxCell>
        <mxCell id="iljVmlmEiWhwnV5GWCFt-3" value="&lt;font style=&quot;font-size: 20px;&quot;&gt;Contrôle&lt;/font&gt;" style="edgeLabel;html=1;align=center;verticalAlign=middle;resizable=0;points=[];" connectable="0" vertex="1" parent="_2VCbLrLtyVhGAAqWfLw-154">
          <mxGeometry x="-0.0017" y="-1" relative="1" as="geometry">
            <mxPoint x="46" y="-5" as="offset" />
          </mxGeometry>
        </mxCell>
        <mxCell id="iljVmlmEiWhwnV5GWCFt-4" value="&lt;font style=&quot;font-size: 20px;&quot;&gt;1&lt;/font&gt;" style="edgeLabel;html=1;align=center;verticalAlign=middle;resizable=0;points=[];" connectable="0" vertex="1" parent="_2VCbLrLtyVhGAAqWfLw-154">
          <mxGeometry x="-0.8925" relative="1" as="geometry">
            <mxPoint as="offset" />
          </mxGeometry>
        </mxCell>
        <mxCell id="iljVmlmEiWhwnV5GWCFt-5" value="&lt;font style=&quot;font-size: 20px;&quot;&gt;1&lt;/font&gt;" style="edgeLabel;html=1;align=center;verticalAlign=middle;resizable=0;points=[];" connectable="0" vertex="1" parent="_2VCbLrLtyVhGAAqWfLw-154">
          <mxGeometry x="0.8743" y="2" relative="1" as="geometry">
            <mxPoint as="offset" />
          </mxGeometry>
        </mxCell>
        <mxCell id="_2VCbLrLtyVhGAAqWfLw-5" value="&lt;span style=&quot;font-size: 14px;&quot;&gt;Joueur&lt;/span&gt;" style="swimlane;fontStyle=1;align=left;verticalAlign=top;childLayout=stackLayout;horizontal=1;startSize=30;horizontalStack=0;resizeParent=1;resizeParentMax=0;resizeLast=0;collapsible=1;marginBottom=0;whiteSpace=wrap;html=1;spacingLeft=20;fillColor=#ffe6cc;strokeColor=#d79b00;" collapsed="1" vertex="1" parent="1">
          <mxGeometry x="1770" y="210" width="240" height="80" as="geometry">
            <mxRectangle x="1130" y="180" width="240" height="94" as="alternateBounds" />
          </mxGeometry>
        </mxCell>
        <mxCell id="_2VCbLrLtyVhGAAqWfLw-6" value="+ attribut" style="text;strokeColor=default;fillColor=default;align=left;verticalAlign=top;spacingLeft=4;spacingRight=4;overflow=hidden;rotatable=0;points=[[0,0.5],[1,0.5]];portConstraint=eastwest;whiteSpace=wrap;html=1;" vertex="1" parent="_2VCbLrLtyVhGAAqWfLw-5">
          <mxGeometry y="30" width="240" height="30" as="geometry" />
        </mxCell>
        <mxCell id="_2VCbLrLtyVhGAAqWfLw-7" value="" style="line;strokeWidth=2;align=left;verticalAlign=middle;spacingTop=-1;spacingLeft=3;spacingRight=3;rotatable=0;labelPosition=right;points=[];portConstraint=eastwest;fillColor=default;strokeColor=default;" vertex="1" parent="_2VCbLrLtyVhGAAqWfLw-5">
          <mxGeometry y="60" width="240" height="8" as="geometry" />
        </mxCell>
        <mxCell id="_2VCbLrLtyVhGAAqWfLw-8" value="+ method(type): type" style="text;strokeColor=default;fillColor=default;align=left;verticalAlign=top;spacingLeft=4;spacingRight=4;overflow=hidden;rotatable=0;points=[[0,0.5],[1,0.5]];portConstraint=eastwest;whiteSpace=wrap;html=1;" vertex="1" parent="_2VCbLrLtyVhGAAqWfLw-5">
          <mxGeometry y="68" width="240" height="26" as="geometry" />
        </mxCell>
        <mxCell id="_2VCbLrLtyVhGAAqWfLw-9" value="&lt;span style=&quot;font-size: 14px;&quot;&gt;Héros&lt;/span&gt;" style="swimlane;fontStyle=1;align=left;verticalAlign=top;childLayout=stackLayout;horizontal=1;startSize=30;horizontalStack=0;resizeParent=1;resizeParentMax=0;resizeLast=0;collapsible=1;marginBottom=0;whiteSpace=wrap;html=1;spacingLeft=20;fillColor=#ffe6cc;strokeColor=#d79b00;" collapsed="1" vertex="1" parent="1">
          <mxGeometry x="2140" y="90" width="240" height="80" as="geometry">
            <mxRectangle x="1410" y="250" width="240" height="94" as="alternateBounds" />
          </mxGeometry>
        </mxCell>
        <mxCell id="_2VCbLrLtyVhGAAqWfLw-10" value="+ attribut" style="text;strokeColor=default;fillColor=default;align=left;verticalAlign=top;spacingLeft=4;spacingRight=4;overflow=hidden;rotatable=0;points=[[0,0.5],[1,0.5]];portConstraint=eastwest;whiteSpace=wrap;html=1;" vertex="1" parent="_2VCbLrLtyVhGAAqWfLw-9">
          <mxGeometry y="30" width="240" height="30" as="geometry" />
        </mxCell>
        <mxCell id="_2VCbLrLtyVhGAAqWfLw-11" value="" style="line;strokeWidth=2;align=left;verticalAlign=middle;spacingTop=-1;spacingLeft=3;spacingRight=3;rotatable=0;labelPosition=right;points=[];portConstraint=eastwest;fillColor=default;strokeColor=default;" vertex="1" parent="_2VCbLrLtyVhGAAqWfLw-9">
          <mxGeometry y="60" width="240" height="8" as="geometry" />
        </mxCell>
        <mxCell id="_2VCbLrLtyVhGAAqWfLw-12" value="+ method(type): type" style="text;strokeColor=default;fillColor=default;align=left;verticalAlign=top;spacingLeft=4;spacingRight=4;overflow=hidden;rotatable=0;points=[[0,0.5],[1,0.5]];portConstraint=eastwest;whiteSpace=wrap;html=1;" vertex="1" parent="_2VCbLrLtyVhGAAqWfLw-9">
          <mxGeometry y="68" width="240" height="26" as="geometry" />
        </mxCell>
        <mxCell id="_2VCbLrLtyVhGAAqWfLw-13" value="&lt;span style=&quot;font-size: 14px;&quot;&gt;Mobilier&lt;/span&gt;" style="swimlane;fontStyle=1;align=left;verticalAlign=top;childLayout=stackLayout;horizontal=1;startSize=30;horizontalStack=0;resizeParent=1;resizeParentMax=0;resizeLast=0;collapsible=1;marginBottom=0;whiteSpace=wrap;html=1;spacingLeft=20;fillColor=#ffe6cc;strokeColor=#d79b00;" collapsed="1" vertex="1" parent="1">
          <mxGeometry x="2450" y="925" width="240" height="80" as="geometry">
            <mxRectangle x="1410" y="390" width="240" height="94" as="alternateBounds" />
          </mxGeometry>
        </mxCell>
        <mxCell id="_2VCbLrLtyVhGAAqWfLw-14" value="+ attribut" style="text;strokeColor=default;fillColor=default;align=left;verticalAlign=top;spacingLeft=4;spacingRight=4;overflow=hidden;rotatable=0;points=[[0,0.5],[1,0.5]];portConstraint=eastwest;whiteSpace=wrap;html=1;" vertex="1" parent="_2VCbLrLtyVhGAAqWfLw-13">
          <mxGeometry y="30" width="240" height="30" as="geometry" />
        </mxCell>
        <mxCell id="_2VCbLrLtyVhGAAqWfLw-15" value="" style="line;strokeWidth=2;align=left;verticalAlign=middle;spacingTop=-1;spacingLeft=3;spacingRight=3;rotatable=0;labelPosition=right;points=[];portConstraint=eastwest;fillColor=default;strokeColor=default;" vertex="1" parent="_2VCbLrLtyVhGAAqWfLw-13">
          <mxGeometry y="60" width="240" height="8" as="geometry" />
        </mxCell>
        <mxCell id="_2VCbLrLtyVhGAAqWfLw-16" value="+ method(type): type" style="text;strokeColor=default;fillColor=default;align=left;verticalAlign=top;spacingLeft=4;spacingRight=4;overflow=hidden;rotatable=0;points=[[0,0.5],[1,0.5]];portConstraint=eastwest;whiteSpace=wrap;html=1;" vertex="1" parent="_2VCbLrLtyVhGAAqWfLw-13">
          <mxGeometry y="68" width="240" height="26" as="geometry" />
        </mxCell>
        <mxCell id="_2VCbLrLtyVhGAAqWfLw-17" value="&lt;span style=&quot;font-size: 14px;&quot;&gt;Monstre&lt;/span&gt;" style="swimlane;fontStyle=1;align=left;verticalAlign=top;childLayout=stackLayout;horizontal=1;startSize=30;horizontalStack=0;resizeParent=1;resizeParentMax=0;resizeLast=0;collapsible=1;marginBottom=0;whiteSpace=wrap;html=1;spacingLeft=20;fillColor=#ffe6cc;strokeColor=#d79b00;" collapsed="1" vertex="1" parent="1">
          <mxGeometry x="2160" y="-120" width="240" height="80" as="geometry">
            <mxRectangle x="870" y="230" width="240" height="94" as="alternateBounds" />
          </mxGeometry>
        </mxCell>
        <mxCell id="_2VCbLrLtyVhGAAqWfLw-18" value="+ attribut" style="text;strokeColor=default;fillColor=default;align=left;verticalAlign=top;spacingLeft=4;spacingRight=4;overflow=hidden;rotatable=0;points=[[0,0.5],[1,0.5]];portConstraint=eastwest;whiteSpace=wrap;html=1;" vertex="1" parent="_2VCbLrLtyVhGAAqWfLw-17">
          <mxGeometry y="30" width="240" height="30" as="geometry" />
        </mxCell>
        <mxCell id="_2VCbLrLtyVhGAAqWfLw-19" value="" style="line;strokeWidth=2;align=left;verticalAlign=middle;spacingTop=-1;spacingLeft=3;spacingRight=3;rotatable=0;labelPosition=right;points=[];portConstraint=eastwest;fillColor=default;strokeColor=default;" vertex="1" parent="_2VCbLrLtyVhGAAqWfLw-17">
          <mxGeometry y="60" width="240" height="8" as="geometry" />
        </mxCell>
        <mxCell id="_2VCbLrLtyVhGAAqWfLw-20" value="+ method(type): type" style="text;strokeColor=default;fillColor=default;align=left;verticalAlign=top;spacingLeft=4;spacingRight=4;overflow=hidden;rotatable=0;points=[[0,0.5],[1,0.5]];portConstraint=eastwest;whiteSpace=wrap;html=1;" vertex="1" parent="_2VCbLrLtyVhGAAqWfLw-17">
          <mxGeometry y="68" width="240" height="26" as="geometry" />
        </mxCell>
        <mxCell id="1-RF_gftNcKaeAIoyoWY-13" style="edgeStyle=orthogonalEdgeStyle;rounded=0;orthogonalLoop=1;jettySize=auto;html=1;entryX=0;entryY=0.5;entryDx=0;entryDy=0;startArrow=diamondThin;startFill=1;exitX=0.75;exitY=0;exitDx=0;exitDy=0;" edge="1" parent="1" source="_2VCbLrLtyVhGAAqWfLw-25" target="_2VCbLrLtyVhGAAqWfLw-33">
          <mxGeometry relative="1" as="geometry">
            <Array as="points">
              <mxPoint x="2530" y="445" />
            </Array>
          </mxGeometry>
        </mxCell>
        <mxCell id="OzrpFSXm8dq_aKGiJCsc-10" value="&lt;font style=&quot;font-size: 20px;&quot;&gt;1&lt;/font&gt;" style="edgeLabel;html=1;align=center;verticalAlign=middle;resizable=0;points=[];" connectable="0" vertex="1" parent="1-RF_gftNcKaeAIoyoWY-13">
          <mxGeometry x="-0.8506" relative="1" as="geometry">
            <mxPoint as="offset" />
          </mxGeometry>
        </mxCell>
        <mxCell id="OzrpFSXm8dq_aKGiJCsc-11" value="&lt;font style=&quot;font-size: 20px;&quot;&gt;*&lt;/font&gt;" style="edgeLabel;html=1;align=center;verticalAlign=middle;resizable=0;points=[];" connectable="0" vertex="1" parent="1-RF_gftNcKaeAIoyoWY-13">
          <mxGeometry x="0.8384" relative="1" as="geometry">
            <mxPoint as="offset" />
          </mxGeometry>
        </mxCell>
        <mxCell id="_2VCbLrLtyVhGAAqWfLw-111" style="edgeStyle=orthogonalEdgeStyle;rounded=0;orthogonalLoop=1;jettySize=auto;html=1;entryX=0.75;entryY=1;entryDx=0;entryDy=0;startArrow=block;startFill=1;endArrow=diamondThin;endFill=1;" edge="1" parent="1" source="_2VCbLrLtyVhGAAqWfLw-25" target="_2VCbLrLtyVhGAAqWfLw-1">
          <mxGeometry relative="1" as="geometry" />
        </mxCell>
        <mxCell id="OzrpFSXm8dq_aKGiJCsc-8" value="&lt;font style=&quot;font-size: 20px;&quot;&gt;1&lt;/font&gt;" style="edgeLabel;html=1;align=center;verticalAlign=middle;resizable=0;points=[];" connectable="0" vertex="1" parent="_2VCbLrLtyVhGAAqWfLw-111">
          <mxGeometry x="0.9649" relative="1" as="geometry">
            <mxPoint as="offset" />
          </mxGeometry>
        </mxCell>
        <mxCell id="OzrpFSXm8dq_aKGiJCsc-9" value="&lt;font style=&quot;font-size: 20px;&quot;&gt;1&lt;/font&gt;" style="edgeLabel;html=1;align=center;verticalAlign=middle;resizable=0;points=[];" connectable="0" vertex="1" parent="_2VCbLrLtyVhGAAqWfLw-111">
          <mxGeometry x="-0.9575" y="-1" relative="1" as="geometry">
            <mxPoint as="offset" />
          </mxGeometry>
        </mxCell>
        <mxCell id="_2VCbLrLtyVhGAAqWfLw-118" style="edgeStyle=orthogonalEdgeStyle;rounded=0;orthogonalLoop=1;jettySize=auto;html=1;entryX=0.5;entryY=0;entryDx=0;entryDy=0;exitX=0.25;exitY=1;exitDx=0;exitDy=0;startArrow=diamondThin;startFill=1;" edge="1" parent="1" source="_2VCbLrLtyVhGAAqWfLw-142" target="_2VCbLrLtyVhGAAqWfLw-13">
          <mxGeometry relative="1" as="geometry">
            <Array as="points">
              <mxPoint x="2670" y="835" />
              <mxPoint x="2570" y="835" />
            </Array>
          </mxGeometry>
        </mxCell>
        <mxCell id="OzrpFSXm8dq_aKGiJCsc-14" value="&lt;font style=&quot;font-size: 20px;&quot;&gt;1&lt;/font&gt;" style="edgeLabel;html=1;align=center;verticalAlign=middle;resizable=0;points=[];" connectable="0" vertex="1" parent="_2VCbLrLtyVhGAAqWfLw-118">
          <mxGeometry x="-0.8469" y="2" relative="1" as="geometry">
            <mxPoint as="offset" />
          </mxGeometry>
        </mxCell>
        <mxCell id="OzrpFSXm8dq_aKGiJCsc-15" value="&lt;font style=&quot;font-size: 20px;&quot;&gt;*&lt;/font&gt;" style="edgeLabel;html=1;align=center;verticalAlign=middle;resizable=0;points=[];" connectable="0" vertex="1" parent="_2VCbLrLtyVhGAAqWfLw-118">
          <mxGeometry x="0.8207" y="-2" relative="1" as="geometry">
            <mxPoint as="offset" />
          </mxGeometry>
        </mxCell>
        <mxCell id="_2VCbLrLtyVhGAAqWfLw-124" style="edgeStyle=orthogonalEdgeStyle;rounded=0;orthogonalLoop=1;jettySize=auto;html=1;entryX=0;entryY=0.5;entryDx=0;entryDy=0;exitX=1;exitY=0.5;exitDx=0;exitDy=0;startArrow=diamondThin;startFill=1;" edge="1" parent="1" source="_2VCbLrLtyVhGAAqWfLw-33" target="_2VCbLrLtyVhGAAqWfLw-45">
          <mxGeometry relative="1" as="geometry" />
        </mxCell>
        <mxCell id="OzrpFSXm8dq_aKGiJCsc-20" value="&lt;font style=&quot;font-size: 20px;&quot;&gt;1&lt;/font&gt;" style="edgeLabel;html=1;align=center;verticalAlign=middle;resizable=0;points=[];" connectable="0" vertex="1" parent="_2VCbLrLtyVhGAAqWfLw-124">
          <mxGeometry x="-0.7595" y="-1" relative="1" as="geometry">
            <mxPoint as="offset" />
          </mxGeometry>
        </mxCell>
        <mxCell id="OzrpFSXm8dq_aKGiJCsc-21" value="&lt;font style=&quot;font-size: 20px;&quot;&gt;1&lt;/font&gt;" style="edgeLabel;html=1;align=center;verticalAlign=middle;resizable=0;points=[];" connectable="0" vertex="1" parent="_2VCbLrLtyVhGAAqWfLw-124">
          <mxGeometry x="0.7624" y="-1" relative="1" as="geometry">
            <mxPoint as="offset" />
          </mxGeometry>
        </mxCell>
        <mxCell id="_2VCbLrLtyVhGAAqWfLw-25" value="&lt;span style=&quot;font-size: 14px;&quot;&gt;Plateau&lt;/span&gt;" style="swimlane;fontStyle=1;align=left;verticalAlign=top;childLayout=stackLayout;horizontal=1;startSize=30;horizontalStack=0;resizeParent=1;resizeParentMax=0;resizeLast=0;collapsible=1;marginBottom=0;whiteSpace=wrap;html=1;spacingLeft=20;fillColor=#ffe6cc;strokeColor=#d79b00;" collapsed="1" vertex="1" parent="1">
          <mxGeometry x="2350" y="525" width="240" height="80" as="geometry">
            <mxRectangle x="870" y="490" width="240" height="94" as="alternateBounds" />
          </mxGeometry>
        </mxCell>
        <mxCell id="_2VCbLrLtyVhGAAqWfLw-26" value="+ attribut" style="text;strokeColor=default;fillColor=default;align=left;verticalAlign=top;spacingLeft=4;spacingRight=4;overflow=hidden;rotatable=0;points=[[0,0.5],[1,0.5]];portConstraint=eastwest;whiteSpace=wrap;html=1;" vertex="1" parent="_2VCbLrLtyVhGAAqWfLw-25">
          <mxGeometry y="30" width="240" height="30" as="geometry" />
        </mxCell>
        <mxCell id="_2VCbLrLtyVhGAAqWfLw-27" value="" style="line;strokeWidth=2;align=left;verticalAlign=middle;spacingTop=-1;spacingLeft=3;spacingRight=3;rotatable=0;labelPosition=right;points=[];portConstraint=eastwest;fillColor=default;strokeColor=default;" vertex="1" parent="_2VCbLrLtyVhGAAqWfLw-25">
          <mxGeometry y="60" width="240" height="8" as="geometry" />
        </mxCell>
        <mxCell id="_2VCbLrLtyVhGAAqWfLw-28" value="+ method(type): type" style="text;strokeColor=default;fillColor=default;align=left;verticalAlign=top;spacingLeft=4;spacingRight=4;overflow=hidden;rotatable=0;points=[[0,0.5],[1,0.5]];portConstraint=eastwest;whiteSpace=wrap;html=1;" vertex="1" parent="_2VCbLrLtyVhGAAqWfLw-25">
          <mxGeometry y="68" width="240" height="26" as="geometry" />
        </mxCell>
        <mxCell id="_2VCbLrLtyVhGAAqWfLw-160" style="edgeStyle=orthogonalEdgeStyle;rounded=0;orthogonalLoop=1;jettySize=auto;html=1;entryX=0.75;entryY=0;entryDx=0;entryDy=0;endArrow=none;endFill=0;" edge="1" parent="1" source="_2VCbLrLtyVhGAAqWfLw-33" target="_2VCbLrLtyVhGAAqWfLw-142">
          <mxGeometry relative="1" as="geometry" />
        </mxCell>
        <mxCell id="iljVmlmEiWhwnV5GWCFt-27" value="&lt;font style=&quot;font-size: 20px;&quot;&gt;6..*&lt;/font&gt;" style="edgeLabel;html=1;align=center;verticalAlign=middle;resizable=0;points=[];" connectable="0" vertex="1" parent="_2VCbLrLtyVhGAAqWfLw-160">
          <mxGeometry x="-0.8444" y="2" relative="1" as="geometry">
            <mxPoint as="offset" />
          </mxGeometry>
        </mxCell>
        <mxCell id="iljVmlmEiWhwnV5GWCFt-28" value="&lt;font style=&quot;font-size: 20px;&quot;&gt;1&lt;/font&gt;" style="edgeLabel;html=1;align=center;verticalAlign=middle;resizable=0;points=[];" connectable="0" vertex="1" parent="_2VCbLrLtyVhGAAqWfLw-160">
          <mxGeometry x="0.7621" y="-1" relative="1" as="geometry">
            <mxPoint as="offset" />
          </mxGeometry>
        </mxCell>
        <mxCell id="_2VCbLrLtyVhGAAqWfLw-33" value="&lt;span style=&quot;font-size: 14px;&quot;&gt;Cases&lt;/span&gt;" style="swimlane;fontStyle=1;align=left;verticalAlign=top;childLayout=stackLayout;horizontal=1;startSize=30;horizontalStack=0;resizeParent=1;resizeParentMax=0;resizeLast=0;collapsible=1;marginBottom=0;whiteSpace=wrap;html=1;spacingLeft=20;fillColor=#ffe6cc;strokeColor=#d79b00;" collapsed="1" vertex="1" parent="1">
          <mxGeometry x="2730" y="405" width="240" height="80" as="geometry">
            <mxRectangle x="1130" y="490" width="240" height="94" as="alternateBounds" />
          </mxGeometry>
        </mxCell>
        <mxCell id="_2VCbLrLtyVhGAAqWfLw-34" value="+ attribut" style="text;strokeColor=default;fillColor=default;align=left;verticalAlign=top;spacingLeft=4;spacingRight=4;overflow=hidden;rotatable=0;points=[[0,0.5],[1,0.5]];portConstraint=eastwest;whiteSpace=wrap;html=1;" vertex="1" parent="_2VCbLrLtyVhGAAqWfLw-33">
          <mxGeometry y="30" width="240" height="30" as="geometry" />
        </mxCell>
        <mxCell id="_2VCbLrLtyVhGAAqWfLw-35" value="" style="line;strokeWidth=2;align=left;verticalAlign=middle;spacingTop=-1;spacingLeft=3;spacingRight=3;rotatable=0;labelPosition=right;points=[];portConstraint=eastwest;fillColor=default;strokeColor=default;" vertex="1" parent="_2VCbLrLtyVhGAAqWfLw-33">
          <mxGeometry y="60" width="240" height="8" as="geometry" />
        </mxCell>
        <mxCell id="_2VCbLrLtyVhGAAqWfLw-36" value="+ method(type): type" style="text;strokeColor=default;fillColor=default;align=left;verticalAlign=top;spacingLeft=4;spacingRight=4;overflow=hidden;rotatable=0;points=[[0,0.5],[1,0.5]];portConstraint=eastwest;whiteSpace=wrap;html=1;" vertex="1" parent="_2VCbLrLtyVhGAAqWfLw-33">
          <mxGeometry y="68" width="240" height="26" as="geometry" />
        </mxCell>
        <mxCell id="_2VCbLrLtyVhGAAqWfLw-29" value="&lt;span style=&quot;font-size: 14px;&quot;&gt;Dés&lt;/span&gt;" style="swimlane;fontStyle=1;align=left;verticalAlign=top;childLayout=stackLayout;horizontal=1;startSize=30;horizontalStack=0;resizeParent=1;resizeParentMax=0;resizeLast=0;collapsible=1;marginBottom=0;whiteSpace=wrap;html=1;spacingLeft=20;fillColor=#ffe6cc;strokeColor=#d79b00;" collapsed="1" vertex="1" parent="_2VCbLrLtyVhGAAqWfLw-33">
          <mxGeometry x="160" y="10" width="230" height="70" as="geometry">
            <mxRectangle x="870" y="640" width="240" height="94" as="alternateBounds" />
          </mxGeometry>
        </mxCell>
        <mxCell id="_2VCbLrLtyVhGAAqWfLw-30" value="+ attribut" style="text;strokeColor=default;fillColor=default;align=left;verticalAlign=top;spacingLeft=4;spacingRight=4;overflow=hidden;rotatable=0;points=[[0,0.5],[1,0.5]];portConstraint=eastwest;whiteSpace=wrap;html=1;" vertex="1" parent="_2VCbLrLtyVhGAAqWfLw-29">
          <mxGeometry y="30" width="240" height="30" as="geometry" />
        </mxCell>
        <mxCell id="_2VCbLrLtyVhGAAqWfLw-31" value="" style="line;strokeWidth=2;align=left;verticalAlign=middle;spacingTop=-1;spacingLeft=3;spacingRight=3;rotatable=0;labelPosition=right;points=[];portConstraint=eastwest;fillColor=default;strokeColor=default;" vertex="1" parent="_2VCbLrLtyVhGAAqWfLw-29">
          <mxGeometry y="60" width="240" height="8" as="geometry" />
        </mxCell>
        <mxCell id="_2VCbLrLtyVhGAAqWfLw-32" value="+ method(type): type" style="text;strokeColor=default;fillColor=default;align=left;verticalAlign=top;spacingLeft=4;spacingRight=4;overflow=hidden;rotatable=0;points=[[0,0.5],[1,0.5]];portConstraint=eastwest;whiteSpace=wrap;html=1;" vertex="1" parent="_2VCbLrLtyVhGAAqWfLw-29">
          <mxGeometry y="68" width="240" height="26" as="geometry" />
        </mxCell>
        <mxCell id="1-RF_gftNcKaeAIoyoWY-7" value="&lt;span style=&quot;font-size: 14px;&quot;&gt;Plateau&lt;/span&gt;" style="swimlane;fontStyle=1;align=left;verticalAlign=top;childLayout=stackLayout;horizontal=1;startSize=30;horizontalStack=0;resizeParent=1;resizeParentMax=0;resizeLast=0;collapsible=1;marginBottom=0;whiteSpace=wrap;html=1;spacingLeft=20;fillColor=#ffe6cc;strokeColor=#d79b00;" collapsed="1" vertex="1" parent="_2VCbLrLtyVhGAAqWfLw-33">
          <mxGeometry y="-10" width="230" height="70" as="geometry">
            <mxRectangle x="870" y="490" width="240" height="94" as="alternateBounds" />
          </mxGeometry>
        </mxCell>
        <mxCell id="1-RF_gftNcKaeAIoyoWY-8" value="+ attribut" style="text;strokeColor=default;fillColor=default;align=left;verticalAlign=top;spacingLeft=4;spacingRight=4;overflow=hidden;rotatable=0;points=[[0,0.5],[1,0.5]];portConstraint=eastwest;whiteSpace=wrap;html=1;" vertex="1" parent="1-RF_gftNcKaeAIoyoWY-7">
          <mxGeometry y="30" width="240" height="30" as="geometry" />
        </mxCell>
        <mxCell id="1-RF_gftNcKaeAIoyoWY-9" value="" style="line;strokeWidth=2;align=left;verticalAlign=middle;spacingTop=-1;spacingLeft=3;spacingRight=3;rotatable=0;labelPosition=right;points=[];portConstraint=eastwest;fillColor=default;strokeColor=default;" vertex="1" parent="1-RF_gftNcKaeAIoyoWY-7">
          <mxGeometry y="60" width="240" height="8" as="geometry" />
        </mxCell>
        <mxCell id="1-RF_gftNcKaeAIoyoWY-10" value="+ method(type): type" style="text;strokeColor=default;fillColor=default;align=left;verticalAlign=top;spacingLeft=4;spacingRight=4;overflow=hidden;rotatable=0;points=[[0,0.5],[1,0.5]];portConstraint=eastwest;whiteSpace=wrap;html=1;" vertex="1" parent="1-RF_gftNcKaeAIoyoWY-7">
          <mxGeometry y="68" width="240" height="26" as="geometry" />
        </mxCell>
        <mxCell id="_2VCbLrLtyVhGAAqWfLw-45" value="&lt;span style=&quot;font-size: 14px;&quot;&gt;Pièges&lt;/span&gt;" style="swimlane;fontStyle=1;align=left;verticalAlign=top;childLayout=stackLayout;horizontal=1;startSize=30;horizontalStack=0;resizeParent=1;resizeParentMax=0;resizeLast=0;collapsible=1;marginBottom=0;whiteSpace=wrap;html=1;spacingLeft=20;fillColor=#ffe6cc;strokeColor=#d79b00;" collapsed="1" vertex="1" parent="1">
          <mxGeometry x="3160" y="360" width="240" height="80" as="geometry">
            <mxRectangle x="880" y="880" width="240" height="94" as="alternateBounds" />
          </mxGeometry>
        </mxCell>
        <mxCell id="_2VCbLrLtyVhGAAqWfLw-46" value="+ attribut" style="text;strokeColor=default;fillColor=default;align=left;verticalAlign=top;spacingLeft=4;spacingRight=4;overflow=hidden;rotatable=0;points=[[0,0.5],[1,0.5]];portConstraint=eastwest;whiteSpace=wrap;html=1;" vertex="1" parent="_2VCbLrLtyVhGAAqWfLw-45">
          <mxGeometry y="30" width="240" height="30" as="geometry" />
        </mxCell>
        <mxCell id="_2VCbLrLtyVhGAAqWfLw-47" value="" style="line;strokeWidth=2;align=left;verticalAlign=middle;spacingTop=-1;spacingLeft=3;spacingRight=3;rotatable=0;labelPosition=right;points=[];portConstraint=eastwest;fillColor=default;strokeColor=default;" vertex="1" parent="_2VCbLrLtyVhGAAqWfLw-45">
          <mxGeometry y="60" width="240" height="8" as="geometry" />
        </mxCell>
        <mxCell id="_2VCbLrLtyVhGAAqWfLw-48" value="+ method(type): type" style="text;strokeColor=default;fillColor=default;align=left;verticalAlign=top;spacingLeft=4;spacingRight=4;overflow=hidden;rotatable=0;points=[[0,0.5],[1,0.5]];portConstraint=eastwest;whiteSpace=wrap;html=1;" vertex="1" parent="_2VCbLrLtyVhGAAqWfLw-45">
          <mxGeometry y="68" width="240" height="26" as="geometry" />
        </mxCell>
        <mxCell id="_2VCbLrLtyVhGAAqWfLw-120" style="edgeStyle=orthogonalEdgeStyle;rounded=0;orthogonalLoop=1;jettySize=auto;html=1;entryX=0.75;entryY=1;entryDx=0;entryDy=0;endArrow=diamondThin;endFill=1;startArrow=block;startFill=1;exitX=0.5;exitY=0;exitDx=0;exitDy=0;" edge="1" parent="1" source="_2VCbLrLtyVhGAAqWfLw-57" target="_2VCbLrLtyVhGAAqWfLw-142">
          <mxGeometry relative="1" as="geometry">
            <Array as="points">
              <mxPoint x="2890" y="825" />
              <mxPoint x="2790" y="825" />
            </Array>
          </mxGeometry>
        </mxCell>
        <mxCell id="OzrpFSXm8dq_aKGiJCsc-16" value="&lt;font style=&quot;font-size: 20px;&quot;&gt;1&lt;/font&gt;" style="edgeLabel;html=1;align=center;verticalAlign=middle;resizable=0;points=[];" connectable="0" vertex="1" parent="_2VCbLrLtyVhGAAqWfLw-120">
          <mxGeometry x="0.8469" y="1" relative="1" as="geometry">
            <mxPoint as="offset" />
          </mxGeometry>
        </mxCell>
        <mxCell id="OzrpFSXm8dq_aKGiJCsc-17" value="&lt;font style=&quot;font-size: 20px;&quot;&gt;*&lt;/font&gt;" style="edgeLabel;html=1;align=center;verticalAlign=middle;resizable=0;points=[];" connectable="0" vertex="1" parent="_2VCbLrLtyVhGAAqWfLw-120">
          <mxGeometry x="-0.8279" y="1" relative="1" as="geometry">
            <mxPoint as="offset" />
          </mxGeometry>
        </mxCell>
        <mxCell id="_2VCbLrLtyVhGAAqWfLw-57" value="&lt;span style=&quot;font-size: 14px;&quot;&gt;Escalier&lt;/span&gt;" style="swimlane;fontStyle=1;align=left;verticalAlign=top;childLayout=stackLayout;horizontal=1;startSize=30;horizontalStack=0;resizeParent=1;resizeParentMax=0;resizeLast=0;collapsible=1;marginBottom=0;whiteSpace=wrap;html=1;spacingLeft=20;fillColor=#ffe6cc;strokeColor=#d79b00;" collapsed="1" vertex="1" parent="1">
          <mxGeometry x="2770" y="925" width="240" height="80" as="geometry">
            <mxRectangle x="1140" y="640" width="240" height="94" as="alternateBounds" />
          </mxGeometry>
        </mxCell>
        <mxCell id="_2VCbLrLtyVhGAAqWfLw-58" value="+ attribut" style="text;strokeColor=default;fillColor=default;align=left;verticalAlign=top;spacingLeft=4;spacingRight=4;overflow=hidden;rotatable=0;points=[[0,0.5],[1,0.5]];portConstraint=eastwest;whiteSpace=wrap;html=1;" vertex="1" parent="_2VCbLrLtyVhGAAqWfLw-57">
          <mxGeometry y="30" width="240" height="30" as="geometry" />
        </mxCell>
        <mxCell id="_2VCbLrLtyVhGAAqWfLw-59" value="" style="line;strokeWidth=2;align=left;verticalAlign=middle;spacingTop=-1;spacingLeft=3;spacingRight=3;rotatable=0;labelPosition=right;points=[];portConstraint=eastwest;fillColor=default;strokeColor=default;" vertex="1" parent="_2VCbLrLtyVhGAAqWfLw-57">
          <mxGeometry y="60" width="240" height="8" as="geometry" />
        </mxCell>
        <mxCell id="_2VCbLrLtyVhGAAqWfLw-60" value="+ method(type): type" style="text;strokeColor=default;fillColor=default;align=left;verticalAlign=top;spacingLeft=4;spacingRight=4;overflow=hidden;rotatable=0;points=[[0,0.5],[1,0.5]];portConstraint=eastwest;whiteSpace=wrap;html=1;" vertex="1" parent="_2VCbLrLtyVhGAAqWfLw-57">
          <mxGeometry y="68" width="240" height="26" as="geometry" />
        </mxCell>
        <mxCell id="OzrpFSXm8dq_aKGiJCsc-5" style="edgeStyle=orthogonalEdgeStyle;rounded=0;orthogonalLoop=1;jettySize=auto;html=1;entryX=1;entryY=0.5;entryDx=0;entryDy=0;endArrow=block;endFill=1;startArrow=diamondThin;startFill=1;" edge="1" parent="1" source="_2VCbLrLtyVhGAAqWfLw-61" target="_2VCbLrLtyVhGAAqWfLw-142">
          <mxGeometry relative="1" as="geometry" />
        </mxCell>
        <mxCell id="OzrpFSXm8dq_aKGiJCsc-18" value="&lt;font style=&quot;font-size: 20px;&quot;&gt;1&lt;/font&gt;" style="edgeLabel;html=1;align=center;verticalAlign=middle;resizable=0;points=[];" connectable="0" vertex="1" parent="OzrpFSXm8dq_aKGiJCsc-5">
          <mxGeometry x="0.632" y="1" relative="1" as="geometry">
            <mxPoint as="offset" />
          </mxGeometry>
        </mxCell>
        <mxCell id="OzrpFSXm8dq_aKGiJCsc-19" value="&lt;font style=&quot;font-size: 20px;&quot;&gt;*&lt;/font&gt;" style="edgeLabel;html=1;align=center;verticalAlign=middle;resizable=0;points=[];" connectable="0" vertex="1" parent="OzrpFSXm8dq_aKGiJCsc-5">
          <mxGeometry x="-0.7706" y="-1" relative="1" as="geometry">
            <mxPoint as="offset" />
          </mxGeometry>
        </mxCell>
        <mxCell id="_2VCbLrLtyVhGAAqWfLw-61" value="&lt;span style=&quot;font-size: 14px;&quot;&gt;Trésors&lt;/span&gt;" style="swimlane;fontStyle=1;align=left;verticalAlign=top;childLayout=stackLayout;horizontal=1;startSize=30;horizontalStack=0;resizeParent=1;resizeParentMax=0;resizeLast=0;collapsible=1;marginBottom=0;whiteSpace=wrap;html=1;spacingLeft=20;fillColor=#ffe6cc;strokeColor=#d79b00;" collapsed="1" vertex="1" parent="1">
          <mxGeometry x="3080" y="680" width="240" height="80" as="geometry">
            <mxRectangle x="870" y="360" width="240" height="94" as="alternateBounds" />
          </mxGeometry>
        </mxCell>
        <mxCell id="_2VCbLrLtyVhGAAqWfLw-62" value="+ attribut" style="text;strokeColor=default;fillColor=default;align=left;verticalAlign=top;spacingLeft=4;spacingRight=4;overflow=hidden;rotatable=0;points=[[0,0.5],[1,0.5]];portConstraint=eastwest;whiteSpace=wrap;html=1;" vertex="1" parent="_2VCbLrLtyVhGAAqWfLw-61">
          <mxGeometry y="30" width="240" height="30" as="geometry" />
        </mxCell>
        <mxCell id="_2VCbLrLtyVhGAAqWfLw-63" value="" style="line;strokeWidth=2;align=left;verticalAlign=middle;spacingTop=-1;spacingLeft=3;spacingRight=3;rotatable=0;labelPosition=right;points=[];portConstraint=eastwest;fillColor=default;strokeColor=default;" vertex="1" parent="_2VCbLrLtyVhGAAqWfLw-61">
          <mxGeometry y="60" width="240" height="8" as="geometry" />
        </mxCell>
        <mxCell id="_2VCbLrLtyVhGAAqWfLw-64" value="+ method(type): type" style="text;strokeColor=default;fillColor=default;align=left;verticalAlign=top;spacingLeft=4;spacingRight=4;overflow=hidden;rotatable=0;points=[[0,0.5],[1,0.5]];portConstraint=eastwest;whiteSpace=wrap;html=1;" vertex="1" parent="_2VCbLrLtyVhGAAqWfLw-61">
          <mxGeometry y="68" width="240" height="26" as="geometry" />
        </mxCell>
        <mxCell id="OzrpFSXm8dq_aKGiJCsc-4" style="edgeStyle=orthogonalEdgeStyle;rounded=0;orthogonalLoop=1;jettySize=auto;html=1;entryX=1;entryY=1;entryDx=0;entryDy=0;startArrow=diamondThin;startFill=0;" edge="1" parent="1" source="_2VCbLrLtyVhGAAqWfLw-65" target="_2VCbLrLtyVhGAAqWfLw-9">
          <mxGeometry relative="1" as="geometry" />
        </mxCell>
        <mxCell id="OzrpFSXm8dq_aKGiJCsc-22" value="&lt;font style=&quot;font-size: 20px;&quot;&gt;1&lt;/font&gt;" style="edgeLabel;html=1;align=center;verticalAlign=middle;resizable=0;points=[];" connectable="0" vertex="1" parent="OzrpFSXm8dq_aKGiJCsc-4">
          <mxGeometry x="0.6805" y="1" relative="1" as="geometry">
            <mxPoint as="offset" />
          </mxGeometry>
        </mxCell>
        <mxCell id="OzrpFSXm8dq_aKGiJCsc-23" value="&lt;font style=&quot;font-size: 20px;&quot;&gt;*&lt;/font&gt;" style="edgeLabel;html=1;align=center;verticalAlign=middle;resizable=0;points=[];" connectable="0" vertex="1" parent="OzrpFSXm8dq_aKGiJCsc-4">
          <mxGeometry x="-0.5859" relative="1" as="geometry">
            <mxPoint as="offset" />
          </mxGeometry>
        </mxCell>
        <mxCell id="_2VCbLrLtyVhGAAqWfLw-65" value="&lt;span style=&quot;font-size: 14px;&quot;&gt;Equipement&lt;/span&gt;" style="swimlane;fontStyle=1;align=left;verticalAlign=top;childLayout=stackLayout;horizontal=1;startSize=30;horizontalStack=0;resizeParent=1;resizeParentMax=0;resizeLast=0;collapsible=1;marginBottom=0;whiteSpace=wrap;html=1;spacingLeft=20;fillColor=#ffe6cc;strokeColor=#d79b00;" collapsed="1" vertex="1" parent="1">
          <mxGeometry x="2480" y="160" width="240" height="80" as="geometry">
            <mxRectangle x="870" y="360" width="240" height="94" as="alternateBounds" />
          </mxGeometry>
        </mxCell>
        <mxCell id="_2VCbLrLtyVhGAAqWfLw-66" value="+ attribut" style="text;strokeColor=default;fillColor=default;align=left;verticalAlign=top;spacingLeft=4;spacingRight=4;overflow=hidden;rotatable=0;points=[[0,0.5],[1,0.5]];portConstraint=eastwest;whiteSpace=wrap;html=1;" vertex="1" parent="_2VCbLrLtyVhGAAqWfLw-65">
          <mxGeometry y="30" width="240" height="30" as="geometry" />
        </mxCell>
        <mxCell id="_2VCbLrLtyVhGAAqWfLw-67" value="" style="line;strokeWidth=2;align=left;verticalAlign=middle;spacingTop=-1;spacingLeft=3;spacingRight=3;rotatable=0;labelPosition=right;points=[];portConstraint=eastwest;fillColor=default;strokeColor=default;" vertex="1" parent="_2VCbLrLtyVhGAAqWfLw-65">
          <mxGeometry y="60" width="240" height="8" as="geometry" />
        </mxCell>
        <mxCell id="_2VCbLrLtyVhGAAqWfLw-68" value="+ method(type): type" style="text;strokeColor=default;fillColor=default;align=left;verticalAlign=top;spacingLeft=4;spacingRight=4;overflow=hidden;rotatable=0;points=[[0,0.5],[1,0.5]];portConstraint=eastwest;whiteSpace=wrap;html=1;" vertex="1" parent="_2VCbLrLtyVhGAAqWfLw-65">
          <mxGeometry y="68" width="240" height="26" as="geometry" />
        </mxCell>
        <mxCell id="_2VCbLrLtyVhGAAqWfLw-69" value="&lt;span style=&quot;font-size: 14px;&quot;&gt;Sorts&lt;/span&gt;" style="swimlane;fontStyle=1;align=left;verticalAlign=top;childLayout=stackLayout;horizontal=1;startSize=30;horizontalStack=0;resizeParent=1;resizeParentMax=0;resizeLast=0;collapsible=1;marginBottom=0;whiteSpace=wrap;html=1;spacingLeft=20;fillColor=#ffe6cc;strokeColor=#d79b00;" collapsed="1" vertex="1" parent="1">
          <mxGeometry x="1760" y="-200" width="240" height="80" as="geometry">
            <mxRectangle x="870" y="360" width="240" height="94" as="alternateBounds" />
          </mxGeometry>
        </mxCell>
        <mxCell id="_2VCbLrLtyVhGAAqWfLw-70" value="+ attribut" style="text;strokeColor=default;fillColor=default;align=left;verticalAlign=top;spacingLeft=4;spacingRight=4;overflow=hidden;rotatable=0;points=[[0,0.5],[1,0.5]];portConstraint=eastwest;whiteSpace=wrap;html=1;" vertex="1" parent="_2VCbLrLtyVhGAAqWfLw-69">
          <mxGeometry y="30" width="240" height="30" as="geometry" />
        </mxCell>
        <mxCell id="_2VCbLrLtyVhGAAqWfLw-71" value="" style="line;strokeWidth=2;align=left;verticalAlign=middle;spacingTop=-1;spacingLeft=3;spacingRight=3;rotatable=0;labelPosition=right;points=[];portConstraint=eastwest;fillColor=default;strokeColor=default;" vertex="1" parent="_2VCbLrLtyVhGAAqWfLw-69">
          <mxGeometry y="60" width="240" height="8" as="geometry" />
        </mxCell>
        <mxCell id="_2VCbLrLtyVhGAAqWfLw-72" value="+ method(type): type" style="text;strokeColor=default;fillColor=default;align=left;verticalAlign=top;spacingLeft=4;spacingRight=4;overflow=hidden;rotatable=0;points=[[0,0.5],[1,0.5]];portConstraint=eastwest;whiteSpace=wrap;html=1;" vertex="1" parent="_2VCbLrLtyVhGAAqWfLw-69">
          <mxGeometry y="68" width="240" height="26" as="geometry" />
        </mxCell>
        <mxCell id="OzrpFSXm8dq_aKGiJCsc-3" style="edgeStyle=orthogonalEdgeStyle;rounded=0;orthogonalLoop=1;jettySize=auto;html=1;entryX=1;entryY=0;entryDx=0;entryDy=0;endArrow=none;endFill=0;" edge="1" parent="1" source="_2VCbLrLtyVhGAAqWfLw-73" target="_2VCbLrLtyVhGAAqWfLw-9">
          <mxGeometry relative="1" as="geometry">
            <Array as="points">
              <mxPoint x="2380" y="40" />
            </Array>
          </mxGeometry>
        </mxCell>
        <mxCell id="OzrpFSXm8dq_aKGiJCsc-24" value="&lt;font style=&quot;font-size: 20px;&quot;&gt;1&lt;/font&gt;" style="edgeLabel;html=1;align=center;verticalAlign=middle;resizable=0;points=[];" connectable="0" vertex="1" parent="OzrpFSXm8dq_aKGiJCsc-3">
          <mxGeometry x="0.7688" y="1" relative="1" as="geometry">
            <mxPoint as="offset" />
          </mxGeometry>
        </mxCell>
        <mxCell id="OzrpFSXm8dq_aKGiJCsc-25" value="&lt;font style=&quot;font-size: 20px;&quot;&gt;*&lt;/font&gt;" style="edgeLabel;html=1;align=center;verticalAlign=middle;resizable=0;points=[];" connectable="0" vertex="1" parent="OzrpFSXm8dq_aKGiJCsc-3">
          <mxGeometry x="-0.7936" y="2" relative="1" as="geometry">
            <mxPoint as="offset" />
          </mxGeometry>
        </mxCell>
        <mxCell id="_2VCbLrLtyVhGAAqWfLw-73" value="&lt;span style=&quot;font-size: 14px;&quot;&gt;Artefact&lt;/span&gt;" style="swimlane;fontStyle=1;align=left;verticalAlign=top;childLayout=stackLayout;horizontal=1;startSize=30;horizontalStack=0;resizeParent=1;resizeParentMax=0;resizeLast=0;collapsible=1;marginBottom=0;whiteSpace=wrap;html=1;spacingLeft=20;fillColor=#ffe6cc;strokeColor=#d79b00;" collapsed="1" vertex="1" parent="1">
          <mxGeometry x="2480" y="40" width="240" height="80" as="geometry">
            <mxRectangle x="870" y="360" width="240" height="94" as="alternateBounds" />
          </mxGeometry>
        </mxCell>
        <mxCell id="_2VCbLrLtyVhGAAqWfLw-74" value="+ attribut" style="text;strokeColor=default;fillColor=default;align=left;verticalAlign=top;spacingLeft=4;spacingRight=4;overflow=hidden;rotatable=0;points=[[0,0.5],[1,0.5]];portConstraint=eastwest;whiteSpace=wrap;html=1;" vertex="1" parent="_2VCbLrLtyVhGAAqWfLw-73">
          <mxGeometry y="30" width="240" height="30" as="geometry" />
        </mxCell>
        <mxCell id="_2VCbLrLtyVhGAAqWfLw-75" value="" style="line;strokeWidth=2;align=left;verticalAlign=middle;spacingTop=-1;spacingLeft=3;spacingRight=3;rotatable=0;labelPosition=right;points=[];portConstraint=eastwest;fillColor=default;strokeColor=default;" vertex="1" parent="_2VCbLrLtyVhGAAqWfLw-73">
          <mxGeometry y="60" width="240" height="8" as="geometry" />
        </mxCell>
        <mxCell id="_2VCbLrLtyVhGAAqWfLw-76" value="+ method(type): type" style="text;strokeColor=default;fillColor=default;align=left;verticalAlign=top;spacingLeft=4;spacingRight=4;overflow=hidden;rotatable=0;points=[[0,0.5],[1,0.5]];portConstraint=eastwest;whiteSpace=wrap;html=1;" vertex="1" parent="_2VCbLrLtyVhGAAqWfLw-73">
          <mxGeometry y="68" width="240" height="26" as="geometry" />
        </mxCell>
        <mxCell id="_2VCbLrLtyVhGAAqWfLw-123" style="edgeStyle=orthogonalEdgeStyle;rounded=0;orthogonalLoop=1;jettySize=auto;html=1;entryX=0.75;entryY=0;entryDx=0;entryDy=0;endArrow=diamondThin;endFill=1;startArrow=block;startFill=1;" edge="1" parent="1" source="_2VCbLrLtyVhGAAqWfLw-114" target="_2VCbLrLtyVhGAAqWfLw-1">
          <mxGeometry relative="1" as="geometry" />
        </mxCell>
        <mxCell id="OzrpFSXm8dq_aKGiJCsc-6" value="&lt;font style=&quot;font-size: 20px;&quot;&gt;1&lt;/font&gt;" style="edgeLabel;html=1;align=center;verticalAlign=middle;resizable=0;points=[];" connectable="0" vertex="1" parent="_2VCbLrLtyVhGAAqWfLw-123">
          <mxGeometry x="-0.915" y="-1" relative="1" as="geometry">
            <mxPoint as="offset" />
          </mxGeometry>
        </mxCell>
        <mxCell id="OzrpFSXm8dq_aKGiJCsc-7" value="&lt;font style=&quot;font-size: 20px;&quot;&gt;1&lt;/font&gt;" style="edgeLabel;html=1;align=center;verticalAlign=middle;resizable=0;points=[];" connectable="0" vertex="1" parent="_2VCbLrLtyVhGAAqWfLw-123">
          <mxGeometry x="0.9035" y="-1" relative="1" as="geometry">
            <mxPoint as="offset" />
          </mxGeometry>
        </mxCell>
        <mxCell id="_2VCbLrLtyVhGAAqWfLw-125" style="edgeStyle=orthogonalEdgeStyle;rounded=0;orthogonalLoop=1;jettySize=auto;html=1;entryX=0.5;entryY=0;entryDx=0;entryDy=0;endArrow=block;endFill=1;startArrow=diamondThin;startFill=0;" edge="1" parent="1" source="_2VCbLrLtyVhGAAqWfLw-114" target="_2VCbLrLtyVhGAAqWfLw-17">
          <mxGeometry relative="1" as="geometry" />
        </mxCell>
        <mxCell id="_2VCbLrLtyVhGAAqWfLw-127" value="Contrôle" style="edgeLabel;html=1;align=center;verticalAlign=middle;resizable=0;points=[];fontSize=18;" connectable="0" vertex="1" parent="_2VCbLrLtyVhGAAqWfLw-125">
          <mxGeometry x="-0.18" y="3" relative="1" as="geometry">
            <mxPoint x="11" y="-17" as="offset" />
          </mxGeometry>
        </mxCell>
        <mxCell id="_2VCbLrLtyVhGAAqWfLw-129" value="*" style="edgeLabel;html=1;align=center;verticalAlign=middle;resizable=0;points=[];fontSize=25;" connectable="0" vertex="1" parent="_2VCbLrLtyVhGAAqWfLw-125">
          <mxGeometry x="-0.18" y="3" relative="1" as="geometry">
            <mxPoint x="84" y="173" as="offset" />
          </mxGeometry>
        </mxCell>
        <mxCell id="_2VCbLrLtyVhGAAqWfLw-130" value="1" style="edgeLabel;html=1;align=center;verticalAlign=middle;resizable=0;points=[];fontSize=19;" connectable="0" vertex="1" parent="_2VCbLrLtyVhGAAqWfLw-125">
          <mxGeometry x="-0.18" y="3" relative="1" as="geometry">
            <mxPoint x="-169" y="3" as="offset" />
          </mxGeometry>
        </mxCell>
        <mxCell id="_2VCbLrLtyVhGAAqWfLw-114" value="&lt;span style=&quot;font-size: 14px;&quot;&gt;Maître du Jeu&lt;/span&gt;" style="swimlane;fontStyle=1;align=left;verticalAlign=top;childLayout=stackLayout;horizontal=1;startSize=30;horizontalStack=0;resizeParent=1;resizeParentMax=0;resizeLast=0;collapsible=1;marginBottom=0;whiteSpace=wrap;html=1;spacingLeft=20;fillColor=#ffe6cc;strokeColor=#d79b00;" collapsed="1" vertex="1" parent="1">
          <mxGeometry x="1760" y="-360" width="240" height="80" as="geometry">
            <mxRectangle x="1130" y="180" width="240" height="94" as="alternateBounds" />
          </mxGeometry>
        </mxCell>
        <mxCell id="_2VCbLrLtyVhGAAqWfLw-115" value="+ attribut" style="text;strokeColor=default;fillColor=default;align=left;verticalAlign=top;spacingLeft=4;spacingRight=4;overflow=hidden;rotatable=0;points=[[0,0.5],[1,0.5]];portConstraint=eastwest;whiteSpace=wrap;html=1;" vertex="1" parent="_2VCbLrLtyVhGAAqWfLw-114">
          <mxGeometry y="30" width="240" height="30" as="geometry" />
        </mxCell>
        <mxCell id="_2VCbLrLtyVhGAAqWfLw-116" value="" style="line;strokeWidth=2;align=left;verticalAlign=middle;spacingTop=-1;spacingLeft=3;spacingRight=3;rotatable=0;labelPosition=right;points=[];portConstraint=eastwest;fillColor=default;strokeColor=default;" vertex="1" parent="_2VCbLrLtyVhGAAqWfLw-114">
          <mxGeometry y="60" width="240" height="8" as="geometry" />
        </mxCell>
        <mxCell id="_2VCbLrLtyVhGAAqWfLw-117" value="+ method(type): type" style="text;strokeColor=default;fillColor=default;align=left;verticalAlign=top;spacingLeft=4;spacingRight=4;overflow=hidden;rotatable=0;points=[[0,0.5],[1,0.5]];portConstraint=eastwest;whiteSpace=wrap;html=1;" vertex="1" parent="_2VCbLrLtyVhGAAqWfLw-114">
          <mxGeometry y="68" width="240" height="26" as="geometry" />
        </mxCell>
        <mxCell id="_2VCbLrLtyVhGAAqWfLw-146" style="edgeStyle=orthogonalEdgeStyle;rounded=0;orthogonalLoop=1;jettySize=auto;html=1;entryX=1;entryY=0.5;entryDx=0;entryDy=0;exitX=0.5;exitY=0;exitDx=0;exitDy=0;startArrow=block;startFill=1;endArrow=diamondThin;endFill=1;" edge="1" parent="1" source="_2VCbLrLtyVhGAAqWfLw-142" target="_2VCbLrLtyVhGAAqWfLw-25">
          <mxGeometry relative="1" as="geometry" />
        </mxCell>
        <mxCell id="OzrpFSXm8dq_aKGiJCsc-12" value="&lt;font style=&quot;font-size: 20px;&quot;&gt;1&lt;/font&gt;" style="edgeLabel;html=1;align=center;verticalAlign=middle;resizable=0;points=[];" connectable="0" vertex="1" parent="_2VCbLrLtyVhGAAqWfLw-146">
          <mxGeometry x="0.8487" relative="1" as="geometry">
            <mxPoint as="offset" />
          </mxGeometry>
        </mxCell>
        <mxCell id="OzrpFSXm8dq_aKGiJCsc-13" value="&lt;font style=&quot;font-size: 20px;&quot;&gt;*&lt;/font&gt;" style="edgeLabel;html=1;align=center;verticalAlign=middle;resizable=0;points=[];" connectable="0" vertex="1" parent="_2VCbLrLtyVhGAAqWfLw-146">
          <mxGeometry x="-0.808" y="-1" relative="1" as="geometry">
            <mxPoint as="offset" />
          </mxGeometry>
        </mxCell>
        <mxCell id="_2VCbLrLtyVhGAAqWfLw-142" value="&lt;span style=&quot;font-size: 14px;&quot;&gt;Salle&lt;/span&gt;" style="swimlane;fontStyle=1;align=left;verticalAlign=top;childLayout=stackLayout;horizontal=1;startSize=30;horizontalStack=0;resizeParent=1;resizeParentMax=0;resizeLast=0;collapsible=1;marginBottom=0;whiteSpace=wrap;html=1;spacingLeft=20;fillColor=#ffe6cc;strokeColor=#d79b00;" collapsed="1" vertex="1" parent="1">
          <mxGeometry x="2610" y="680" width="240" height="80" as="geometry">
            <mxRectangle x="880" y="880" width="240" height="94" as="alternateBounds" />
          </mxGeometry>
        </mxCell>
        <mxCell id="_2VCbLrLtyVhGAAqWfLw-143" value="+ attribut" style="text;strokeColor=default;fillColor=default;align=left;verticalAlign=top;spacingLeft=4;spacingRight=4;overflow=hidden;rotatable=0;points=[[0,0.5],[1,0.5]];portConstraint=eastwest;whiteSpace=wrap;html=1;" vertex="1" parent="_2VCbLrLtyVhGAAqWfLw-142">
          <mxGeometry y="30" width="240" height="30" as="geometry" />
        </mxCell>
        <mxCell id="_2VCbLrLtyVhGAAqWfLw-144" value="" style="line;strokeWidth=2;align=left;verticalAlign=middle;spacingTop=-1;spacingLeft=3;spacingRight=3;rotatable=0;labelPosition=right;points=[];portConstraint=eastwest;fillColor=default;strokeColor=default;" vertex="1" parent="_2VCbLrLtyVhGAAqWfLw-142">
          <mxGeometry y="60" width="240" height="8" as="geometry" />
        </mxCell>
        <mxCell id="_2VCbLrLtyVhGAAqWfLw-145" value="+ method(type): type" style="text;strokeColor=default;fillColor=default;align=left;verticalAlign=top;spacingLeft=4;spacingRight=4;overflow=hidden;rotatable=0;points=[[0,0.5],[1,0.5]];portConstraint=eastwest;whiteSpace=wrap;html=1;" vertex="1" parent="_2VCbLrLtyVhGAAqWfLw-142">
          <mxGeometry y="68" width="240" height="26" as="geometry" />
        </mxCell>
        <mxCell id="_2VCbLrLtyVhGAAqWfLw-151" style="edgeStyle=orthogonalEdgeStyle;rounded=0;orthogonalLoop=1;jettySize=auto;html=1;entryX=0;entryY=0.5;entryDx=0;entryDy=0;exitX=1;exitY=0.25;exitDx=0;exitDy=0;startArrow=block;startFill=0;endArrow=none;endFill=0;" edge="1" parent="1" source="_2VCbLrLtyVhGAAqWfLw-147" target="_2VCbLrLtyVhGAAqWfLw-17">
          <mxGeometry relative="1" as="geometry" />
        </mxCell>
        <mxCell id="_2VCbLrLtyVhGAAqWfLw-152" style="edgeStyle=orthogonalEdgeStyle;rounded=0;orthogonalLoop=1;jettySize=auto;html=1;entryX=0;entryY=0.5;entryDx=0;entryDy=0;startArrow=block;startFill=0;endArrow=none;endFill=0;exitX=0.75;exitY=1;exitDx=0;exitDy=0;" edge="1" parent="1" source="_2VCbLrLtyVhGAAqWfLw-147" target="_2VCbLrLtyVhGAAqWfLw-9">
          <mxGeometry relative="1" as="geometry" />
        </mxCell>
        <mxCell id="_2VCbLrLtyVhGAAqWfLw-156" style="edgeStyle=orthogonalEdgeStyle;rounded=0;orthogonalLoop=1;jettySize=auto;html=1;entryX=0.5;entryY=0;entryDx=0;entryDy=0;endArrow=none;endFill=0;exitX=1;exitY=0.75;exitDx=0;exitDy=0;" edge="1" parent="1" source="_2VCbLrLtyVhGAAqWfLw-147" target="_2VCbLrLtyVhGAAqWfLw-33">
          <mxGeometry relative="1" as="geometry">
            <mxPoint x="2790" y="150" as="targetPoint" />
          </mxGeometry>
        </mxCell>
        <mxCell id="_2VCbLrLtyVhGAAqWfLw-157" value="&lt;font style=&quot;font-size: 20px;&quot;&gt;Est sur&lt;/font&gt;" style="edgeLabel;html=1;align=center;verticalAlign=middle;resizable=0;points=[];" connectable="0" vertex="1" parent="_2VCbLrLtyVhGAAqWfLw-156">
          <mxGeometry x="0.3577" y="4" relative="1" as="geometry">
            <mxPoint x="15" y="-16" as="offset" />
          </mxGeometry>
        </mxCell>
        <mxCell id="_2VCbLrLtyVhGAAqWfLw-158" value="&lt;font style=&quot;font-size: 20px;&quot;&gt;1&lt;/font&gt;" style="edgeLabel;html=1;align=center;verticalAlign=middle;resizable=0;points=[];fontSize=20;" connectable="0" vertex="1" parent="_2VCbLrLtyVhGAAqWfLw-156">
          <mxGeometry x="0.918" y="-1" relative="1" as="geometry">
            <mxPoint x="1" y="18" as="offset" />
          </mxGeometry>
        </mxCell>
        <mxCell id="_2VCbLrLtyVhGAAqWfLw-159" value="&lt;span style=&quot;font-size: 20px;&quot;&gt;0..1&lt;/span&gt;" style="edgeLabel;html=1;align=center;verticalAlign=middle;resizable=0;points=[];" connectable="0" vertex="1" parent="_2VCbLrLtyVhGAAqWfLw-156">
          <mxGeometry x="-0.8699" relative="1" as="geometry">
            <mxPoint x="-50" as="offset" />
          </mxGeometry>
        </mxCell>
        <mxCell id="OzrpFSXm8dq_aKGiJCsc-1" style="edgeStyle=orthogonalEdgeStyle;rounded=0;orthogonalLoop=1;jettySize=auto;html=1;entryX=0.5;entryY=1;entryDx=0;entryDy=0;endArrow=block;endFill=1;startArrow=diamondThin;startFill=0;" edge="1" parent="1" source="_2VCbLrLtyVhGAAqWfLw-147" target="_2VCbLrLtyVhGAAqWfLw-69">
          <mxGeometry relative="1" as="geometry" />
        </mxCell>
        <mxCell id="OzrpFSXm8dq_aKGiJCsc-26" value="&lt;font style=&quot;font-size: 20px;&quot;&gt;1&lt;/font&gt;" style="edgeLabel;html=1;align=center;verticalAlign=middle;resizable=0;points=[];" connectable="0" vertex="1" parent="OzrpFSXm8dq_aKGiJCsc-1">
          <mxGeometry x="-0.5816" y="-1" relative="1" as="geometry">
            <mxPoint as="offset" />
          </mxGeometry>
        </mxCell>
        <mxCell id="OzrpFSXm8dq_aKGiJCsc-27" value="&lt;font style=&quot;font-size: 20px;&quot;&gt;*&lt;/font&gt;" style="edgeLabel;html=1;align=center;verticalAlign=middle;resizable=0;points=[];" connectable="0" vertex="1" parent="OzrpFSXm8dq_aKGiJCsc-1">
          <mxGeometry x="0.5763" y="-2" relative="1" as="geometry">
            <mxPoint as="offset" />
          </mxGeometry>
        </mxCell>
        <mxCell id="_2VCbLrLtyVhGAAqWfLw-147" value="&lt;span style=&quot;font-size: 14px;&quot;&gt;Personnage&lt;/span&gt;" style="swimlane;fontStyle=1;align=left;verticalAlign=top;childLayout=stackLayout;horizontal=1;startSize=30;horizontalStack=0;resizeParent=1;resizeParentMax=0;resizeLast=0;collapsible=1;marginBottom=0;whiteSpace=wrap;html=1;spacingLeft=20;fillColor=#ffe6cc;strokeColor=#d79b00;" collapsed="1" vertex="1" parent="1">
          <mxGeometry x="1760" y="-40" width="240" height="80" as="geometry">
            <mxRectangle x="1130" y="180" width="240" height="94" as="alternateBounds" />
          </mxGeometry>
        </mxCell>
        <mxCell id="_2VCbLrLtyVhGAAqWfLw-148" value="+ attribut" style="text;strokeColor=default;fillColor=default;align=left;verticalAlign=top;spacingLeft=4;spacingRight=4;overflow=hidden;rotatable=0;points=[[0,0.5],[1,0.5]];portConstraint=eastwest;whiteSpace=wrap;html=1;" vertex="1" parent="_2VCbLrLtyVhGAAqWfLw-147">
          <mxGeometry y="30" width="240" height="30" as="geometry" />
        </mxCell>
        <mxCell id="_2VCbLrLtyVhGAAqWfLw-149" value="" style="line;strokeWidth=2;align=left;verticalAlign=middle;spacingTop=-1;spacingLeft=3;spacingRight=3;rotatable=0;labelPosition=right;points=[];portConstraint=eastwest;fillColor=default;strokeColor=default;" vertex="1" parent="_2VCbLrLtyVhGAAqWfLw-147">
          <mxGeometry y="60" width="240" height="8" as="geometry" />
        </mxCell>
        <mxCell id="_2VCbLrLtyVhGAAqWfLw-150" value="+ method(type): type" style="text;strokeColor=default;fillColor=default;align=left;verticalAlign=top;spacingLeft=4;spacingRight=4;overflow=hidden;rotatable=0;points=[[0,0.5],[1,0.5]];portConstraint=eastwest;whiteSpace=wrap;html=1;" vertex="1" parent="_2VCbLrLtyVhGAAqWfLw-147">
          <mxGeometry y="68" width="240" height="26" as="geometry" />
        </mxCell>
        <mxCell id="iljVmlmEiWhwnV5GWCFt-20" style="edgeStyle=orthogonalEdgeStyle;rounded=0;orthogonalLoop=1;jettySize=auto;html=1;entryX=0.75;entryY=1;entryDx=0;entryDy=0;exitX=0;exitY=0.25;exitDx=0;exitDy=0;startArrow=block;startFill=1;endArrow=diamondThin;endFill=0;" edge="1" parent="1" source="iljVmlmEiWhwnV5GWCFt-16" target="_2VCbLrLtyVhGAAqWfLw-33">
          <mxGeometry relative="1" as="geometry" />
        </mxCell>
        <mxCell id="iljVmlmEiWhwnV5GWCFt-22" value="&lt;font style=&quot;font-size: 20px;&quot;&gt;1&lt;/font&gt;" style="edgeLabel;html=1;align=center;verticalAlign=middle;resizable=0;points=[];" connectable="0" vertex="1" parent="iljVmlmEiWhwnV5GWCFt-20">
          <mxGeometry x="0.8587" y="2" relative="1" as="geometry">
            <mxPoint y="11" as="offset" />
          </mxGeometry>
        </mxCell>
        <mxCell id="iljVmlmEiWhwnV5GWCFt-23" value="&lt;span style=&quot;font-size: 20px;&quot;&gt;1&lt;/span&gt;" style="edgeLabel;html=1;align=center;verticalAlign=middle;resizable=0;points=[];" connectable="0" vertex="1" parent="iljVmlmEiWhwnV5GWCFt-20">
          <mxGeometry x="-0.7538" y="-1" relative="1" as="geometry">
            <mxPoint as="offset" />
          </mxGeometry>
        </mxCell>
        <mxCell id="iljVmlmEiWhwnV5GWCFt-16" value="&lt;span style=&quot;font-size: 14px;&quot;&gt;Portes&lt;/span&gt;" style="swimlane;fontStyle=1;align=left;verticalAlign=top;childLayout=stackLayout;horizontal=1;startSize=30;horizontalStack=0;resizeParent=1;resizeParentMax=0;resizeLast=0;collapsible=1;marginBottom=0;whiteSpace=wrap;html=1;spacingLeft=20;fillColor=#ffe6cc;strokeColor=#d79b00;" collapsed="1" vertex="1" parent="1">
          <mxGeometry x="3100" y="550" width="240" height="80" as="geometry">
            <mxRectangle x="870" y="360" width="240" height="94" as="alternateBounds" />
          </mxGeometry>
        </mxCell>
        <mxCell id="iljVmlmEiWhwnV5GWCFt-17" value="+ attribut" style="text;strokeColor=default;fillColor=default;align=left;verticalAlign=top;spacingLeft=4;spacingRight=4;overflow=hidden;rotatable=0;points=[[0,0.5],[1,0.5]];portConstraint=eastwest;whiteSpace=wrap;html=1;" vertex="1" parent="iljVmlmEiWhwnV5GWCFt-16">
          <mxGeometry y="30" width="240" height="30" as="geometry" />
        </mxCell>
        <mxCell id="iljVmlmEiWhwnV5GWCFt-18" value="" style="line;strokeWidth=2;align=left;verticalAlign=middle;spacingTop=-1;spacingLeft=3;spacingRight=3;rotatable=0;labelPosition=right;points=[];portConstraint=eastwest;fillColor=default;strokeColor=default;" vertex="1" parent="iljVmlmEiWhwnV5GWCFt-16">
          <mxGeometry y="60" width="240" height="8" as="geometry" />
        </mxCell>
        <mxCell id="iljVmlmEiWhwnV5GWCFt-19" value="+ method(type): type" style="text;strokeColor=default;fillColor=default;align=left;verticalAlign=top;spacingLeft=4;spacingRight=4;overflow=hidden;rotatable=0;points=[[0,0.5],[1,0.5]];portConstraint=eastwest;whiteSpace=wrap;html=1;" vertex="1" parent="iljVmlmEiWhwnV5GWCFt-16">
          <mxGeometry y="68" width="240" height="26" as="geometry" />
        </mxCell>
        <mxCell id="iljVmlmEiWhwnV5GWCFt-29" value="" style="shape=table;startSize=0;container=1;collapsible=0;childLayout=tableLayout;fontFamily=Consolas;fontSize=14;strokeWidth=1;strokeColor=none;" vertex="1" parent="1">
          <mxGeometry x="40" y="1240" width="760" height="1180" as="geometry" />
        </mxCell>
        <mxCell id="iljVmlmEiWhwnV5GWCFt-30" value="" style="shape=tableRow;horizontal=0;startSize=0;swimlaneHead=0;swimlaneBody=0;strokeColor=inherit;top=0;left=0;bottom=0;right=0;collapsible=0;dropTarget=0;fillColor=none;points=[[0,0.5],[1,0.5]];portConstraint=eastwest;fontStyle=0" vertex="1" parent="iljVmlmEiWhwnV5GWCFt-29">
          <mxGeometry width="760" height="40" as="geometry" />
        </mxCell>
        <mxCell id="iljVmlmEiWhwnV5GWCFt-31" value="Justification des choix des relations" style="shape=partialRectangle;html=1;whiteSpace=wrap;connectable=0;strokeColor=default;overflow=hidden;fillColor=#0000FF;top=1;left=1;bottom=0;right=1;pointerEvents=1;fontFamily=Consolas;fontSize=16;align=center;verticalAlign=middle;fontStyle=1;labelBackgroundColor=none;fontColor=#FFFFFF;strokeWidth=1;rowspan=1;colspan=5;" vertex="1" parent="iljVmlmEiWhwnV5GWCFt-30">
          <mxGeometry width="760" height="40" as="geometry">
            <mxRectangle width="40" height="40" as="alternateBounds" />
          </mxGeometry>
        </mxCell>
        <mxCell id="iljVmlmEiWhwnV5GWCFt-32" value="" style="shape=partialRectangle;html=1;whiteSpace=wrap;connectable=0;strokeColor=inherit;overflow=hidden;fillColor=none;top=0;left=0;bottom=0;right=0;pointerEvents=1;fontFamily=Consolas;" visible="0" vertex="1" parent="iljVmlmEiWhwnV5GWCFt-30">
          <mxGeometry x="40" width="120" height="40" as="geometry">
            <mxRectangle width="120" height="40" as="alternateBounds" />
          </mxGeometry>
        </mxCell>
        <mxCell id="iljVmlmEiWhwnV5GWCFt-33" value="" style="shape=partialRectangle;html=1;whiteSpace=wrap;connectable=0;strokeColor=inherit;overflow=hidden;fillColor=none;top=0;left=0;bottom=0;right=0;pointerEvents=1;fontFamily=Consolas;" visible="0" vertex="1" parent="iljVmlmEiWhwnV5GWCFt-30">
          <mxGeometry x="160" width="120" height="40" as="geometry">
            <mxRectangle width="120" height="40" as="alternateBounds" />
          </mxGeometry>
        </mxCell>
        <mxCell id="iljVmlmEiWhwnV5GWCFt-34" style="shape=partialRectangle;html=1;whiteSpace=wrap;connectable=0;strokeColor=inherit;overflow=hidden;fillColor=none;top=0;left=0;bottom=0;right=0;pointerEvents=1;fontFamily=Consolas;" visible="0" vertex="1" parent="iljVmlmEiWhwnV5GWCFt-30">
          <mxGeometry x="280" width="120" height="40" as="geometry">
            <mxRectangle width="120" height="40" as="alternateBounds" />
          </mxGeometry>
        </mxCell>
        <mxCell id="iljVmlmEiWhwnV5GWCFt-35" style="shape=partialRectangle;html=1;whiteSpace=wrap;connectable=0;strokeColor=inherit;overflow=hidden;fillColor=none;top=0;left=0;bottom=0;right=0;pointerEvents=1;fontFamily=Consolas;" visible="0" vertex="1" parent="iljVmlmEiWhwnV5GWCFt-30">
          <mxGeometry x="400" width="360" height="40" as="geometry">
            <mxRectangle width="360" height="40" as="alternateBounds" />
          </mxGeometry>
        </mxCell>
        <mxCell id="iljVmlmEiWhwnV5GWCFt-36" value="" style="shape=tableRow;horizontal=0;startSize=0;swimlaneHead=0;swimlaneBody=0;strokeColor=inherit;top=0;left=0;bottom=0;right=0;collapsible=0;dropTarget=0;fillColor=none;points=[[0,0.5],[1,0.5]];portConstraint=eastwest;" vertex="1" parent="iljVmlmEiWhwnV5GWCFt-29">
          <mxGeometry y="40" width="760" height="40" as="geometry" />
        </mxCell>
        <mxCell id="iljVmlmEiWhwnV5GWCFt-37" value="N°" style="shape=partialRectangle;html=1;whiteSpace=wrap;connectable=0;strokeColor=#000000;overflow=hidden;fillColor=#9999FF;top=1;left=1;bottom=1;right=1;pointerEvents=1;fontFamily=Consolas;fontSize=14;align=center;verticalAlign=middle;strokeWidth=0.5;fontStyle=1" vertex="1" parent="iljVmlmEiWhwnV5GWCFt-36">
          <mxGeometry width="40" height="40" as="geometry">
            <mxRectangle width="40" height="40" as="alternateBounds" />
          </mxGeometry>
        </mxCell>
        <mxCell id="iljVmlmEiWhwnV5GWCFt-38" value="De" style="shape=partialRectangle;html=1;whiteSpace=wrap;connectable=0;strokeColor=#000000;overflow=hidden;fillColor=#9999FF;top=1;left=1;bottom=1;right=1;pointerEvents=1;fontFamily=Consolas;fontSize=14;align=right;verticalAlign=middle;strokeWidth=0.5;fontStyle=1;spacing=5;" vertex="1" parent="iljVmlmEiWhwnV5GWCFt-36">
          <mxGeometry x="40" width="120" height="40" as="geometry">
            <mxRectangle width="120" height="40" as="alternateBounds" />
          </mxGeometry>
        </mxCell>
        <mxCell id="iljVmlmEiWhwnV5GWCFt-39" value="Vers" style="shape=partialRectangle;html=1;whiteSpace=wrap;connectable=0;strokeColor=#000000;overflow=hidden;fillColor=#9999FF;top=1;left=1;bottom=1;right=1;pointerEvents=1;fontFamily=Consolas;fontSize=14;align=left;verticalAlign=middle;strokeWidth=0.5;fontStyle=1;spacing=5;" vertex="1" parent="iljVmlmEiWhwnV5GWCFt-36">
          <mxGeometry x="160" width="120" height="40" as="geometry">
            <mxRectangle width="120" height="40" as="alternateBounds" />
          </mxGeometry>
        </mxCell>
        <mxCell id="iljVmlmEiWhwnV5GWCFt-40" value="Type" style="shape=partialRectangle;html=1;whiteSpace=wrap;connectable=0;strokeColor=#000000;overflow=hidden;fillColor=#9999FF;top=1;left=1;bottom=1;right=1;pointerEvents=1;fontFamily=Consolas;fontSize=14;align=center;verticalAlign=middle;strokeWidth=0.5;fontStyle=1" vertex="1" parent="iljVmlmEiWhwnV5GWCFt-36">
          <mxGeometry x="280" width="120" height="40" as="geometry">
            <mxRectangle width="120" height="40" as="alternateBounds" />
          </mxGeometry>
        </mxCell>
        <mxCell id="iljVmlmEiWhwnV5GWCFt-41" value="Justification" style="shape=partialRectangle;html=1;whiteSpace=wrap;connectable=0;strokeColor=#000000;overflow=hidden;fillColor=#9999FF;top=1;left=1;bottom=1;right=1;pointerEvents=1;fontFamily=Consolas;fontSize=14;align=center;verticalAlign=middle;strokeWidth=0.5;fontStyle=1" vertex="1" parent="iljVmlmEiWhwnV5GWCFt-36">
          <mxGeometry x="400" width="360" height="40" as="geometry">
            <mxRectangle width="360" height="40" as="alternateBounds" />
          </mxGeometry>
        </mxCell>
        <mxCell id="iljVmlmEiWhwnV5GWCFt-42" value="" style="shape=tableRow;horizontal=0;startSize=0;swimlaneHead=0;swimlaneBody=0;strokeColor=inherit;top=0;left=0;bottom=0;right=0;collapsible=0;dropTarget=0;fillColor=none;points=[[0,0.5],[1,0.5]];portConstraint=eastwest;fontStyle=0" vertex="1" parent="iljVmlmEiWhwnV5GWCFt-29">
          <mxGeometry y="80" width="760" height="20" as="geometry" />
        </mxCell>
        <mxCell id="iljVmlmEiWhwnV5GWCFt-43" value="&lt;div&gt;&lt;span style=&quot;font-weight: normal; font-size: 12px;&quot;&gt;&lt;font style=&quot;font-size: 12px;&quot;&gt;Letellier Noah - 2024/11/07 14:45&lt;/font&gt;&lt;/span&gt;&lt;/div&gt;" style="shape=partialRectangle;html=1;whiteSpace=wrap;connectable=0;strokeColor=default;overflow=hidden;fillColor=#0000FF;top=0;left=1;bottom=1;right=1;pointerEvents=1;fontFamily=Consolas;fontSize=12;align=center;verticalAlign=middle;fontStyle=1;labelBackgroundColor=none;fontColor=#FFFFFF;strokeWidth=1;rowspan=1;colspan=5;" vertex="1" parent="iljVmlmEiWhwnV5GWCFt-42">
          <mxGeometry width="760" height="20" as="geometry">
            <mxRectangle width="40" height="20" as="alternateBounds" />
          </mxGeometry>
        </mxCell>
        <mxCell id="iljVmlmEiWhwnV5GWCFt-44" value="" style="shape=partialRectangle;html=1;whiteSpace=wrap;connectable=0;strokeColor=inherit;overflow=hidden;fillColor=none;top=0;left=0;bottom=0;right=0;pointerEvents=1;fontFamily=Consolas;" visible="0" vertex="1" parent="iljVmlmEiWhwnV5GWCFt-42">
          <mxGeometry x="40" width="120" height="20" as="geometry">
            <mxRectangle width="120" height="20" as="alternateBounds" />
          </mxGeometry>
        </mxCell>
        <mxCell id="iljVmlmEiWhwnV5GWCFt-45" value="" style="shape=partialRectangle;html=1;whiteSpace=wrap;connectable=0;strokeColor=inherit;overflow=hidden;fillColor=none;top=0;left=0;bottom=0;right=0;pointerEvents=1;fontFamily=Consolas;" visible="0" vertex="1" parent="iljVmlmEiWhwnV5GWCFt-42">
          <mxGeometry x="160" width="120" height="20" as="geometry">
            <mxRectangle width="120" height="20" as="alternateBounds" />
          </mxGeometry>
        </mxCell>
        <mxCell id="iljVmlmEiWhwnV5GWCFt-46" style="shape=partialRectangle;html=1;whiteSpace=wrap;connectable=0;strokeColor=inherit;overflow=hidden;fillColor=none;top=0;left=0;bottom=0;right=0;pointerEvents=1;fontFamily=Consolas;" visible="0" vertex="1" parent="iljVmlmEiWhwnV5GWCFt-42">
          <mxGeometry x="280" width="120" height="20" as="geometry">
            <mxRectangle width="120" height="20" as="alternateBounds" />
          </mxGeometry>
        </mxCell>
        <mxCell id="iljVmlmEiWhwnV5GWCFt-47" style="shape=partialRectangle;html=1;whiteSpace=wrap;connectable=0;strokeColor=inherit;overflow=hidden;fillColor=none;top=0;left=0;bottom=0;right=0;pointerEvents=1;fontFamily=Consolas;" visible="0" vertex="1" parent="iljVmlmEiWhwnV5GWCFt-42">
          <mxGeometry x="400" width="360" height="20" as="geometry">
            <mxRectangle width="360" height="20" as="alternateBounds" />
          </mxGeometry>
        </mxCell>
        <mxCell id="iljVmlmEiWhwnV5GWCFt-48" value="" style="shape=tableRow;horizontal=0;startSize=0;swimlaneHead=0;swimlaneBody=0;strokeColor=inherit;top=0;left=0;bottom=0;right=0;collapsible=0;dropTarget=0;fillColor=none;points=[[0,0.5],[1,0.5]];portConstraint=eastwest;" vertex="1" parent="iljVmlmEiWhwnV5GWCFt-29">
          <mxGeometry y="100" width="760" height="30" as="geometry" />
        </mxCell>
        <mxCell id="iljVmlmEiWhwnV5GWCFt-49" value="1" style="shape=partialRectangle;html=1;whiteSpace=wrap;connectable=0;strokeColor=#000066;overflow=hidden;fillColor=#E3C800;top=1;left=1;bottom=0;right=1;pointerEvents=1;fontFamily=Consolas;fontSize=14;align=center;verticalAlign=top;strokeWidth=0.5;spacing=5;spacingTop=0;spacingLeft=0;spacingBottom=0;fontStyle=1;fontColor=#000000;" vertex="1" parent="iljVmlmEiWhwnV5GWCFt-48">
          <mxGeometry width="40" height="30" as="geometry">
            <mxRectangle width="40" height="30" as="alternateBounds" />
          </mxGeometry>
        </mxCell>
        <mxCell id="iljVmlmEiWhwnV5GWCFt-50" value="Case" style="shape=partialRectangle;html=1;whiteSpace=wrap;connectable=0;strokeColor=#000000;overflow=hidden;fillColor=none;top=1;left=1;bottom=0;right=1;pointerEvents=1;fontFamily=Consolas;fontSize=14;align=right;verticalAlign=top;strokeWidth=0.5;spacing=5;spacingTop=0;spacingLeft=0;spacingBottom=0;spacingRight=0;fontStyle=1" vertex="1" parent="iljVmlmEiWhwnV5GWCFt-48">
          <mxGeometry x="40" width="120" height="30" as="geometry">
            <mxRectangle width="120" height="30" as="alternateBounds" />
          </mxGeometry>
        </mxCell>
        <mxCell id="iljVmlmEiWhwnV5GWCFt-51" value="Porte" style="shape=partialRectangle;html=1;whiteSpace=wrap;connectable=0;strokeColor=#000000;overflow=hidden;fillColor=none;top=1;left=1;bottom=0;right=1;pointerEvents=1;fontFamily=Consolas;fontSize=14;align=left;verticalAlign=top;strokeWidth=0.5;spacing=5;spacingTop=0;spacingLeft=0;spacingBottom=0;fontStyle=1;spacingRight=0;" vertex="1" parent="iljVmlmEiWhwnV5GWCFt-48">
          <mxGeometry x="160" width="120" height="30" as="geometry">
            <mxRectangle width="120" height="30" as="alternateBounds" />
          </mxGeometry>
        </mxCell>
        <mxCell id="iljVmlmEiWhwnV5GWCFt-52" value="Composition" style="shape=partialRectangle;html=1;whiteSpace=wrap;connectable=0;strokeColor=#000000;overflow=hidden;fillColor=none;top=1;left=1;bottom=0;right=1;pointerEvents=1;fontFamily=Consolas;fontSize=14;align=center;verticalAlign=top;strokeWidth=0.5;spacing=5;spacingTop=0;spacingLeft=0;spacingBottom=0;fontStyle=0" vertex="1" parent="iljVmlmEiWhwnV5GWCFt-48">
          <mxGeometry x="280" width="120" height="30" as="geometry">
            <mxRectangle width="120" height="30" as="alternateBounds" />
          </mxGeometry>
        </mxCell>
        <mxCell id="iljVmlmEiWhwnV5GWCFt-53" value="" style="shape=partialRectangle;html=1;whiteSpace=wrap;connectable=0;strokeColor=#000000;overflow=hidden;fillColor=none;top=1;left=1;bottom=1;right=1;pointerEvents=1;fontFamily=Consolas;fontSize=14;align=left;verticalAlign=top;strokeWidth=0.5;spacing=0;spacingTop=5;spacingLeft=5;spacingBottom=5;fontStyle=2;rowspan=2;colspan=1;" vertex="1" parent="iljVmlmEiWhwnV5GWCFt-48">
          <mxGeometry x="400" width="360" height="300" as="geometry">
            <mxRectangle width="360" height="30" as="alternateBounds" />
          </mxGeometry>
        </mxCell>
        <mxCell id="iljVmlmEiWhwnV5GWCFt-54" value="" style="shape=tableRow;horizontal=0;startSize=0;swimlaneHead=0;swimlaneBody=0;strokeColor=inherit;top=0;left=0;bottom=0;right=0;collapsible=0;dropTarget=0;fillColor=none;points=[[0,0.5],[1,0.5]];portConstraint=eastwest;" vertex="1" parent="iljVmlmEiWhwnV5GWCFt-29">
          <mxGeometry y="130" width="760" height="270" as="geometry" />
        </mxCell>
        <mxCell id="iljVmlmEiWhwnV5GWCFt-55" value="" style="shape=partialRectangle;html=1;whiteSpace=wrap;connectable=0;strokeColor=#000000;overflow=hidden;fillColor=#E3C800;top=0;left=1;bottom=1;right=1;pointerEvents=1;fontFamily=Consolas;fontSize=14;align=center;verticalAlign=top;strokeWidth=0.5;spacing=0;spacingTop=5;spacingLeft=5;spacingBottom=5;fontStyle=1" vertex="1" parent="iljVmlmEiWhwnV5GWCFt-54">
          <mxGeometry width="40" height="270" as="geometry">
            <mxRectangle width="40" height="270" as="alternateBounds" />
          </mxGeometry>
        </mxCell>
        <mxCell id="iljVmlmEiWhwnV5GWCFt-56" value="1" style="shape=partialRectangle;html=1;whiteSpace=wrap;connectable=0;strokeColor=#000000;overflow=hidden;fillColor=none;top=0;left=1;bottom=1;right=1;pointerEvents=1;fontFamily=Consolas;fontSize=14;align=right;verticalAlign=top;strokeWidth=0.5;spacing=5;spacingTop=0;spacingLeft=0;spacingBottom=0;fontStyle=0;spacingRight=0;" vertex="1" parent="iljVmlmEiWhwnV5GWCFt-54">
          <mxGeometry x="40" width="120" height="270" as="geometry">
            <mxRectangle width="120" height="270" as="alternateBounds" />
          </mxGeometry>
        </mxCell>
        <mxCell id="iljVmlmEiWhwnV5GWCFt-57" value="1" style="shape=partialRectangle;html=1;whiteSpace=wrap;connectable=0;strokeColor=#000000;overflow=hidden;fillColor=none;top=0;left=1;bottom=1;right=1;pointerEvents=1;fontFamily=Consolas;fontSize=14;align=left;verticalAlign=top;strokeWidth=0.5;spacing=5;spacingTop=0;spacingLeft=0;spacingBottom=0;fontStyle=0;spacingRight=0;" vertex="1" parent="iljVmlmEiWhwnV5GWCFt-54">
          <mxGeometry x="160" width="120" height="270" as="geometry">
            <mxRectangle width="120" height="270" as="alternateBounds" />
          </mxGeometry>
        </mxCell>
        <mxCell id="iljVmlmEiWhwnV5GWCFt-58" style="shape=partialRectangle;html=1;whiteSpace=wrap;connectable=0;strokeColor=#000000;overflow=hidden;fillColor=none;top=0;left=1;bottom=1;right=1;pointerEvents=1;fontFamily=Consolas;fontSize=14;align=left;verticalAlign=top;strokeWidth=0.5;spacing=5;spacingTop=0;spacingLeft=0;spacingBottom=0;fontStyle=0" vertex="1" parent="iljVmlmEiWhwnV5GWCFt-54">
          <mxGeometry x="280" width="120" height="270" as="geometry">
            <mxRectangle width="120" height="270" as="alternateBounds" />
          </mxGeometry>
        </mxCell>
        <mxCell id="iljVmlmEiWhwnV5GWCFt-59" style="shape=partialRectangle;html=1;whiteSpace=wrap;connectable=0;strokeColor=#000000;overflow=hidden;fillColor=none;top=1;left=1;bottom=1;right=1;pointerEvents=1;fontFamily=Consolas;fontSize=14;align=left;verticalAlign=top;strokeWidth=0.5;spacing=0;spacingTop=5;spacingLeft=5;spacingBottom=5;fontStyle=2" visible="0" vertex="1" parent="iljVmlmEiWhwnV5GWCFt-54">
          <mxGeometry x="400" width="360" height="270" as="geometry">
            <mxRectangle width="360" height="270" as="alternateBounds" />
          </mxGeometry>
        </mxCell>
        <mxCell id="iljVmlmEiWhwnV5GWCFt-60" value="" style="shape=tableRow;horizontal=0;startSize=0;swimlaneHead=0;swimlaneBody=0;strokeColor=inherit;top=0;left=0;bottom=0;right=0;collapsible=0;dropTarget=0;fillColor=none;points=[[0,0.5],[1,0.5]];portConstraint=eastwest;" vertex="1" parent="iljVmlmEiWhwnV5GWCFt-29">
          <mxGeometry y="400" width="760" height="30" as="geometry" />
        </mxCell>
        <mxCell id="iljVmlmEiWhwnV5GWCFt-61" value="2" style="shape=partialRectangle;html=1;whiteSpace=wrap;connectable=0;strokeColor=#000066;overflow=hidden;fillColor=#E3C800;top=1;left=1;bottom=0;right=1;pointerEvents=1;fontFamily=Consolas;fontSize=14;align=center;verticalAlign=top;strokeWidth=0.5;spacing=5;spacingTop=0;spacingLeft=0;spacingBottom=0;fontStyle=1;fontColor=#000000;" vertex="1" parent="iljVmlmEiWhwnV5GWCFt-60">
          <mxGeometry width="40" height="30" as="geometry">
            <mxRectangle width="40" height="30" as="alternateBounds" />
          </mxGeometry>
        </mxCell>
        <mxCell id="iljVmlmEiWhwnV5GWCFt-62" value="Maitre du jeux" style="shape=partialRectangle;html=1;whiteSpace=wrap;connectable=0;strokeColor=#000000;overflow=hidden;fillColor=none;top=1;left=1;bottom=0;right=1;pointerEvents=1;fontFamily=Consolas;fontSize=14;align=right;verticalAlign=top;strokeWidth=0.5;spacing=5;spacingTop=0;spacingLeft=0;spacingBottom=0;spacingRight=0;fontStyle=1" vertex="1" parent="iljVmlmEiWhwnV5GWCFt-60">
          <mxGeometry x="40" width="120" height="30" as="geometry">
            <mxRectangle width="120" height="30" as="alternateBounds" />
          </mxGeometry>
        </mxCell>
        <mxCell id="iljVmlmEiWhwnV5GWCFt-63" value="Monstre" style="shape=partialRectangle;html=1;whiteSpace=wrap;connectable=0;strokeColor=#000000;overflow=hidden;fillColor=none;top=1;left=1;bottom=0;right=1;pointerEvents=1;fontFamily=Consolas;fontSize=14;align=left;verticalAlign=top;strokeWidth=0.5;spacing=5;spacingTop=0;spacingLeft=0;spacingBottom=0;fontStyle=1;spacingRight=0;" vertex="1" parent="iljVmlmEiWhwnV5GWCFt-60">
          <mxGeometry x="160" width="120" height="30" as="geometry">
            <mxRectangle width="120" height="30" as="alternateBounds" />
          </mxGeometry>
        </mxCell>
        <mxCell id="iljVmlmEiWhwnV5GWCFt-64" value="Agrégation" style="shape=partialRectangle;html=1;whiteSpace=wrap;connectable=0;strokeColor=#000000;overflow=hidden;fillColor=none;top=1;left=1;bottom=0;right=1;pointerEvents=1;fontFamily=Consolas;fontSize=14;align=center;verticalAlign=top;strokeWidth=0.5;spacing=5;spacingTop=0;spacingLeft=0;spacingBottom=0;fontStyle=0" vertex="1" parent="iljVmlmEiWhwnV5GWCFt-60">
          <mxGeometry x="280" width="120" height="30" as="geometry">
            <mxRectangle width="120" height="30" as="alternateBounds" />
          </mxGeometry>
        </mxCell>
        <mxCell id="iljVmlmEiWhwnV5GWCFt-65" value="Le maitre de jeu peux contrôler les monstres et peux donc avoir accès a toute les méthodes et attribut de ceux-ci " style="shape=partialRectangle;html=1;whiteSpace=wrap;connectable=0;strokeColor=#000000;overflow=hidden;fillColor=none;top=1;left=1;bottom=1;right=1;pointerEvents=1;fontFamily=Consolas;fontSize=14;align=left;verticalAlign=top;strokeWidth=0.5;spacing=0;spacingTop=5;spacingLeft=5;spacingBottom=5;fontStyle=2;rowspan=2;colspan=1;" vertex="1" parent="iljVmlmEiWhwnV5GWCFt-60">
          <mxGeometry x="400" width="360" height="320" as="geometry">
            <mxRectangle width="360" height="30" as="alternateBounds" />
          </mxGeometry>
        </mxCell>
        <mxCell id="iljVmlmEiWhwnV5GWCFt-66" value="" style="shape=tableRow;horizontal=0;startSize=0;swimlaneHead=0;swimlaneBody=0;strokeColor=inherit;top=0;left=0;bottom=0;right=0;collapsible=0;dropTarget=0;fillColor=none;points=[[0,0.5],[1,0.5]];portConstraint=eastwest;" vertex="1" parent="iljVmlmEiWhwnV5GWCFt-29">
          <mxGeometry y="430" width="760" height="290" as="geometry" />
        </mxCell>
        <mxCell id="iljVmlmEiWhwnV5GWCFt-67" value="" style="shape=partialRectangle;html=1;whiteSpace=wrap;connectable=0;strokeColor=#000000;overflow=hidden;fillColor=#E3C800;top=0;left=1;bottom=1;right=1;pointerEvents=1;fontFamily=Consolas;fontSize=14;align=center;verticalAlign=top;strokeWidth=0.5;spacing=0;spacingTop=5;spacingLeft=5;spacingBottom=5;fontStyle=1" vertex="1" parent="iljVmlmEiWhwnV5GWCFt-66">
          <mxGeometry width="40" height="290" as="geometry">
            <mxRectangle width="40" height="290" as="alternateBounds" />
          </mxGeometry>
        </mxCell>
        <mxCell id="iljVmlmEiWhwnV5GWCFt-68" value="1" style="shape=partialRectangle;html=1;whiteSpace=wrap;connectable=0;strokeColor=#000000;overflow=hidden;fillColor=none;top=0;left=1;bottom=1;right=1;pointerEvents=1;fontFamily=Consolas;fontSize=14;align=right;verticalAlign=top;strokeWidth=0.5;spacing=5;spacingTop=0;spacingLeft=0;spacingBottom=0;fontStyle=0;spacingRight=0;" vertex="1" parent="iljVmlmEiWhwnV5GWCFt-66">
          <mxGeometry x="40" width="120" height="290" as="geometry">
            <mxRectangle width="120" height="290" as="alternateBounds" />
          </mxGeometry>
        </mxCell>
        <mxCell id="iljVmlmEiWhwnV5GWCFt-69" value="*" style="shape=partialRectangle;html=1;whiteSpace=wrap;connectable=0;strokeColor=#000000;overflow=hidden;fillColor=none;top=0;left=1;bottom=1;right=1;pointerEvents=1;fontFamily=Consolas;fontSize=14;align=left;verticalAlign=top;strokeWidth=0.5;spacing=5;spacingTop=0;spacingLeft=0;spacingBottom=0;fontStyle=0;spacingRight=0;" vertex="1" parent="iljVmlmEiWhwnV5GWCFt-66">
          <mxGeometry x="160" width="120" height="290" as="geometry">
            <mxRectangle width="120" height="290" as="alternateBounds" />
          </mxGeometry>
        </mxCell>
        <mxCell id="iljVmlmEiWhwnV5GWCFt-70" style="shape=partialRectangle;html=1;whiteSpace=wrap;connectable=0;strokeColor=#000000;overflow=hidden;fillColor=none;top=0;left=1;bottom=1;right=1;pointerEvents=1;fontFamily=Consolas;fontSize=14;align=left;verticalAlign=top;strokeWidth=0.5;spacing=5;spacingTop=0;spacingLeft=0;spacingBottom=0;fontStyle=0" vertex="1" parent="iljVmlmEiWhwnV5GWCFt-66">
          <mxGeometry x="280" width="120" height="290" as="geometry">
            <mxRectangle width="120" height="290" as="alternateBounds" />
          </mxGeometry>
        </mxCell>
        <mxCell id="iljVmlmEiWhwnV5GWCFt-71" style="shape=partialRectangle;html=1;whiteSpace=wrap;connectable=0;strokeColor=#000000;overflow=hidden;fillColor=none;top=1;left=1;bottom=1;right=1;pointerEvents=1;fontFamily=Consolas;fontSize=14;align=left;verticalAlign=top;strokeWidth=0.5;spacing=0;spacingTop=5;spacingLeft=5;spacingBottom=5;fontStyle=2" visible="0" vertex="1" parent="iljVmlmEiWhwnV5GWCFt-66">
          <mxGeometry x="400" width="360" height="290" as="geometry">
            <mxRectangle width="360" height="290" as="alternateBounds" />
          </mxGeometry>
        </mxCell>
        <mxCell id="iljVmlmEiWhwnV5GWCFt-72" value="" style="shape=tableRow;horizontal=0;startSize=0;swimlaneHead=0;swimlaneBody=0;strokeColor=inherit;top=0;left=0;bottom=0;right=0;collapsible=0;dropTarget=0;fillColor=none;points=[[0,0.5],[1,0.5]];portConstraint=eastwest;fontStyle=0" vertex="1" parent="iljVmlmEiWhwnV5GWCFt-29">
          <mxGeometry y="720" width="760" height="20" as="geometry" />
        </mxCell>
        <mxCell id="iljVmlmEiWhwnV5GWCFt-73" value="&lt;span style=&quot;font-weight: normal; font-size: 12px;&quot;&gt;&lt;font style=&quot;font-size: 12px;&quot;&gt;KEYAERT Aurélien- 2024/11/07 14:45&lt;/font&gt;&lt;/span&gt;" style="shape=partialRectangle;html=1;whiteSpace=wrap;connectable=0;strokeColor=default;overflow=hidden;fillColor=#0000FF;top=0;left=1;bottom=1;right=1;pointerEvents=1;fontFamily=Consolas;fontSize=12;align=center;verticalAlign=middle;fontStyle=1;labelBackgroundColor=none;fontColor=#FFFFFF;strokeWidth=1;rowspan=1;colspan=5;" vertex="1" parent="iljVmlmEiWhwnV5GWCFt-72">
          <mxGeometry width="760" height="20" as="geometry">
            <mxRectangle width="40" height="20" as="alternateBounds" />
          </mxGeometry>
        </mxCell>
        <mxCell id="iljVmlmEiWhwnV5GWCFt-74" value="" style="shape=partialRectangle;html=1;whiteSpace=wrap;connectable=0;strokeColor=inherit;overflow=hidden;fillColor=none;top=0;left=0;bottom=0;right=0;pointerEvents=1;fontFamily=Consolas;" visible="0" vertex="1" parent="iljVmlmEiWhwnV5GWCFt-72">
          <mxGeometry x="40" width="120" height="20" as="geometry">
            <mxRectangle width="120" height="20" as="alternateBounds" />
          </mxGeometry>
        </mxCell>
        <mxCell id="iljVmlmEiWhwnV5GWCFt-75" value="" style="shape=partialRectangle;html=1;whiteSpace=wrap;connectable=0;strokeColor=inherit;overflow=hidden;fillColor=none;top=0;left=0;bottom=0;right=0;pointerEvents=1;fontFamily=Consolas;" visible="0" vertex="1" parent="iljVmlmEiWhwnV5GWCFt-72">
          <mxGeometry x="160" width="120" height="20" as="geometry">
            <mxRectangle width="120" height="20" as="alternateBounds" />
          </mxGeometry>
        </mxCell>
        <mxCell id="iljVmlmEiWhwnV5GWCFt-76" style="shape=partialRectangle;html=1;whiteSpace=wrap;connectable=0;strokeColor=inherit;overflow=hidden;fillColor=none;top=0;left=0;bottom=0;right=0;pointerEvents=1;fontFamily=Consolas;" visible="0" vertex="1" parent="iljVmlmEiWhwnV5GWCFt-72">
          <mxGeometry x="280" width="120" height="20" as="geometry">
            <mxRectangle width="120" height="20" as="alternateBounds" />
          </mxGeometry>
        </mxCell>
        <mxCell id="iljVmlmEiWhwnV5GWCFt-77" style="shape=partialRectangle;html=1;whiteSpace=wrap;connectable=0;strokeColor=inherit;overflow=hidden;fillColor=none;top=0;left=0;bottom=0;right=0;pointerEvents=1;fontFamily=Consolas;" visible="0" vertex="1" parent="iljVmlmEiWhwnV5GWCFt-72">
          <mxGeometry x="400" width="360" height="20" as="geometry">
            <mxRectangle width="360" height="20" as="alternateBounds" />
          </mxGeometry>
        </mxCell>
        <mxCell id="iljVmlmEiWhwnV5GWCFt-78" value="" style="shape=tableRow;horizontal=0;startSize=0;swimlaneHead=0;swimlaneBody=0;strokeColor=inherit;top=0;left=0;bottom=0;right=0;collapsible=0;dropTarget=0;fillColor=none;points=[[0,0.5],[1,0.5]];portConstraint=eastwest;" vertex="1" parent="iljVmlmEiWhwnV5GWCFt-29">
          <mxGeometry y="740" width="760" height="30" as="geometry" />
        </mxCell>
        <mxCell id="iljVmlmEiWhwnV5GWCFt-79" value="3" style="shape=partialRectangle;html=1;whiteSpace=wrap;connectable=0;strokeColor=#000066;overflow=hidden;fillColor=#E3C800;top=1;left=1;bottom=0;right=1;pointerEvents=1;fontFamily=Consolas;fontSize=14;align=center;verticalAlign=top;strokeWidth=0.5;spacing=5;spacingTop=0;spacingLeft=0;spacingBottom=0;fontStyle=1;fontColor=#000000;" vertex="1" parent="iljVmlmEiWhwnV5GWCFt-78">
          <mxGeometry width="40" height="30" as="geometry">
            <mxRectangle width="40" height="30" as="alternateBounds" />
          </mxGeometry>
        </mxCell>
        <mxCell id="iljVmlmEiWhwnV5GWCFt-80" value="Case" style="shape=partialRectangle;html=1;whiteSpace=wrap;connectable=0;strokeColor=#000000;overflow=hidden;fillColor=none;top=1;left=1;bottom=0;right=1;pointerEvents=1;fontFamily=Consolas;fontSize=14;align=right;verticalAlign=top;strokeWidth=0.5;spacing=5;spacingTop=0;spacingLeft=0;spacingBottom=0;spacingRight=0;fontStyle=1" vertex="1" parent="iljVmlmEiWhwnV5GWCFt-78">
          <mxGeometry x="40" width="120" height="30" as="geometry">
            <mxRectangle width="120" height="30" as="alternateBounds" />
          </mxGeometry>
        </mxCell>
        <mxCell id="iljVmlmEiWhwnV5GWCFt-81" value="Salle" style="shape=partialRectangle;html=1;whiteSpace=wrap;connectable=0;strokeColor=#000000;overflow=hidden;fillColor=none;top=1;left=1;bottom=0;right=1;pointerEvents=1;fontFamily=Consolas;fontSize=14;align=left;verticalAlign=top;strokeWidth=0.5;spacing=5;spacingTop=0;spacingLeft=0;spacingBottom=0;fontStyle=1;spacingRight=0;" vertex="1" parent="iljVmlmEiWhwnV5GWCFt-78">
          <mxGeometry x="160" width="120" height="30" as="geometry">
            <mxRectangle width="120" height="30" as="alternateBounds" />
          </mxGeometry>
        </mxCell>
        <mxCell id="iljVmlmEiWhwnV5GWCFt-82" value="Association" style="shape=partialRectangle;html=1;whiteSpace=wrap;connectable=0;strokeColor=#000000;overflow=hidden;fillColor=none;top=1;left=1;bottom=0;right=1;pointerEvents=1;fontFamily=Consolas;fontSize=14;align=center;verticalAlign=top;strokeWidth=0.5;spacing=5;spacingTop=0;spacingLeft=0;spacingBottom=0;fontStyle=0" vertex="1" parent="iljVmlmEiWhwnV5GWCFt-78">
          <mxGeometry x="280" width="120" height="30" as="geometry">
            <mxRectangle width="120" height="30" as="alternateBounds" />
          </mxGeometry>
        </mxCell>
        <mxCell id="iljVmlmEiWhwnV5GWCFt-83" value="Il faut minimum 6 cases pour créé une salle.&lt;div&gt;&lt;br&gt;&lt;/div&gt;&lt;div&gt;La case appartient qu&#39;a une seule salle a la fois. La case ne peut pas être divisée ou alors se retrouvée dans 2 salle en même temps.&lt;/div&gt;" style="shape=partialRectangle;html=1;whiteSpace=wrap;connectable=0;strokeColor=#000000;overflow=hidden;fillColor=none;top=1;left=1;bottom=1;right=1;pointerEvents=1;fontFamily=Consolas;fontSize=14;align=left;verticalAlign=top;strokeWidth=0.5;spacing=0;spacingTop=5;spacingLeft=5;spacingBottom=5;fontStyle=2;rowspan=2;colspan=1;" vertex="1" parent="iljVmlmEiWhwnV5GWCFt-78">
          <mxGeometry x="400" width="360" height="160" as="geometry">
            <mxRectangle width="360" height="30" as="alternateBounds" />
          </mxGeometry>
        </mxCell>
        <mxCell id="iljVmlmEiWhwnV5GWCFt-84" value="" style="shape=tableRow;horizontal=0;startSize=0;swimlaneHead=0;swimlaneBody=0;strokeColor=inherit;top=0;left=0;bottom=0;right=0;collapsible=0;dropTarget=0;fillColor=none;points=[[0,0.5],[1,0.5]];portConstraint=eastwest;" vertex="1" parent="iljVmlmEiWhwnV5GWCFt-29">
          <mxGeometry y="770" width="760" height="130" as="geometry" />
        </mxCell>
        <mxCell id="iljVmlmEiWhwnV5GWCFt-85" value="" style="shape=partialRectangle;html=1;whiteSpace=wrap;connectable=0;strokeColor=#000000;overflow=hidden;fillColor=#E3C800;top=0;left=1;bottom=1;right=1;pointerEvents=1;fontFamily=Consolas;fontSize=14;align=center;verticalAlign=top;strokeWidth=0.5;spacing=0;spacingTop=5;spacingLeft=5;spacingBottom=5;fontStyle=1" vertex="1" parent="iljVmlmEiWhwnV5GWCFt-84">
          <mxGeometry width="40" height="130" as="geometry">
            <mxRectangle width="40" height="130" as="alternateBounds" />
          </mxGeometry>
        </mxCell>
        <mxCell id="iljVmlmEiWhwnV5GWCFt-86" value="1" style="shape=partialRectangle;html=1;whiteSpace=wrap;connectable=0;strokeColor=#000000;overflow=hidden;fillColor=none;top=0;left=1;bottom=1;right=1;pointerEvents=1;fontFamily=Consolas;fontSize=14;align=right;verticalAlign=top;strokeWidth=0.5;spacing=5;spacingTop=0;spacingLeft=0;spacingBottom=0;fontStyle=0;spacingRight=0;" vertex="1" parent="iljVmlmEiWhwnV5GWCFt-84">
          <mxGeometry x="40" width="120" height="130" as="geometry">
            <mxRectangle width="120" height="130" as="alternateBounds" />
          </mxGeometry>
        </mxCell>
        <mxCell id="iljVmlmEiWhwnV5GWCFt-87" value="6..*" style="shape=partialRectangle;html=1;whiteSpace=wrap;connectable=0;strokeColor=#000000;overflow=hidden;fillColor=none;top=0;left=1;bottom=1;right=1;pointerEvents=1;fontFamily=Consolas;fontSize=14;align=left;verticalAlign=top;strokeWidth=0.5;spacing=5;spacingTop=0;spacingLeft=0;spacingBottom=0;fontStyle=0;spacingRight=0;" vertex="1" parent="iljVmlmEiWhwnV5GWCFt-84">
          <mxGeometry x="160" width="120" height="130" as="geometry">
            <mxRectangle width="120" height="130" as="alternateBounds" />
          </mxGeometry>
        </mxCell>
        <mxCell id="iljVmlmEiWhwnV5GWCFt-88" style="shape=partialRectangle;html=1;whiteSpace=wrap;connectable=0;strokeColor=#000000;overflow=hidden;fillColor=none;top=0;left=1;bottom=1;right=1;pointerEvents=1;fontFamily=Consolas;fontSize=14;align=left;verticalAlign=top;strokeWidth=0.5;spacing=5;spacingTop=0;spacingLeft=0;spacingBottom=0;fontStyle=0" vertex="1" parent="iljVmlmEiWhwnV5GWCFt-84">
          <mxGeometry x="280" width="120" height="130" as="geometry">
            <mxRectangle width="120" height="130" as="alternateBounds" />
          </mxGeometry>
        </mxCell>
        <mxCell id="iljVmlmEiWhwnV5GWCFt-89" style="shape=partialRectangle;html=1;whiteSpace=wrap;connectable=0;strokeColor=#000000;overflow=hidden;fillColor=none;top=1;left=1;bottom=1;right=1;pointerEvents=1;fontFamily=Consolas;fontSize=14;align=left;verticalAlign=top;strokeWidth=0.5;spacing=0;spacingTop=5;spacingLeft=5;spacingBottom=5;fontStyle=2" visible="0" vertex="1" parent="iljVmlmEiWhwnV5GWCFt-84">
          <mxGeometry x="400" width="360" height="130" as="geometry">
            <mxRectangle width="360" height="130" as="alternateBounds" />
          </mxGeometry>
        </mxCell>
        <mxCell id="iljVmlmEiWhwnV5GWCFt-90" value="" style="shape=tableRow;horizontal=0;startSize=0;swimlaneHead=0;swimlaneBody=0;strokeColor=inherit;top=0;left=0;bottom=0;right=0;collapsible=0;dropTarget=0;fillColor=none;points=[[0,0.5],[1,0.5]];portConstraint=eastwest;" vertex="1" parent="iljVmlmEiWhwnV5GWCFt-29">
          <mxGeometry y="900" width="760" height="60" as="geometry" />
        </mxCell>
        <mxCell id="iljVmlmEiWhwnV5GWCFt-91" value="4" style="shape=partialRectangle;html=1;whiteSpace=wrap;connectable=0;strokeColor=#000066;overflow=hidden;fillColor=#E3C800;top=1;left=1;bottom=0;right=1;pointerEvents=1;fontFamily=Consolas;fontSize=14;align=center;verticalAlign=top;strokeWidth=0.5;spacing=5;spacingTop=0;spacingLeft=0;spacingBottom=0;fontStyle=1;fontColor=#000000;" vertex="1" parent="iljVmlmEiWhwnV5GWCFt-90">
          <mxGeometry width="40" height="60" as="geometry">
            <mxRectangle width="40" height="60" as="alternateBounds" />
          </mxGeometry>
        </mxCell>
        <mxCell id="iljVmlmEiWhwnV5GWCFt-92" value="Jeu" style="shape=partialRectangle;html=1;whiteSpace=wrap;connectable=0;strokeColor=#000000;overflow=hidden;fillColor=none;top=1;left=1;bottom=0;right=1;pointerEvents=1;fontFamily=Consolas;fontSize=14;align=right;verticalAlign=top;strokeWidth=0.5;spacing=5;spacingTop=0;spacingLeft=0;spacingBottom=0;spacingRight=0;fontStyle=1" vertex="1" parent="iljVmlmEiWhwnV5GWCFt-90">
          <mxGeometry x="40" width="120" height="60" as="geometry">
            <mxRectangle width="120" height="60" as="alternateBounds" />
          </mxGeometry>
        </mxCell>
        <mxCell id="iljVmlmEiWhwnV5GWCFt-93" value="Joueur" style="shape=partialRectangle;html=1;whiteSpace=wrap;connectable=0;strokeColor=#000000;overflow=hidden;fillColor=none;top=1;left=1;bottom=0;right=1;pointerEvents=1;fontFamily=Consolas;fontSize=14;align=left;verticalAlign=top;strokeWidth=0.5;spacing=5;spacingTop=0;spacingLeft=0;spacingBottom=0;fontStyle=1;spacingRight=0;" vertex="1" parent="iljVmlmEiWhwnV5GWCFt-90">
          <mxGeometry x="160" width="120" height="60" as="geometry">
            <mxRectangle width="120" height="60" as="alternateBounds" />
          </mxGeometry>
        </mxCell>
        <mxCell id="iljVmlmEiWhwnV5GWCFt-94" value="Composition" style="shape=partialRectangle;html=1;whiteSpace=wrap;connectable=0;strokeColor=#000000;overflow=hidden;fillColor=none;top=1;left=1;bottom=0;right=1;pointerEvents=1;fontFamily=Consolas;fontSize=14;align=center;verticalAlign=top;strokeWidth=0.5;spacing=5;spacingTop=0;spacingLeft=0;spacingBottom=0;fontStyle=0" vertex="1" parent="iljVmlmEiWhwnV5GWCFt-90">
          <mxGeometry x="280" width="120" height="60" as="geometry">
            <mxRectangle width="120" height="60" as="alternateBounds" />
          </mxGeometry>
        </mxCell>
        <mxCell id="iljVmlmEiWhwnV5GWCFt-95" value="Que le joueur soit incarné par un humain ou une IA, ils restent tous deux des joueurs. Ils auront des caractéritiques communes, telles que la couleur de leur pion, un nom (&quot;IA&quot; pour l&#39;IA), ...&lt;br&gt;&lt;br&gt;Ils auront également des actions communes, telles que placer un pion.&lt;br&gt;&lt;br&gt;Cependant, une action telle que placer un pion sera très différente selon qu&#39;on soit humain (choisir une colonne non remplie de la grille et y placer son pion) ou qu&#39;on soit IA (déterminer par algorithme la meilleure colonne pour y placer un pion)." style="shape=partialRectangle;html=1;whiteSpace=wrap;connectable=0;strokeColor=#000000;overflow=hidden;fillColor=none;top=1;left=1;bottom=1;right=1;pointerEvents=1;fontFamily=Consolas;fontSize=14;align=left;verticalAlign=top;strokeWidth=0.5;spacing=0;spacingTop=5;spacingLeft=5;spacingBottom=5;fontStyle=2;rowspan=2;colspan=1;" vertex="1" parent="iljVmlmEiWhwnV5GWCFt-90">
          <mxGeometry x="400" width="360" height="280" as="geometry">
            <mxRectangle width="360" height="60" as="alternateBounds" />
          </mxGeometry>
        </mxCell>
        <mxCell id="iljVmlmEiWhwnV5GWCFt-96" value="" style="shape=tableRow;horizontal=0;startSize=0;swimlaneHead=0;swimlaneBody=0;strokeColor=inherit;top=0;left=0;bottom=0;right=0;collapsible=0;dropTarget=0;fillColor=none;points=[[0,0.5],[1,0.5]];portConstraint=eastwest;" vertex="1" parent="iljVmlmEiWhwnV5GWCFt-29">
          <mxGeometry y="960" width="760" height="220" as="geometry" />
        </mxCell>
        <mxCell id="iljVmlmEiWhwnV5GWCFt-97" value="" style="shape=partialRectangle;html=1;whiteSpace=wrap;connectable=0;strokeColor=#000000;overflow=hidden;fillColor=#E3C800;top=0;left=1;bottom=1;right=1;pointerEvents=1;fontFamily=Consolas;fontSize=14;align=center;verticalAlign=top;strokeWidth=0.5;spacing=0;spacingTop=5;spacingLeft=5;spacingBottom=5;fontStyle=1" vertex="1" parent="iljVmlmEiWhwnV5GWCFt-96">
          <mxGeometry width="40" height="220" as="geometry">
            <mxRectangle width="40" height="220" as="alternateBounds" />
          </mxGeometry>
        </mxCell>
        <mxCell id="iljVmlmEiWhwnV5GWCFt-98" value="1" style="shape=partialRectangle;html=1;whiteSpace=wrap;connectable=0;strokeColor=#000000;overflow=hidden;fillColor=none;top=0;left=1;bottom=1;right=1;pointerEvents=1;fontFamily=Consolas;fontSize=14;align=right;verticalAlign=top;strokeWidth=0.5;spacing=5;spacingTop=0;spacingLeft=0;spacingBottom=0;fontStyle=0;spacingRight=0;" vertex="1" parent="iljVmlmEiWhwnV5GWCFt-96">
          <mxGeometry x="40" width="120" height="220" as="geometry">
            <mxRectangle width="120" height="220" as="alternateBounds" />
          </mxGeometry>
        </mxCell>
        <mxCell id="iljVmlmEiWhwnV5GWCFt-99" value="1..4" style="shape=partialRectangle;html=1;whiteSpace=wrap;connectable=0;strokeColor=#000000;overflow=hidden;fillColor=none;top=0;left=1;bottom=1;right=1;pointerEvents=1;fontFamily=Consolas;fontSize=14;align=left;verticalAlign=top;strokeWidth=0.5;spacing=5;spacingTop=0;spacingLeft=0;spacingBottom=0;fontStyle=0;spacingRight=0;" vertex="1" parent="iljVmlmEiWhwnV5GWCFt-96">
          <mxGeometry x="160" width="120" height="220" as="geometry">
            <mxRectangle width="120" height="220" as="alternateBounds" />
          </mxGeometry>
        </mxCell>
        <mxCell id="iljVmlmEiWhwnV5GWCFt-100" style="shape=partialRectangle;html=1;whiteSpace=wrap;connectable=0;strokeColor=#000000;overflow=hidden;fillColor=none;top=0;left=1;bottom=1;right=1;pointerEvents=1;fontFamily=Consolas;fontSize=14;align=left;verticalAlign=top;strokeWidth=0.5;spacing=5;spacingTop=0;spacingLeft=0;spacingBottom=0;fontStyle=0" vertex="1" parent="iljVmlmEiWhwnV5GWCFt-96">
          <mxGeometry x="280" width="120" height="220" as="geometry">
            <mxRectangle width="120" height="220" as="alternateBounds" />
          </mxGeometry>
        </mxCell>
        <mxCell id="iljVmlmEiWhwnV5GWCFt-101" style="shape=partialRectangle;html=1;whiteSpace=wrap;connectable=0;strokeColor=#000000;overflow=hidden;fillColor=none;top=1;left=1;bottom=1;right=1;pointerEvents=1;fontFamily=Consolas;fontSize=14;align=left;verticalAlign=top;strokeWidth=0.5;spacing=0;spacingTop=5;spacingLeft=5;spacingBottom=5;fontStyle=2" visible="0" vertex="1" parent="iljVmlmEiWhwnV5GWCFt-96">
          <mxGeometry x="400" width="360" height="220" as="geometry">
            <mxRectangle width="360" height="220" as="alternateBounds" />
          </mxGeometry>
        </mxCell>
      </root>
    </mxGraphModel>
  </diagram>
</mxfile>
